<svg width="374" height="89" viewBox="0 0 374 89" fill="none" xmlns="http://www.w3.org/2000/svg">
<rect x="46" width="310" height="76" rx="8" fill="#023C9B"/>
<path d="M58.84 23V22.02H60.212V14.208H58.84V13.228H62.76V14.208H61.388V22.02H62.76V23H58.84ZM68.1041 23V15.776H69.2241V16.952H69.2801C69.4574 16.5413 69.7047 16.2147 70.0221 15.972C70.3487 15.7293 70.7827 15.608 71.3241 15.608C72.0707 15.608 72.6587 15.8507 73.0881 16.336C73.5267 16.812 73.7461 17.4887 73.7461 18.366V23H72.6261V18.562C72.6261 17.2647 72.0801 16.616 70.9881 16.616C70.7641 16.616 70.5447 16.644 70.3301 16.7C70.1247 16.756 69.9381 16.84 69.7701 16.952C69.6021 17.064 69.4667 17.2087 69.3641 17.386C69.2707 17.554 69.2241 17.7547 69.2241 17.988V23H68.1041ZM78.7771 23.168C78.2824 23.168 77.8344 23.0793 77.4331 22.902C77.0411 22.7247 76.7004 22.4727 76.4111 22.146C76.1311 21.81 75.9118 21.4133 75.7531 20.956C75.6038 20.4893 75.5291 19.9667 75.5291 19.388C75.5291 18.8187 75.6038 18.3007 75.7531 17.834C75.9118 17.3673 76.1311 16.9707 76.4111 16.644C76.7004 16.308 77.0411 16.0513 77.4331 15.874C77.8344 15.6967 78.2824 15.608 78.7771 15.608C79.2624 15.608 79.6964 15.6967 80.0791 15.874C80.4618 16.0513 80.7884 16.2987 81.0591 16.616C81.3298 16.924 81.5351 17.2927 81.6751 17.722C81.8244 18.1513 81.8991 18.6227 81.8991 19.136V19.668H76.7051V20.004C76.7051 20.312 76.7518 20.6013 76.8451 20.872C76.9478 21.1333 77.0878 21.362 77.2651 21.558C77.4518 21.754 77.6758 21.908 77.9371 22.02C78.2078 22.132 78.5111 22.188 78.8471 22.188C79.3044 22.188 79.7011 22.0807 80.0371 21.866C80.3824 21.6513 80.6484 21.3433 80.8351 20.942L81.6331 21.516C81.3998 22.0107 81.0358 22.412 80.5411 22.72C80.0464 23.0187 79.4584 23.168 78.7771 23.168ZM78.7771 16.546C78.4691 16.546 78.1891 16.602 77.9371 16.714C77.6851 16.8167 77.4658 16.966 77.2791 17.162C77.1018 17.358 76.9618 17.5913 76.8591 17.862C76.7564 18.1233 76.7051 18.4127 76.7051 18.73V18.828H80.6951V18.674C80.6951 18.03 80.5178 17.5167 80.1631 17.134C79.8178 16.742 79.3558 16.546 78.7771 16.546ZM86.4607 23.168C85.966 23.168 85.518 23.0793 85.1167 22.902C84.7247 22.7247 84.384 22.4727 84.0947 22.146C83.8147 21.81 83.5954 21.4133 83.4367 20.956C83.2874 20.4893 83.2127 19.9667 83.2127 19.388C83.2127 18.8187 83.2874 18.3007 83.4367 17.834C83.5954 17.3673 83.8147 16.9707 84.0947 16.644C84.384 16.308 84.7247 16.0513 85.1167 15.874C85.518 15.6967 85.966 15.608 86.4607 15.608C86.946 15.608 87.38 15.6967 87.7627 15.874C88.1454 16.0513 88.472 16.2987 88.7427 16.616C89.0134 16.924 89.2187 17.2927 89.3587 17.722C89.508 18.1513 89.5827 18.6227 89.5827 19.136V19.668H84.3887V20.004C84.3887 20.312 84.4354 20.6013 84.5287 20.872C84.6314 21.1333 84.7714 21.362 84.9487 21.558C85.1354 21.754 85.3594 21.908 85.6207 22.02C85.8914 22.132 86.1947 22.188 86.5307 22.188C86.988 22.188 87.3847 22.0807 87.7207 21.866C88.066 21.6513 88.332 21.3433 88.5187 20.942L89.3167 21.516C89.0834 22.0107 88.7194 22.412 88.2247 22.72C87.73 23.0187 87.142 23.168 86.4607 23.168ZM86.4607 16.546C86.1527 16.546 85.8727 16.602 85.6207 16.714C85.3687 16.8167 85.1494 16.966 84.9627 17.162C84.7854 17.358 84.6454 17.5913 84.5427 17.862C84.44 18.1233 84.3887 18.4127 84.3887 18.73V18.828H88.3787V18.674C88.3787 18.03 88.2014 17.5167 87.8467 17.134C87.5014 16.742 87.0394 16.546 86.4607 16.546ZM96.0483 21.824H95.9923C95.5536 22.72 94.8489 23.168 93.8783 23.168C93.4303 23.168 93.0243 23.0793 92.6603 22.902C92.2963 22.7247 91.9836 22.4727 91.7223 22.146C91.4703 21.8193 91.2743 21.4227 91.1343 20.956C91.0036 20.4893 90.9383 19.9667 90.9383 19.388C90.9383 18.8093 91.0036 18.2867 91.1343 17.82C91.2743 17.3533 91.4703 16.9567 91.7223 16.63C91.9836 16.3033 92.2963 16.0513 92.6603 15.874C93.0243 15.6967 93.4303 15.608 93.8783 15.608C94.3823 15.608 94.8116 15.72 95.1663 15.944C95.5303 16.1587 95.8056 16.4947 95.9923 16.952H96.0483V12.64H97.1683V23H96.0483V21.824ZM94.1863 22.16C94.4383 22.16 94.6763 22.1273 94.9003 22.062C95.1336 21.9967 95.3343 21.9033 95.5023 21.782C95.6703 21.6513 95.8009 21.4973 95.8943 21.32C95.9969 21.1333 96.0483 20.9233 96.0483 20.69V18.002C96.0483 17.806 95.9969 17.624 95.8943 17.456C95.8009 17.2787 95.6703 17.1293 95.5023 17.008C95.3343 16.8867 95.1336 16.7933 94.9003 16.728C94.6763 16.6533 94.4383 16.616 94.1863 16.616C93.5516 16.616 93.0523 16.8167 92.6883 17.218C92.3243 17.61 92.1423 18.128 92.1423 18.772V20.004C92.1423 20.648 92.3243 21.1707 92.6883 21.572C93.0523 21.964 93.5516 22.16 94.1863 22.16ZM104.454 23C104.062 23 103.763 22.8927 103.558 22.678C103.362 22.454 103.264 22.1647 103.264 21.81V16.756H102.074V15.776H102.746C102.989 15.776 103.152 15.7293 103.236 15.636C103.329 15.5333 103.376 15.3607 103.376 15.118V13.774H104.384V15.776H105.966V16.756H104.384V22.02H105.854V23H104.454ZM110.441 23.168C109.956 23.168 109.513 23.0793 109.111 22.902C108.71 22.7247 108.365 22.4727 108.075 22.146C107.795 21.81 107.576 21.4133 107.417 20.956C107.259 20.4893 107.179 19.9667 107.179 19.388C107.179 18.8187 107.259 18.3007 107.417 17.834C107.576 17.3673 107.795 16.9707 108.075 16.644C108.365 16.308 108.71 16.0513 109.111 15.874C109.513 15.6967 109.956 15.608 110.441 15.608C110.927 15.608 111.365 15.6967 111.757 15.874C112.159 16.0513 112.504 16.308 112.793 16.644C113.083 16.9707 113.307 17.3673 113.465 17.834C113.624 18.3007 113.703 18.8187 113.703 19.388C113.703 19.9667 113.624 20.4893 113.465 20.956C113.307 21.4133 113.083 21.81 112.793 22.146C112.504 22.4727 112.159 22.7247 111.757 22.902C111.365 23.0793 110.927 23.168 110.441 23.168ZM110.441 22.174C111.048 22.174 111.543 21.9873 111.925 21.614C112.308 21.2407 112.499 20.6713 112.499 19.906V18.87C112.499 18.1047 112.308 17.5353 111.925 17.162C111.543 16.7887 111.048 16.602 110.441 16.602C109.835 16.602 109.34 16.7887 108.957 17.162C108.575 17.5353 108.383 18.1047 108.383 18.87V19.906C108.383 20.6713 108.575 21.2407 108.957 21.614C109.34 21.9873 109.835 22.174 110.441 22.174ZM121.024 23.168C120.352 23.168 119.787 23.042 119.33 22.79C118.882 22.5287 118.495 22.1833 118.168 21.754L118.966 21.11C119.246 21.4647 119.559 21.74 119.904 21.936C120.249 22.1227 120.651 22.216 121.108 22.216C121.584 22.216 121.953 22.1133 122.214 21.908C122.485 21.7027 122.62 21.4133 122.62 21.04C122.62 20.76 122.527 20.522 122.34 20.326C122.163 20.1207 121.836 19.9807 121.36 19.906L120.786 19.822C120.45 19.7753 120.142 19.7053 119.862 19.612C119.582 19.5093 119.335 19.3787 119.12 19.22C118.915 19.052 118.751 18.8467 118.63 18.604C118.518 18.3613 118.462 18.072 118.462 17.736C118.462 17.3813 118.527 17.0733 118.658 16.812C118.789 16.5413 118.966 16.3173 119.19 16.14C119.423 15.9627 119.699 15.832 120.016 15.748C120.333 15.6547 120.674 15.608 121.038 15.608C121.626 15.608 122.116 15.7107 122.508 15.916C122.909 16.1213 123.259 16.406 123.558 16.77L122.816 17.442C122.657 17.218 122.424 17.0173 122.116 16.84C121.808 16.6533 121.421 16.56 120.954 16.56C120.487 16.56 120.133 16.6627 119.89 16.868C119.657 17.064 119.54 17.3347 119.54 17.68C119.54 18.0347 119.657 18.2913 119.89 18.45C120.133 18.6087 120.478 18.7253 120.926 18.8L121.486 18.884C122.289 19.0053 122.858 19.2387 123.194 19.584C123.53 19.92 123.698 20.3633 123.698 20.914C123.698 21.614 123.46 22.1647 122.984 22.566C122.508 22.9673 121.855 23.168 121.024 23.168ZM125.676 12.64H126.796V16.952H126.852C127.03 16.5413 127.277 16.2147 127.594 15.972C127.921 15.7293 128.355 15.608 128.896 15.608C129.643 15.608 130.231 15.8507 130.66 16.336C131.099 16.812 131.318 17.4887 131.318 18.366V23H130.198V18.562C130.198 17.2647 129.652 16.616 128.56 16.616C128.336 16.616 128.117 16.644 127.902 16.7C127.697 16.756 127.51 16.84 127.342 16.952C127.174 17.064 127.039 17.2087 126.936 17.386C126.843 17.554 126.796 17.7547 126.796 17.988V23H125.676V12.64ZM134.193 14.082C133.951 14.082 133.773 14.026 133.661 13.914C133.559 13.7927 133.507 13.6387 133.507 13.452V13.27C133.507 13.0833 133.559 12.934 133.661 12.822C133.773 12.7007 133.951 12.64 134.193 12.64C134.436 12.64 134.609 12.7007 134.711 12.822C134.823 12.934 134.879 13.0833 134.879 13.27V13.452C134.879 13.6387 134.823 13.7927 134.711 13.914C134.609 14.026 134.436 14.082 134.193 14.082ZM133.633 15.776H134.753V23H133.633V15.776ZM137.133 15.776H138.253V16.952H138.309C138.496 16.4947 138.767 16.1587 139.121 15.944C139.485 15.72 139.919 15.608 140.423 15.608C140.871 15.608 141.277 15.6967 141.641 15.874C142.005 16.0513 142.313 16.3033 142.565 16.63C142.827 16.9567 143.023 17.3533 143.153 17.82C143.293 18.2867 143.363 18.8093 143.363 19.388C143.363 19.9667 143.293 20.4893 143.153 20.956C143.023 21.4227 142.827 21.8193 142.565 22.146C142.313 22.4727 142.005 22.7247 141.641 22.902C141.277 23.0793 140.871 23.168 140.423 23.168C139.443 23.168 138.739 22.72 138.309 21.824H138.253V25.8H137.133V15.776ZM140.115 22.16C140.75 22.16 141.249 21.964 141.613 21.572C141.977 21.1707 142.159 20.648 142.159 20.004V18.772C142.159 18.128 141.977 17.61 141.613 17.218C141.249 16.8167 140.75 16.616 140.115 16.616C139.863 16.616 139.621 16.6533 139.387 16.728C139.163 16.7933 138.967 16.8867 138.799 17.008C138.631 17.1293 138.496 17.2787 138.393 17.456C138.3 17.624 138.253 17.806 138.253 18.002V20.69C138.253 20.9233 138.3 21.1333 138.393 21.32C138.496 21.4973 138.631 21.6513 138.799 21.782C138.967 21.9033 139.163 21.9967 139.387 22.062C139.621 22.1273 139.863 22.16 140.115 22.16ZM148.955 16.756H147.779V15.776H148.955V14.32C148.955 13.816 149.086 13.41 149.347 13.102C149.608 12.794 150.005 12.64 150.537 12.64H151.629V13.62H150.075V15.776H151.629V16.756H150.075V23H148.955V16.756ZM153.102 23V15.776H154.222V17.106H154.292C154.423 16.7607 154.656 16.4527 154.992 16.182C155.328 15.9113 155.79 15.776 156.378 15.776H156.812V16.896H156.154C155.547 16.896 155.071 17.0127 154.726 17.246C154.39 17.47 154.222 17.7547 154.222 18.1V23H153.102ZM160.904 23.168C160.419 23.168 159.976 23.0793 159.574 22.902C159.173 22.7247 158.828 22.4727 158.538 22.146C158.258 21.81 158.039 21.4133 157.88 20.956C157.722 20.4893 157.642 19.9667 157.642 19.388C157.642 18.8187 157.722 18.3007 157.88 17.834C158.039 17.3673 158.258 16.9707 158.538 16.644C158.828 16.308 159.173 16.0513 159.574 15.874C159.976 15.6967 160.419 15.608 160.904 15.608C161.39 15.608 161.828 15.6967 162.22 15.874C162.622 16.0513 162.967 16.308 163.256 16.644C163.546 16.9707 163.77 17.3673 163.928 17.834C164.087 18.3007 164.166 18.8187 164.166 19.388C164.166 19.9667 164.087 20.4893 163.928 20.956C163.77 21.4133 163.546 21.81 163.256 22.146C162.967 22.4727 162.622 22.7247 162.22 22.902C161.828 23.0793 161.39 23.168 160.904 23.168ZM160.904 22.174C161.511 22.174 162.006 21.9873 162.388 21.614C162.771 21.2407 162.962 20.6713 162.962 19.906V18.87C162.962 18.1047 162.771 17.5353 162.388 17.162C162.006 16.7887 161.511 16.602 160.904 16.602C160.298 16.602 159.803 16.7887 159.42 17.162C159.038 17.5353 158.846 18.1047 158.846 18.87V19.906C158.846 20.6713 159.038 21.2407 159.42 21.614C159.803 21.9873 160.298 22.174 160.904 22.174ZM166.008 23V15.776H167.128V16.952H167.184C167.268 16.7653 167.362 16.5927 167.464 16.434C167.576 16.266 167.707 16.1213 167.856 16C168.015 15.8787 168.197 15.7853 168.402 15.72C168.608 15.6453 168.85 15.608 169.13 15.608C169.606 15.608 170.045 15.7247 170.446 15.958C170.848 16.182 171.146 16.5553 171.342 17.078H171.37C171.501 16.686 171.744 16.3453 172.098 16.056C172.462 15.7573 172.952 15.608 173.568 15.608C174.306 15.608 174.88 15.8507 175.29 16.336C175.71 16.812 175.92 17.4887 175.92 18.366V23H174.8V18.562C174.8 17.918 174.674 17.4327 174.422 17.106C174.17 16.7793 173.769 16.616 173.218 16.616C172.994 16.616 172.78 16.644 172.574 16.7C172.378 16.756 172.201 16.84 172.042 16.952C171.884 17.064 171.758 17.2087 171.664 17.386C171.571 17.554 171.524 17.7547 171.524 17.988V23H170.404V18.562C170.404 17.918 170.278 17.4327 170.026 17.106C169.774 16.7793 169.382 16.616 168.85 16.616C168.626 16.616 168.412 16.644 168.206 16.7C168.001 16.756 167.819 16.84 167.66 16.952C167.502 17.064 167.371 17.2087 167.268 17.386C167.175 17.554 167.128 17.7547 167.128 17.988V23H166.008ZM186.258 13.228V20.466C186.258 20.8767 186.188 21.25 186.048 21.586C185.917 21.922 185.726 22.2067 185.474 22.44C185.231 22.6733 184.937 22.8553 184.592 22.986C184.246 23.1073 183.868 23.168 183.458 23.168C182.702 23.168 182.09 22.9673 181.624 22.566C181.166 22.1553 180.872 21.614 180.742 20.942L181.806 20.69C181.899 21.11 182.076 21.4553 182.338 21.726C182.599 21.9873 182.982 22.118 183.486 22.118C183.99 22.118 184.382 21.964 184.662 21.656C184.942 21.348 185.082 20.8813 185.082 20.256V14.264H181.722V13.228H186.258ZM193.926 23C193.506 23 193.203 22.888 193.016 22.664C192.839 22.44 192.727 22.16 192.68 21.824H192.61C192.452 22.272 192.19 22.608 191.826 22.832C191.462 23.056 191.028 23.168 190.524 23.168C189.759 23.168 189.162 22.972 188.732 22.58C188.312 22.188 188.102 21.656 188.102 20.984C188.102 20.3027 188.35 19.78 188.844 19.416C189.348 19.052 190.128 18.87 191.182 18.87H192.61V18.156C192.61 17.6427 192.47 17.2507 192.19 16.98C191.91 16.7093 191.481 16.574 190.902 16.574C190.464 16.574 190.095 16.672 189.796 16.868C189.507 17.064 189.264 17.3253 189.068 17.652L188.396 17.022C188.592 16.63 188.905 16.2987 189.334 16.028C189.764 15.748 190.305 15.608 190.958 15.608C191.836 15.608 192.517 15.8227 193.002 16.252C193.488 16.6813 193.73 17.2787 193.73 18.044V22.02H194.556V23H193.926ZM190.706 22.216C190.986 22.216 191.243 22.1833 191.476 22.118C191.71 22.0527 191.91 21.9593 192.078 21.838C192.246 21.7167 192.377 21.5767 192.47 21.418C192.564 21.2593 192.61 21.0867 192.61 20.9V19.71H191.126C190.482 19.71 190.011 19.8033 189.712 19.99C189.423 20.1767 189.278 20.4473 189.278 20.802V21.096C189.278 21.4507 189.404 21.726 189.656 21.922C189.918 22.118 190.268 22.216 190.706 22.216ZM196.155 12.64H197.275V19.206H197.331L198.437 17.974L200.481 15.776H201.839L199.165 18.632L202.105 23H200.747L198.353 19.318L197.275 20.424V23H196.155V12.64ZM208.719 23C208.299 23 207.996 22.888 207.809 22.664C207.632 22.44 207.52 22.16 207.473 21.824H207.403C207.245 22.272 206.983 22.608 206.619 22.832C206.255 23.056 205.821 23.168 205.317 23.168C204.552 23.168 203.955 22.972 203.525 22.58C203.105 22.188 202.895 21.656 202.895 20.984C202.895 20.3027 203.143 19.78 203.637 19.416C204.141 19.052 204.921 18.87 205.975 18.87H207.403V18.156C207.403 17.6427 207.263 17.2507 206.983 16.98C206.703 16.7093 206.274 16.574 205.695 16.574C205.257 16.574 204.888 16.672 204.589 16.868C204.3 17.064 204.057 17.3253 203.861 17.652L203.189 17.022C203.385 16.63 203.698 16.2987 204.127 16.028C204.557 15.748 205.098 15.608 205.751 15.608C206.629 15.608 207.31 15.8227 207.795 16.252C208.281 16.6813 208.523 17.2787 208.523 18.044V22.02H209.349V23H208.719ZM205.499 22.216C205.779 22.216 206.036 22.1833 206.269 22.118C206.503 22.0527 206.703 21.9593 206.871 21.838C207.039 21.7167 207.17 21.5767 207.263 21.418C207.357 21.2593 207.403 21.0867 207.403 20.9V19.71H205.919C205.275 19.71 204.804 19.8033 204.505 19.99C204.216 20.1767 204.071 20.4473 204.071 20.802V21.096C204.071 21.4507 204.197 21.726 204.449 21.922C204.711 22.118 205.061 22.216 205.499 22.216ZM210.948 23V15.776H212.068V17.106H212.138C212.268 16.7607 212.502 16.4527 212.838 16.182C213.174 15.9113 213.636 15.776 214.224 15.776H214.658V16.896H214C213.393 16.896 212.917 17.0127 212.572 17.246C212.236 17.47 212.068 17.7547 212.068 18.1V23H210.948ZM217.739 23C217.347 23 217.048 22.8927 216.843 22.678C216.647 22.454 216.549 22.1647 216.549 21.81V16.756H215.359V15.776H216.031C216.274 15.776 216.437 15.7293 216.521 15.636C216.614 15.5333 216.661 15.3607 216.661 15.118V13.774H217.669V15.776H219.251V16.756H217.669V22.02H219.139V23H217.739ZM226.301 23C225.881 23 225.578 22.888 225.391 22.664C225.214 22.44 225.102 22.16 225.055 21.824H224.985C224.827 22.272 224.565 22.608 224.201 22.832C223.837 23.056 223.403 23.168 222.899 23.168C222.134 23.168 221.537 22.972 221.107 22.58C220.687 22.188 220.477 21.656 220.477 20.984C220.477 20.3027 220.725 19.78 221.219 19.416C221.723 19.052 222.503 18.87 223.557 18.87H224.985V18.156C224.985 17.6427 224.845 17.2507 224.565 16.98C224.285 16.7093 223.856 16.574 223.277 16.574C222.839 16.574 222.47 16.672 222.171 16.868C221.882 17.064 221.639 17.3253 221.443 17.652L220.771 17.022C220.967 16.63 221.28 16.2987 221.709 16.028C222.139 15.748 222.68 15.608 223.333 15.608C224.211 15.608 224.892 15.8227 225.377 16.252C225.863 16.6813 226.105 17.2787 226.105 18.044V22.02H226.931V23H226.301ZM223.081 22.216C223.361 22.216 223.618 22.1833 223.851 22.118C224.085 22.0527 224.285 21.9593 224.453 21.838C224.621 21.7167 224.752 21.5767 224.845 21.418C224.939 21.2593 224.985 21.0867 224.985 20.9V19.71H223.501C222.857 19.71 222.386 19.8033 222.087 19.99C221.798 20.1767 221.653 20.4473 221.653 20.802V21.096C221.653 21.4507 221.779 21.726 222.031 21.922C222.293 22.118 222.643 22.216 223.081 22.216ZM233.434 23C233.042 23 232.744 22.8927 232.538 22.678C232.342 22.454 232.244 22.1647 232.244 21.81V16.756H231.054V15.776H231.726C231.969 15.776 232.132 15.7293 232.216 15.636C232.31 15.5333 232.356 15.3607 232.356 15.118V13.774H233.364V15.776H234.946V16.756H233.364V22.02H234.834V23H233.434ZM239.422 23.168C238.937 23.168 238.493 23.0793 238.092 22.902C237.691 22.7247 237.345 22.4727 237.056 22.146C236.776 21.81 236.557 21.4133 236.398 20.956C236.239 20.4893 236.16 19.9667 236.16 19.388C236.16 18.8187 236.239 18.3007 236.398 17.834C236.557 17.3673 236.776 16.9707 237.056 16.644C237.345 16.308 237.691 16.0513 238.092 15.874C238.493 15.6967 238.937 15.608 239.422 15.608C239.907 15.608 240.346 15.6967 240.738 15.874C241.139 16.0513 241.485 16.308 241.774 16.644C242.063 16.9707 242.287 17.3673 242.446 17.834C242.605 18.3007 242.684 18.8187 242.684 19.388C242.684 19.9667 242.605 20.4893 242.446 20.956C242.287 21.4133 242.063 21.81 241.774 22.146C241.485 22.4727 241.139 22.7247 240.738 22.902C240.346 23.0793 239.907 23.168 239.422 23.168ZM239.422 22.174C240.029 22.174 240.523 21.9873 240.906 21.614C241.289 21.2407 241.48 20.6713 241.48 19.906V18.87C241.48 18.1047 241.289 17.5353 240.906 17.162C240.523 16.7887 240.029 16.602 239.422 16.602C238.815 16.602 238.321 16.7887 237.938 17.162C237.555 17.5353 237.364 18.1047 237.364 18.87V19.906C237.364 20.6713 237.555 21.2407 237.938 21.614C238.321 21.9873 238.815 22.174 239.422 22.174ZM250.691 23.168C249.897 23.168 249.221 23.0187 248.661 22.72C248.101 22.412 247.625 21.992 247.233 21.46L248.101 20.732C248.446 21.1893 248.829 21.5393 249.249 21.782C249.669 22.0153 250.163 22.132 250.733 22.132C251.433 22.132 251.965 21.964 252.329 21.628C252.702 21.292 252.889 20.844 252.889 20.284C252.889 19.8173 252.749 19.458 252.469 19.206C252.189 18.954 251.727 18.7533 251.083 18.604L250.285 18.422C249.389 18.2167 248.703 17.9087 248.227 17.498C247.76 17.078 247.527 16.49 247.527 15.734C247.527 15.3047 247.606 14.922 247.765 14.586C247.923 14.25 248.143 13.97 248.423 13.746C248.712 13.522 249.053 13.354 249.445 13.242C249.846 13.1207 250.285 13.06 250.761 13.06C251.498 13.06 252.128 13.1953 252.651 13.466C253.183 13.7367 253.631 14.1333 253.995 14.656L253.113 15.3C252.842 14.9267 252.515 14.6327 252.133 14.418C251.75 14.2033 251.274 14.096 250.705 14.096C250.079 14.096 249.585 14.2313 249.221 14.502C248.866 14.7633 248.689 15.16 248.689 15.692C248.689 16.1587 248.838 16.5133 249.137 16.756C249.445 16.9893 249.907 17.176 250.523 17.316L251.321 17.498C252.282 17.7127 252.977 18.0393 253.407 18.478C253.836 18.9167 254.051 19.5 254.051 20.228C254.051 20.676 253.971 21.082 253.813 21.446C253.663 21.81 253.444 22.118 253.155 22.37C252.865 22.622 252.511 22.818 252.091 22.958C251.68 23.098 251.213 23.168 250.691 23.168ZM256.529 14.082C256.287 14.082 256.109 14.026 255.997 13.914C255.895 13.7927 255.843 13.6387 255.843 13.452V13.27C255.843 13.0833 255.895 12.934 255.997 12.822C256.109 12.7007 256.287 12.64 256.529 12.64C256.772 12.64 256.945 12.7007 257.047 12.822C257.159 12.934 257.215 13.0833 257.215 13.27V13.452C257.215 13.6387 257.159 13.7927 257.047 13.914C256.945 14.026 256.772 14.082 256.529 14.082ZM255.969 15.776H257.089V23H255.969V15.776ZM259.469 23V15.776H260.589V16.952H260.645C260.823 16.5413 261.07 16.2147 261.387 15.972C261.714 15.7293 262.148 15.608 262.689 15.608C263.436 15.608 264.024 15.8507 264.453 16.336C264.892 16.812 265.111 17.4887 265.111 18.366V23H263.991V18.562C263.991 17.2647 263.445 16.616 262.353 16.616C262.129 16.616 261.91 16.644 261.695 16.7C261.49 16.756 261.303 16.84 261.135 16.952C260.967 17.064 260.832 17.2087 260.729 17.386C260.636 17.554 260.589 17.7547 260.589 17.988V23H259.469ZM273.516 23.798C273.516 24.5447 273.222 25.0907 272.634 25.436C272.056 25.7907 271.183 25.968 270.016 25.968C268.887 25.968 268.075 25.814 267.58 25.506C267.086 25.198 266.838 24.7593 266.838 24.19C266.838 23.798 266.941 23.49 267.146 23.266C267.352 23.0513 267.632 22.8927 267.986 22.79V22.636C267.557 22.4307 267.342 22.0947 267.342 21.628C267.342 21.264 267.459 20.9887 267.692 20.802C267.926 20.606 268.224 20.4613 268.588 20.368V20.312C268.159 20.1067 267.823 19.8127 267.58 19.43C267.347 19.0473 267.23 18.604 267.23 18.1C267.23 17.736 267.296 17.4 267.426 17.092C267.557 16.784 267.739 16.5227 267.972 16.308C268.215 16.084 268.5 15.9113 268.826 15.79C269.162 15.6687 269.536 15.608 269.946 15.608C270.46 15.608 270.917 15.7013 271.318 15.888V15.762C271.318 15.482 271.384 15.2533 271.514 15.076C271.645 14.8893 271.86 14.796 272.158 14.796H273.236V15.776H271.864V16.238C272.126 16.462 272.326 16.7327 272.466 17.05C272.616 17.358 272.69 17.708 272.69 18.1C272.69 18.464 272.625 18.8 272.494 19.108C272.364 19.416 272.177 19.682 271.934 19.906C271.701 20.1207 271.416 20.2887 271.08 20.41C270.744 20.5313 270.371 20.592 269.96 20.592C269.727 20.592 269.494 20.5687 269.26 20.522C269.018 20.5873 268.798 20.6853 268.602 20.816C268.406 20.9373 268.308 21.11 268.308 21.334C268.308 21.5487 268.411 21.6933 268.616 21.768C268.822 21.8427 269.088 21.88 269.414 21.88H270.954C271.85 21.88 272.499 22.0527 272.9 22.398C273.311 22.734 273.516 23.2007 273.516 23.798ZM272.466 23.882C272.466 23.5927 272.354 23.3593 272.13 23.182C271.916 23.014 271.528 22.93 270.968 22.93H268.56C268.112 23.1353 267.888 23.462 267.888 23.91C267.888 24.2273 268.005 24.498 268.238 24.722C268.481 24.946 268.887 25.058 269.456 25.058H270.492C271.118 25.058 271.603 24.96 271.948 24.764C272.294 24.568 272.466 24.274 272.466 23.882ZM269.96 19.696C270.436 19.696 270.814 19.584 271.094 19.36C271.374 19.1267 271.514 18.772 271.514 18.296V17.904C271.514 17.428 271.374 17.078 271.094 16.854C270.814 16.6207 270.436 16.504 269.96 16.504C269.484 16.504 269.106 16.6207 268.826 16.854C268.546 17.078 268.406 17.428 268.406 17.904V18.296C268.406 18.772 268.546 19.1267 268.826 19.36C269.106 19.584 269.484 19.696 269.96 19.696ZM280.032 23C279.612 23 279.308 22.888 279.122 22.664C278.944 22.44 278.832 22.16 278.786 21.824H278.716C278.557 22.272 278.296 22.608 277.932 22.832C277.568 23.056 277.134 23.168 276.63 23.168C275.864 23.168 275.267 22.972 274.838 22.58C274.418 22.188 274.208 21.656 274.208 20.984C274.208 20.3027 274.455 19.78 274.95 19.416C275.454 19.052 276.233 18.87 277.288 18.87H278.716V18.156C278.716 17.6427 278.576 17.2507 278.296 16.98C278.016 16.7093 277.586 16.574 277.008 16.574C276.569 16.574 276.2 16.672 275.902 16.868C275.612 17.064 275.37 17.3253 275.174 17.652L274.502 17.022C274.698 16.63 275.01 16.2987 275.44 16.028C275.869 15.748 276.41 15.608 277.064 15.608C277.941 15.608 278.622 15.8227 279.108 16.252C279.593 16.6813 279.836 17.2787 279.836 18.044V22.02H280.662V23H280.032ZM276.812 22.216C277.092 22.216 277.348 22.1833 277.582 22.118C277.815 22.0527 278.016 21.9593 278.184 21.838C278.352 21.7167 278.482 21.5767 278.576 21.418C278.669 21.2593 278.716 21.0867 278.716 20.9V19.71H277.232C276.588 19.71 276.116 19.8033 275.818 19.99C275.528 20.1767 275.384 20.4473 275.384 20.802V21.096C275.384 21.4507 275.51 21.726 275.762 21.922C276.023 22.118 276.373 22.216 276.812 22.216ZM282.26 15.776H283.38V16.952H283.436C283.623 16.4947 283.894 16.1587 284.248 15.944C284.612 15.72 285.046 15.608 285.55 15.608C285.998 15.608 286.404 15.6967 286.768 15.874C287.132 16.0513 287.44 16.3033 287.692 16.63C287.954 16.9567 288.15 17.3533 288.28 17.82C288.42 18.2867 288.49 18.8093 288.49 19.388C288.49 19.9667 288.42 20.4893 288.28 20.956C288.15 21.4227 287.954 21.8193 287.692 22.146C287.44 22.4727 287.132 22.7247 286.768 22.902C286.404 23.0793 285.998 23.168 285.55 23.168C284.57 23.168 283.866 22.72 283.436 21.824H283.38V25.8H282.26V15.776ZM285.242 22.16C285.877 22.16 286.376 21.964 286.74 21.572C287.104 21.1707 287.286 20.648 287.286 20.004V18.772C287.286 18.128 287.104 17.61 286.74 17.218C286.376 16.8167 285.877 16.616 285.242 16.616C284.99 16.616 284.748 16.6533 284.514 16.728C284.29 16.7933 284.094 16.8867 283.926 17.008C283.758 17.1293 283.623 17.2787 283.52 17.456C283.427 17.624 283.38 17.806 283.38 18.002V20.69C283.38 20.9233 283.427 21.1333 283.52 21.32C283.623 21.4973 283.758 21.6513 283.926 21.782C284.094 21.9033 284.29 21.9967 284.514 22.062C284.748 22.1273 284.99 22.16 285.242 22.16ZM293.111 23.168C292.626 23.168 292.183 23.0793 291.781 22.902C291.38 22.7247 291.035 22.4727 290.745 22.146C290.465 21.81 290.246 21.4133 290.087 20.956C289.929 20.4893 289.849 19.9667 289.849 19.388C289.849 18.8187 289.929 18.3007 290.087 17.834C290.246 17.3673 290.465 16.9707 290.745 16.644C291.035 16.308 291.38 16.0513 291.781 15.874C292.183 15.6967 292.626 15.608 293.111 15.608C293.597 15.608 294.035 15.6967 294.427 15.874C294.829 16.0513 295.174 16.308 295.463 16.644C295.753 16.9707 295.977 17.3673 296.135 17.834C296.294 18.3007 296.373 18.8187 296.373 19.388C296.373 19.9667 296.294 20.4893 296.135 20.956C295.977 21.4133 295.753 21.81 295.463 22.146C295.174 22.4727 294.829 22.7247 294.427 22.902C294.035 23.0793 293.597 23.168 293.111 23.168ZM293.111 22.174C293.718 22.174 294.213 21.9873 294.595 21.614C294.978 21.2407 295.169 20.6713 295.169 19.906V18.87C295.169 18.1047 294.978 17.5353 294.595 17.162C294.213 16.7887 293.718 16.602 293.111 16.602C292.505 16.602 292.01 16.7887 291.627 17.162C291.245 17.5353 291.053 18.1047 291.053 18.87V19.906C291.053 20.6713 291.245 21.2407 291.627 21.614C292.01 21.9873 292.505 22.174 293.111 22.174ZM298.215 23V15.776H299.335V17.106H299.405C299.536 16.7607 299.769 16.4527 300.105 16.182C300.441 15.9113 300.903 15.776 301.491 15.776H301.925V16.896H301.267C300.661 16.896 300.185 17.0127 299.839 17.246C299.503 17.47 299.335 17.7547 299.335 18.1V23H298.215ZM306.004 23.168C305.509 23.168 305.061 23.0793 304.66 22.902C304.268 22.7247 303.927 22.4727 303.638 22.146C303.358 21.81 303.138 21.4133 302.98 20.956C302.83 20.4893 302.756 19.9667 302.756 19.388C302.756 18.8187 302.83 18.3007 302.98 17.834C303.138 17.3673 303.358 16.9707 303.638 16.644C303.927 16.308 304.268 16.0513 304.66 15.874C305.061 15.6967 305.509 15.608 306.004 15.608C306.489 15.608 306.923 15.6967 307.306 15.874C307.688 16.0513 308.015 16.2987 308.286 16.616C308.556 16.924 308.762 17.2927 308.902 17.722C309.051 18.1513 309.126 18.6227 309.126 19.136V19.668H303.932V20.004C303.932 20.312 303.978 20.6013 304.072 20.872C304.174 21.1333 304.314 21.362 304.492 21.558C304.678 21.754 304.902 21.908 305.164 22.02C305.434 22.132 305.738 22.188 306.074 22.188C306.531 22.188 306.928 22.0807 307.264 21.866C307.609 21.6513 307.875 21.3433 308.062 20.942L308.86 21.516C308.626 22.0107 308.262 22.412 307.768 22.72C307.273 23.0187 306.685 23.168 306.004 23.168ZM306.004 16.546C305.696 16.546 305.416 16.602 305.164 16.714C304.912 16.8167 304.692 16.966 304.506 17.162C304.328 17.358 304.188 17.5913 304.086 17.862C303.983 18.1233 303.932 18.4127 303.932 18.73V18.828H307.922V18.674C307.922 18.03 307.744 17.5167 307.39 17.134C307.044 16.742 306.582 16.546 306.004 16.546ZM311.412 23.168C311.113 23.168 310.894 23.0933 310.754 22.944C310.623 22.7947 310.558 22.5987 310.558 22.356V22.174C310.558 21.9313 310.623 21.7353 310.754 21.586C310.894 21.4367 311.113 21.362 311.412 21.362C311.71 21.362 311.925 21.4367 312.056 21.586C312.196 21.7353 312.266 21.9313 312.266 22.174V22.356C312.266 22.5987 312.196 22.7947 312.056 22.944C311.925 23.0933 311.71 23.168 311.412 23.168ZM59.302 43V33.228H65.126V34.264H60.478V37.54H64.72V38.576H60.478V43H59.302ZM66.7369 43V35.776H67.8569V37.106H67.9269C68.0575 36.7607 68.2909 36.4527 68.6269 36.182C68.9629 35.9113 69.4249 35.776 70.0129 35.776H70.4469V36.896H69.7889C69.1822 36.896 68.7062 37.0127 68.3609 37.246C68.0249 37.47 67.8569 37.7547 67.8569 38.1V43H66.7369ZM74.5251 43.168C74.0305 43.168 73.5825 43.0793 73.1811 42.902C72.7891 42.7247 72.4485 42.4727 72.1591 42.146C71.8791 41.81 71.6598 41.4133 71.5011 40.956C71.3518 40.4893 71.2771 39.9667 71.2771 39.388C71.2771 38.8187 71.3518 38.3007 71.5011 37.834C71.6598 37.3673 71.8791 36.9707 72.1591 36.644C72.4485 36.308 72.7891 36.0513 73.1811 35.874C73.5825 35.6967 74.0305 35.608 74.5251 35.608C75.0105 35.608 75.4445 35.6967 75.8271 35.874C76.2098 36.0513 76.5365 36.2987 76.8071 36.616C77.0778 36.924 77.2831 37.2927 77.4231 37.722C77.5725 38.1513 77.6471 38.6227 77.6471 39.136V39.668H72.4531V40.004C72.4531 40.312 72.4998 40.6013 72.5931 40.872C72.6958 41.1333 72.8358 41.362 73.0131 41.558C73.1998 41.754 73.4238 41.908 73.6851 42.02C73.9558 42.132 74.2591 42.188 74.5951 42.188C75.0525 42.188 75.4491 42.0807 75.7851 41.866C76.1305 41.6513 76.3965 41.3433 76.5831 40.942L77.3811 41.516C77.1478 42.0107 76.7838 42.412 76.2891 42.72C75.7945 43.0187 75.2065 43.168 74.5251 43.168ZM74.5251 36.546C74.2171 36.546 73.9371 36.602 73.6851 36.714C73.4331 36.8167 73.2138 36.966 73.0271 37.162C72.8498 37.358 72.7098 37.5913 72.6071 37.862C72.5045 38.1233 72.4531 38.4127 72.4531 38.73V38.828H76.4431V38.674C76.4431 38.03 76.2658 37.5167 75.9111 37.134C75.5658 36.742 75.1038 36.546 74.5251 36.546ZM80.0527 34.082C79.8101 34.082 79.6327 34.026 79.5207 33.914C79.4181 33.7927 79.3667 33.6387 79.3667 33.452V33.27C79.3667 33.0833 79.4181 32.934 79.5207 32.822C79.6327 32.7007 79.8101 32.64 80.0527 32.64C80.2954 32.64 80.4681 32.7007 80.5707 32.822C80.6827 32.934 80.7387 33.0833 80.7387 33.27V33.452C80.7387 33.6387 80.6827 33.7927 80.5707 33.914C80.4681 34.026 80.2954 34.082 80.0527 34.082ZM79.4927 35.776H80.6127V43H79.4927V35.776ZM89.0827 43.798C89.0827 44.5447 88.7887 45.0907 88.2007 45.436C87.6221 45.7907 86.7494 45.968 85.5827 45.968C84.4534 45.968 83.6414 45.814 83.1467 45.506C82.6521 45.198 82.4047 44.7593 82.4047 44.19C82.4047 43.798 82.5074 43.49 82.7127 43.266C82.9181 43.0513 83.1981 42.8927 83.5527 42.79V42.636C83.1234 42.4307 82.9087 42.0947 82.9087 41.628C82.9087 41.264 83.0254 40.9887 83.2587 40.802C83.4921 40.606 83.7907 40.4613 84.1547 40.368V40.312C83.7254 40.1067 83.3894 39.8127 83.1467 39.43C82.9134 39.0473 82.7967 38.604 82.7967 38.1C82.7967 37.736 82.8621 37.4 82.9927 37.092C83.1234 36.784 83.3054 36.5227 83.5387 36.308C83.7814 36.084 84.0661 35.9113 84.3927 35.79C84.7287 35.6687 85.1021 35.608 85.5127 35.608C86.0261 35.608 86.4834 35.7013 86.8847 35.888V35.762C86.8847 35.482 86.9501 35.2533 87.0807 35.076C87.2114 34.8893 87.4261 34.796 87.7247 34.796H88.8027V35.776H87.4307V36.238C87.6921 36.462 87.8927 36.7327 88.0327 37.05C88.1821 37.358 88.2567 37.708 88.2567 38.1C88.2567 38.464 88.1914 38.8 88.0607 39.108C87.9301 39.416 87.7434 39.682 87.5007 39.906C87.2674 40.1207 86.9827 40.2887 86.6467 40.41C86.3107 40.5313 85.9374 40.592 85.5267 40.592C85.2934 40.592 85.0601 40.5687 84.8267 40.522C84.5841 40.5873 84.3647 40.6853 84.1687 40.816C83.9727 40.9373 83.8747 41.11 83.8747 41.334C83.8747 41.5487 83.9774 41.6933 84.1827 41.768C84.3881 41.8427 84.6541 41.88 84.9807 41.88H86.5207C87.4167 41.88 88.0654 42.0527 88.4667 42.398C88.8774 42.734 89.0827 43.2007 89.0827 43.798ZM88.0327 43.882C88.0327 43.5927 87.9207 43.3593 87.6967 43.182C87.4821 43.014 87.0947 42.93 86.5347 42.93H84.1267C83.6787 43.1353 83.4547 43.462 83.4547 43.91C83.4547 44.2273 83.5714 44.498 83.8047 44.722C84.0474 44.946 84.4534 45.058 85.0227 45.058H86.0587C86.6841 45.058 87.1694 44.96 87.5147 44.764C87.8601 44.568 88.0327 44.274 88.0327 43.882ZM85.5267 39.696C86.0027 39.696 86.3807 39.584 86.6607 39.36C86.9407 39.1267 87.0807 38.772 87.0807 38.296V37.904C87.0807 37.428 86.9407 37.078 86.6607 36.854C86.3807 36.6207 86.0027 36.504 85.5267 36.504C85.0507 36.504 84.6727 36.6207 84.3927 36.854C84.1127 37.078 83.9727 37.428 83.9727 37.904V38.296C83.9727 38.772 84.1127 39.1267 84.3927 39.36C84.6727 39.584 85.0507 39.696 85.5267 39.696ZM90.3892 32.64H91.5092V36.952H91.5652C91.7426 36.5413 91.9899 36.2147 92.3072 35.972C92.6339 35.7293 93.0679 35.608 93.6092 35.608C94.3559 35.608 94.9439 35.8507 95.3732 36.336C95.8119 36.812 96.0312 37.4887 96.0312 38.366V43H94.9112V38.562C94.9112 37.2647 94.3652 36.616 93.2732 36.616C93.0492 36.616 92.8299 36.644 92.6152 36.7C92.4099 36.756 92.2232 36.84 92.0552 36.952C91.8872 37.064 91.7519 37.2087 91.6492 37.386C91.5559 37.554 91.5092 37.7547 91.5092 37.988V43H90.3892V32.64ZM99.9423 43C99.5503 43 99.2516 42.8927 99.0463 42.678C98.8503 42.454 98.7523 42.1647 98.7523 41.81V36.756H97.5623V35.776H98.2343C98.4769 35.776 98.6403 35.7293 98.7243 35.636C98.8176 35.5333 98.8643 35.3607 98.8643 35.118V33.774H99.8723V35.776H101.454V36.756H99.8723V42.02H101.342V43H99.9423ZM109.251 43.168C108.747 43.168 108.294 43.0793 107.893 42.902C107.492 42.7247 107.151 42.4727 106.871 42.146C106.6 41.8193 106.39 41.4227 106.241 40.956C106.101 40.4893 106.031 39.9667 106.031 39.388C106.031 38.8093 106.101 38.2867 106.241 37.82C106.39 37.3533 106.6 36.9567 106.871 36.63C107.151 36.3033 107.492 36.0513 107.893 35.874C108.294 35.6967 108.747 35.608 109.251 35.608C109.97 35.608 110.544 35.7667 110.973 36.084C111.412 36.392 111.738 36.798 111.953 37.302L111.015 37.778C110.884 37.4047 110.67 37.1153 110.371 36.91C110.072 36.7047 109.699 36.602 109.251 36.602C108.915 36.602 108.621 36.658 108.369 36.77C108.117 36.8727 107.907 37.022 107.739 37.218C107.571 37.4047 107.445 37.6333 107.361 37.904C107.277 38.1653 107.235 38.4547 107.235 38.772V40.004C107.235 40.6387 107.403 41.1613 107.739 41.572C108.084 41.9733 108.588 42.174 109.251 42.174C110.156 42.174 110.81 41.754 111.211 40.914L112.023 41.46C111.79 41.9827 111.44 42.398 110.973 42.706C110.516 43.014 109.942 43.168 109.251 43.168ZM113.604 32.64H114.724V36.952H114.78C114.957 36.5413 115.205 36.2147 115.522 35.972C115.849 35.7293 116.283 35.608 116.824 35.608C117.571 35.608 118.159 35.8507 118.588 36.336C119.027 36.812 119.246 37.4887 119.246 38.366V43H118.126V38.562C118.126 37.2647 117.58 36.616 116.488 36.616C116.264 36.616 116.045 36.644 115.83 36.7C115.625 36.756 115.438 36.84 115.27 36.952C115.102 37.064 114.967 37.2087 114.864 37.386C114.771 37.554 114.724 37.7547 114.724 37.988V43H113.604V32.64ZM126.811 43C126.391 43 126.088 42.888 125.901 42.664C125.724 42.44 125.612 42.16 125.565 41.824H125.495C125.336 42.272 125.075 42.608 124.711 42.832C124.347 43.056 123.913 43.168 123.409 43.168C122.644 43.168 122.046 42.972 121.617 42.58C121.197 42.188 120.987 41.656 120.987 40.984C120.987 40.3027 121.234 39.78 121.729 39.416C122.233 39.052 123.012 38.87 124.067 38.87H125.495V38.156C125.495 37.6427 125.355 37.2507 125.075 36.98C124.795 36.7093 124.366 36.574 123.787 36.574C123.348 36.574 122.98 36.672 122.681 36.868C122.392 37.064 122.149 37.3253 121.953 37.652L121.281 37.022C121.477 36.63 121.79 36.2987 122.219 36.028C122.648 35.748 123.19 35.608 123.843 35.608C124.72 35.608 125.402 35.8227 125.887 36.252C126.372 36.6813 126.615 37.2787 126.615 38.044V42.02H127.441V43H126.811ZM123.591 42.216C123.871 42.216 124.128 42.1833 124.361 42.118C124.594 42.0527 124.795 41.9593 124.963 41.838C125.131 41.7167 125.262 41.5767 125.355 41.418C125.448 41.2593 125.495 41.0867 125.495 40.9V39.71H124.011C123.367 39.71 122.896 39.8033 122.597 39.99C122.308 40.1767 122.163 40.4473 122.163 40.802V41.096C122.163 41.4507 122.289 41.726 122.541 41.922C122.802 42.118 123.152 42.216 123.591 42.216ZM129.04 43V35.776H130.16V37.106H130.23C130.36 36.7607 130.594 36.4527 130.93 36.182C131.266 35.9113 131.728 35.776 132.316 35.776H132.75V36.896H132.092C131.485 36.896 131.009 37.0127 130.664 37.246C130.328 37.47 130.16 37.7547 130.16 38.1V43H129.04ZM139.942 43.798C139.942 44.5447 139.648 45.0907 139.06 45.436C138.481 45.7907 137.609 45.968 136.442 45.968C135.313 45.968 134.501 45.814 134.006 45.506C133.511 45.198 133.264 44.7593 133.264 44.19C133.264 43.798 133.367 43.49 133.572 43.266C133.777 43.0513 134.057 42.8927 134.412 42.79V42.636C133.983 42.4307 133.768 42.0947 133.768 41.628C133.768 41.264 133.885 40.9887 134.118 40.802C134.351 40.606 134.65 40.4613 135.014 40.368V40.312C134.585 40.1067 134.249 39.8127 134.006 39.43C133.773 39.0473 133.656 38.604 133.656 38.1C133.656 37.736 133.721 37.4 133.852 37.092C133.983 36.784 134.165 36.5227 134.398 36.308C134.641 36.084 134.925 35.9113 135.252 35.79C135.588 35.6687 135.961 35.608 136.372 35.608C136.885 35.608 137.343 35.7013 137.744 35.888V35.762C137.744 35.482 137.809 35.2533 137.94 35.076C138.071 34.8893 138.285 34.796 138.584 34.796H139.662V35.776H138.29V36.238C138.551 36.462 138.752 36.7327 138.892 37.05C139.041 37.358 139.116 37.708 139.116 38.1C139.116 38.464 139.051 38.8 138.92 39.108C138.789 39.416 138.603 39.682 138.36 39.906C138.127 40.1207 137.842 40.2887 137.506 40.41C137.17 40.5313 136.797 40.592 136.386 40.592C136.153 40.592 135.919 40.5687 135.686 40.522C135.443 40.5873 135.224 40.6853 135.028 40.816C134.832 40.9373 134.734 41.11 134.734 41.334C134.734 41.5487 134.837 41.6933 135.042 41.768C135.247 41.8427 135.513 41.88 135.84 41.88H137.38C138.276 41.88 138.925 42.0527 139.326 42.398C139.737 42.734 139.942 43.2007 139.942 43.798ZM138.892 43.882C138.892 43.5927 138.78 43.3593 138.556 43.182C138.341 43.014 137.954 42.93 137.394 42.93H134.986C134.538 43.1353 134.314 43.462 134.314 43.91C134.314 44.2273 134.431 44.498 134.664 44.722C134.907 44.946 135.313 45.058 135.882 45.058H136.918C137.543 45.058 138.029 44.96 138.374 44.764C138.719 44.568 138.892 44.274 138.892 43.882ZM136.386 39.696C136.862 39.696 137.24 39.584 137.52 39.36C137.8 39.1267 137.94 38.772 137.94 38.296V37.904C137.94 37.428 137.8 37.078 137.52 36.854C137.24 36.6207 136.862 36.504 136.386 36.504C135.91 36.504 135.532 36.6207 135.252 36.854C134.972 37.078 134.832 37.428 134.832 37.904V38.296C134.832 38.772 134.972 39.1267 135.252 39.36C135.532 39.584 135.91 39.696 136.386 39.696ZM143.883 43.168C143.388 43.168 142.94 43.0793 142.539 42.902C142.147 42.7247 141.806 42.4727 141.517 42.146C141.237 41.81 141.017 41.4133 140.859 40.956C140.709 40.4893 140.635 39.9667 140.635 39.388C140.635 38.8187 140.709 38.3007 140.859 37.834C141.017 37.3673 141.237 36.9707 141.517 36.644C141.806 36.308 142.147 36.0513 142.539 35.874C142.94 35.6967 143.388 35.608 143.883 35.608C144.368 35.608 144.802 35.6967 145.185 35.874C145.567 36.0513 145.894 36.2987 146.165 36.616C146.435 36.924 146.641 37.2927 146.781 37.722C146.93 38.1513 147.005 38.6227 147.005 39.136V39.668H141.811V40.004C141.811 40.312 141.857 40.6013 141.951 40.872C142.053 41.1333 142.193 41.362 142.371 41.558C142.557 41.754 142.781 41.908 143.043 42.02C143.313 42.132 143.617 42.188 143.953 42.188C144.41 42.188 144.807 42.0807 145.143 41.866C145.488 41.6513 145.754 41.3433 145.941 40.942L146.739 41.516C146.505 42.0107 146.141 42.412 145.647 42.72C145.152 43.0187 144.564 43.168 143.883 43.168ZM143.883 36.546C143.575 36.546 143.295 36.602 143.043 36.714C142.791 36.8167 142.571 36.966 142.385 37.162C142.207 37.358 142.067 37.5913 141.965 37.862C141.862 38.1233 141.811 38.4127 141.811 38.73V38.828H145.801V38.674C145.801 38.03 145.623 37.5167 145.269 37.134C144.923 36.742 144.461 36.546 143.883 36.546ZM151.02 43.168C150.348 43.168 149.783 43.042 149.326 42.79C148.878 42.5287 148.491 42.1833 148.164 41.754L148.962 41.11C149.242 41.4647 149.555 41.74 149.9 41.936C150.245 42.1227 150.647 42.216 151.104 42.216C151.58 42.216 151.949 42.1133 152.21 41.908C152.481 41.7027 152.616 41.4133 152.616 41.04C152.616 40.76 152.523 40.522 152.336 40.326C152.159 40.1207 151.832 39.9807 151.356 39.906L150.782 39.822C150.446 39.7753 150.138 39.7053 149.858 39.612C149.578 39.5093 149.331 39.3787 149.116 39.22C148.911 39.052 148.747 38.8467 148.626 38.604C148.514 38.3613 148.458 38.072 148.458 37.736C148.458 37.3813 148.523 37.0733 148.654 36.812C148.785 36.5413 148.962 36.3173 149.186 36.14C149.419 35.9627 149.695 35.832 150.012 35.748C150.329 35.6547 150.67 35.608 151.034 35.608C151.622 35.608 152.112 35.7107 152.504 35.916C152.905 36.1213 153.255 36.406 153.554 36.77L152.812 37.442C152.653 37.218 152.42 37.0173 152.112 36.84C151.804 36.6533 151.417 36.56 150.95 36.56C150.483 36.56 150.129 36.6627 149.886 36.868C149.653 37.064 149.536 37.3347 149.536 37.68C149.536 38.0347 149.653 38.2913 149.886 38.45C150.129 38.6087 150.474 38.7253 150.922 38.8L151.482 38.884C152.285 39.0053 152.854 39.2387 153.19 39.584C153.526 39.92 153.694 40.3633 153.694 40.914C153.694 41.614 153.456 42.1647 152.98 42.566C152.504 42.9673 151.851 43.168 151.02 43.168ZM164.231 43C163.811 43 163.508 42.888 163.321 42.664C163.144 42.44 163.032 42.16 162.985 41.824H162.915C162.756 42.272 162.495 42.608 162.131 42.832C161.767 43.056 161.333 43.168 160.829 43.168C160.064 43.168 159.466 42.972 159.037 42.58C158.617 42.188 158.407 41.656 158.407 40.984C158.407 40.3027 158.654 39.78 159.149 39.416C159.653 39.052 160.432 38.87 161.487 38.87H162.915V38.156C162.915 37.6427 162.775 37.2507 162.495 36.98C162.215 36.7093 161.786 36.574 161.207 36.574C160.768 36.574 160.4 36.672 160.101 36.868C159.812 37.064 159.569 37.3253 159.373 37.652L158.701 37.022C158.897 36.63 159.21 36.2987 159.639 36.028C160.068 35.748 160.61 35.608 161.263 35.608C162.14 35.608 162.822 35.8227 163.307 36.252C163.792 36.6813 164.035 37.2787 164.035 38.044V42.02H164.861V43H164.231ZM161.011 42.216C161.291 42.216 161.548 42.1833 161.781 42.118C162.014 42.0527 162.215 41.9593 162.383 41.838C162.551 41.7167 162.682 41.5767 162.775 41.418C162.868 41.2593 162.915 41.0867 162.915 40.9V39.71H161.431C160.787 39.71 160.316 39.8033 160.017 39.99C159.728 40.1767 159.583 40.4473 159.583 40.802V41.096C159.583 41.4507 159.709 41.726 159.961 41.922C160.222 42.118 160.572 42.216 161.011 42.216ZM166.46 43V35.776H167.58V37.106H167.65C167.78 36.7607 168.014 36.4527 168.35 36.182C168.686 35.9113 169.148 35.776 169.736 35.776H170.17V36.896H169.512C168.905 36.896 168.429 37.0127 168.084 37.246C167.748 37.47 167.58 37.7547 167.58 38.1V43H166.46ZM174.248 43.168C173.753 43.168 173.305 43.0793 172.904 42.902C172.512 42.7247 172.171 42.4727 171.882 42.146C171.602 41.81 171.382 41.4133 171.224 40.956C171.074 40.4893 171 39.9667 171 39.388C171 38.8187 171.074 38.3007 171.224 37.834C171.382 37.3673 171.602 36.9707 171.882 36.644C172.171 36.308 172.512 36.0513 172.904 35.874C173.305 35.6967 173.753 35.608 174.248 35.608C174.733 35.608 175.167 35.6967 175.55 35.874C175.932 36.0513 176.259 36.2987 176.53 36.616C176.8 36.924 177.006 37.2927 177.146 37.722C177.295 38.1513 177.37 38.6227 177.37 39.136V39.668H172.176V40.004C172.176 40.312 172.222 40.6013 172.316 40.872C172.418 41.1333 172.558 41.362 172.736 41.558C172.922 41.754 173.146 41.908 173.408 42.02C173.678 42.132 173.982 42.188 174.318 42.188C174.775 42.188 175.172 42.0807 175.508 41.866C175.853 41.6513 176.119 41.3433 176.306 40.942L177.104 41.516C176.87 42.0107 176.506 42.412 176.012 42.72C175.517 43.0187 174.929 43.168 174.248 43.168ZM174.248 36.546C173.94 36.546 173.66 36.602 173.408 36.714C173.156 36.8167 172.936 36.966 172.75 37.162C172.572 37.358 172.432 37.5913 172.33 37.862C172.227 38.1233 172.176 38.4127 172.176 38.73V38.828H176.166V38.674C176.166 38.03 175.988 37.5167 175.634 37.134C175.288 36.742 174.826 36.546 174.248 36.546ZM185.212 43.168C184.708 43.168 184.255 43.0793 183.854 42.902C183.453 42.7247 183.112 42.4727 182.832 42.146C182.561 41.8193 182.351 41.4227 182.202 40.956C182.062 40.4893 181.992 39.9667 181.992 39.388C181.992 38.8093 182.062 38.2867 182.202 37.82C182.351 37.3533 182.561 36.9567 182.832 36.63C183.112 36.3033 183.453 36.0513 183.854 35.874C184.255 35.6967 184.708 35.608 185.212 35.608C185.931 35.608 186.505 35.7667 186.934 36.084C187.373 36.392 187.699 36.798 187.914 37.302L186.976 37.778C186.845 37.4047 186.631 37.1153 186.332 36.91C186.033 36.7047 185.66 36.602 185.212 36.602C184.876 36.602 184.582 36.658 184.33 36.77C184.078 36.8727 183.868 37.022 183.7 37.218C183.532 37.4047 183.406 37.6333 183.322 37.904C183.238 38.1653 183.196 38.4547 183.196 38.772V40.004C183.196 40.6387 183.364 41.1613 183.7 41.572C184.045 41.9733 184.549 42.174 185.212 42.174C186.117 42.174 186.771 41.754 187.172 40.914L187.984 41.46C187.751 41.9827 187.401 42.398 186.934 42.706C186.477 43.014 185.903 43.168 185.212 43.168ZM192.213 43.168C191.728 43.168 191.284 43.0793 190.883 42.902C190.482 42.7247 190.136 42.4727 189.847 42.146C189.567 41.81 189.348 41.4133 189.189 40.956C189.03 40.4893 188.951 39.9667 188.951 39.388C188.951 38.8187 189.03 38.3007 189.189 37.834C189.348 37.3673 189.567 36.9707 189.847 36.644C190.136 36.308 190.482 36.0513 190.883 35.874C191.284 35.6967 191.728 35.608 192.213 35.608C192.698 35.608 193.137 35.6967 193.529 35.874C193.93 36.0513 194.276 36.308 194.565 36.644C194.854 36.9707 195.078 37.3673 195.237 37.834C195.396 38.3007 195.475 38.8187 195.475 39.388C195.475 39.9667 195.396 40.4893 195.237 40.956C195.078 41.4133 194.854 41.81 194.565 42.146C194.276 42.4727 193.93 42.7247 193.529 42.902C193.137 43.0793 192.698 43.168 192.213 43.168ZM192.213 42.174C192.82 42.174 193.314 41.9873 193.697 41.614C194.08 41.2407 194.271 40.6713 194.271 39.906V38.87C194.271 38.1047 194.08 37.5353 193.697 37.162C193.314 36.7887 192.82 36.602 192.213 36.602C191.606 36.602 191.112 36.7887 190.729 37.162C190.346 37.5353 190.155 38.1047 190.155 38.87V39.906C190.155 40.6713 190.346 41.2407 190.729 41.614C191.112 41.9873 191.606 42.174 192.213 42.174ZM198.507 43C198.115 43 197.816 42.8927 197.611 42.678C197.415 42.454 197.317 42.174 197.317 41.838V32.64H198.437V42.02H199.501V43H198.507ZM202.253 43C201.861 43 201.562 42.8927 201.357 42.678C201.161 42.454 201.063 42.174 201.063 41.838V32.64H202.183V42.02H203.247V43H202.253ZM207.594 43.168C207.099 43.168 206.651 43.0793 206.25 42.902C205.858 42.7247 205.517 42.4727 205.228 42.146C204.948 41.81 204.728 41.4133 204.57 40.956C204.42 40.4893 204.346 39.9667 204.346 39.388C204.346 38.8187 204.42 38.3007 204.57 37.834C204.728 37.3673 204.948 36.9707 205.228 36.644C205.517 36.308 205.858 36.0513 206.25 35.874C206.651 35.6967 207.099 35.608 207.594 35.608C208.079 35.608 208.513 35.6967 208.896 35.874C209.278 36.0513 209.605 36.2987 209.876 36.616C210.146 36.924 210.352 37.2927 210.492 37.722C210.641 38.1513 210.716 38.6227 210.716 39.136V39.668H205.522V40.004C205.522 40.312 205.568 40.6013 205.662 40.872C205.764 41.1333 205.904 41.362 206.082 41.558C206.268 41.754 206.492 41.908 206.754 42.02C207.024 42.132 207.328 42.188 207.664 42.188C208.121 42.188 208.518 42.0807 208.854 41.866C209.199 41.6513 209.465 41.3433 209.652 40.942L210.45 41.516C210.216 42.0107 209.852 42.412 209.358 42.72C208.863 43.0187 208.275 43.168 207.594 43.168ZM207.594 36.546C207.286 36.546 207.006 36.602 206.754 36.714C206.502 36.8167 206.282 36.966 206.096 37.162C205.918 37.358 205.778 37.5913 205.676 37.862C205.573 38.1233 205.522 38.4127 205.522 38.73V38.828H209.512V38.674C209.512 38.03 209.334 37.5167 208.98 37.134C208.634 36.742 208.172 36.546 207.594 36.546ZM215.249 43.168C214.745 43.168 214.292 43.0793 213.891 42.902C213.49 42.7247 213.149 42.4727 212.869 42.146C212.598 41.8193 212.388 41.4227 212.239 40.956C212.099 40.4893 212.029 39.9667 212.029 39.388C212.029 38.8093 212.099 38.2867 212.239 37.82C212.388 37.3533 212.598 36.9567 212.869 36.63C213.149 36.3033 213.49 36.0513 213.891 35.874C214.292 35.6967 214.745 35.608 215.249 35.608C215.968 35.608 216.542 35.7667 216.971 36.084C217.41 36.392 217.736 36.798 217.951 37.302L217.013 37.778C216.882 37.4047 216.668 37.1153 216.369 36.91C216.07 36.7047 215.697 36.602 215.249 36.602C214.913 36.602 214.619 36.658 214.367 36.77C214.115 36.8727 213.905 37.022 213.737 37.218C213.569 37.4047 213.443 37.6333 213.359 37.904C213.275 38.1653 213.233 38.4547 213.233 38.772V40.004C213.233 40.6387 213.401 41.1613 213.737 41.572C214.082 41.9733 214.586 42.174 215.249 42.174C216.154 42.174 216.808 41.754 217.209 40.914L218.021 41.46C217.788 41.9827 217.438 42.398 216.971 42.706C216.514 43.014 215.94 43.168 215.249 43.168ZM221.198 43C220.806 43 220.507 42.8927 220.302 42.678C220.106 42.454 220.008 42.1647 220.008 41.81V36.756H218.818V35.776H219.49C219.733 35.776 219.896 35.7293 219.98 35.636C220.073 35.5333 220.12 35.3607 220.12 35.118V33.774H221.128V35.776H222.71V36.756H221.128V42.02H222.598V43H221.198ZM225.224 43.168C224.926 43.168 224.706 43.0933 224.566 42.944C224.436 42.7947 224.37 42.5987 224.37 42.356V42.174C224.37 41.9313 224.436 41.7353 224.566 41.586C224.706 41.4367 224.926 41.362 225.224 41.362C225.523 41.362 225.738 41.4367 225.868 41.586C226.008 41.7353 226.078 41.9313 226.078 42.174V42.356C226.078 42.5987 226.008 42.7947 225.868 42.944C225.738 43.0933 225.523 43.168 225.224 43.168ZM235.189 43.168C233.948 43.168 232.982 42.748 232.291 41.908C231.601 41.0587 231.255 39.8127 231.255 38.17C231.255 36.5273 231.601 35.2673 232.291 34.39C232.982 33.5033 233.948 33.06 235.189 33.06C236.011 33.06 236.697 33.2467 237.247 33.62C237.807 33.9933 238.241 34.5207 238.549 35.202L237.597 35.776C237.401 35.272 237.103 34.8707 236.701 34.572C236.3 34.264 235.796 34.11 235.189 34.11C234.769 34.11 234.391 34.1893 234.055 34.348C233.729 34.5067 233.449 34.7353 233.215 35.034C232.991 35.3233 232.819 35.6733 232.697 36.084C232.576 36.4853 232.515 36.938 232.515 37.442V38.898C232.515 39.906 232.749 40.6947 233.215 41.264C233.682 41.8333 234.34 42.118 235.189 42.118C235.815 42.118 236.337 41.9593 236.757 41.642C237.177 41.3153 237.485 40.886 237.681 40.354L238.619 40.942C238.311 41.6327 237.868 42.1787 237.289 42.58C236.711 42.972 236.011 43.168 235.189 43.168ZM243.059 43.168C242.573 43.168 242.13 43.0793 241.729 42.902C241.327 42.7247 240.982 42.4727 240.693 42.146C240.413 41.81 240.193 41.4133 240.035 40.956C239.876 40.4893 239.797 39.9667 239.797 39.388C239.797 38.8187 239.876 38.3007 240.035 37.834C240.193 37.3673 240.413 36.9707 240.693 36.644C240.982 36.308 241.327 36.0513 241.729 35.874C242.13 35.6967 242.573 35.608 243.059 35.608C243.544 35.608 243.983 35.6967 244.375 35.874C244.776 36.0513 245.121 36.308 245.411 36.644C245.7 36.9707 245.924 37.3673 246.083 37.834C246.241 38.3007 246.321 38.8187 246.321 39.388C246.321 39.9667 246.241 40.4893 246.083 40.956C245.924 41.4133 245.7 41.81 245.411 42.146C245.121 42.4727 244.776 42.7247 244.375 42.902C243.983 43.0793 243.544 43.168 243.059 43.168ZM243.059 42.174C243.665 42.174 244.16 41.9873 244.543 41.614C244.925 41.2407 245.117 40.6713 245.117 39.906V38.87C245.117 38.1047 244.925 37.5353 244.543 37.162C244.16 36.7887 243.665 36.602 243.059 36.602C242.452 36.602 241.957 36.7887 241.575 37.162C241.192 37.5353 241.001 38.1047 241.001 38.87V39.906C241.001 40.6713 241.192 41.2407 241.575 41.614C241.957 41.9873 242.452 42.174 243.059 42.174ZM248.163 43V35.776H249.283V36.952H249.339C249.516 36.5413 249.763 36.2147 250.081 35.972C250.407 35.7293 250.841 35.608 251.383 35.608C252.129 35.608 252.717 35.8507 253.147 36.336C253.585 36.812 253.805 37.4887 253.805 38.366V43H252.685V38.562C252.685 37.2647 252.139 36.616 251.047 36.616C250.823 36.616 250.603 36.644 250.389 36.7C250.183 36.756 249.997 36.84 249.829 36.952C249.661 37.064 249.525 37.2087 249.423 37.386C249.329 37.554 249.283 37.7547 249.283 37.988V43H248.163ZM258.29 43.168C257.618 43.168 257.053 43.042 256.596 42.79C256.148 42.5287 255.76 42.1833 255.434 41.754L256.232 41.11C256.512 41.4647 256.824 41.74 257.17 41.936C257.515 42.1227 257.916 42.216 258.374 42.216C258.85 42.216 259.218 42.1133 259.48 41.908C259.75 41.7027 259.886 41.4133 259.886 41.04C259.886 40.76 259.792 40.522 259.606 40.326C259.428 40.1207 259.102 39.9807 258.626 39.906L258.052 39.822C257.716 39.7753 257.408 39.7053 257.128 39.612C256.848 39.5093 256.6 39.3787 256.386 39.22C256.18 39.052 256.017 38.8467 255.896 38.604C255.784 38.3613 255.728 38.072 255.728 37.736C255.728 37.3813 255.793 37.0733 255.924 36.812C256.054 36.5413 256.232 36.3173 256.456 36.14C256.689 35.9627 256.964 35.832 257.282 35.748C257.599 35.6547 257.94 35.608 258.304 35.608C258.892 35.608 259.382 35.7107 259.774 35.916C260.175 36.1213 260.525 36.406 260.824 36.77L260.082 37.442C259.923 37.218 259.69 37.0173 259.382 36.84C259.074 36.6533 258.686 36.56 258.22 36.56C257.753 36.56 257.398 36.6627 257.156 36.868C256.922 37.064 256.806 37.3347 256.806 37.68C256.806 38.0347 256.922 38.2913 257.156 38.45C257.398 38.6087 257.744 38.7253 258.192 38.8L258.752 38.884C259.554 39.0053 260.124 39.2387 260.46 39.584C260.796 39.92 260.964 40.3633 260.964 40.914C260.964 41.614 260.726 42.1647 260.25 42.566C259.774 42.9673 259.12 43.168 258.29 43.168ZM263.502 34.082C263.259 34.082 263.082 34.026 262.97 33.914C262.867 33.7927 262.816 33.6387 262.816 33.452V33.27C262.816 33.0833 262.867 32.934 262.97 32.822C263.082 32.7007 263.259 32.64 263.502 32.64C263.745 32.64 263.917 32.7007 264.02 32.822C264.132 32.934 264.188 33.0833 264.188 33.27V33.452C264.188 33.6387 264.132 33.7927 264.02 33.914C263.917 34.026 263.745 34.082 263.502 34.082ZM262.942 35.776H264.062V43H262.942V35.776ZM272.532 43.798C272.532 44.5447 272.238 45.0907 271.65 45.436C271.071 45.7907 270.199 45.968 269.032 45.968C267.903 45.968 267.091 45.814 266.596 45.506C266.101 45.198 265.854 44.7593 265.854 44.19C265.854 43.798 265.957 43.49 266.162 43.266C266.367 43.0513 266.647 42.8927 267.002 42.79V42.636C266.573 42.4307 266.358 42.0947 266.358 41.628C266.358 41.264 266.475 40.9887 266.708 40.802C266.941 40.606 267.24 40.4613 267.604 40.368V40.312C267.175 40.1067 266.839 39.8127 266.596 39.43C266.363 39.0473 266.246 38.604 266.246 38.1C266.246 37.736 266.311 37.4 266.442 37.092C266.573 36.784 266.755 36.5227 266.988 36.308C267.231 36.084 267.515 35.9113 267.842 35.79C268.178 35.6687 268.551 35.608 268.962 35.608C269.475 35.608 269.933 35.7013 270.334 35.888V35.762C270.334 35.482 270.399 35.2533 270.53 35.076C270.661 34.8893 270.875 34.796 271.174 34.796H272.252V35.776H270.88V36.238C271.141 36.462 271.342 36.7327 271.482 37.05C271.631 37.358 271.706 37.708 271.706 38.1C271.706 38.464 271.641 38.8 271.51 39.108C271.379 39.416 271.193 39.682 270.95 39.906C270.717 40.1207 270.432 40.2887 270.096 40.41C269.76 40.5313 269.387 40.592 268.976 40.592C268.743 40.592 268.509 40.5687 268.276 40.522C268.033 40.5873 267.814 40.6853 267.618 40.816C267.422 40.9373 267.324 41.11 267.324 41.334C267.324 41.5487 267.427 41.6933 267.632 41.768C267.837 41.8427 268.103 41.88 268.43 41.88H269.97C270.866 41.88 271.515 42.0527 271.916 42.398C272.327 42.734 272.532 43.2007 272.532 43.798ZM271.482 43.882C271.482 43.5927 271.37 43.3593 271.146 43.182C270.931 43.014 270.544 42.93 269.984 42.93H267.576C267.128 43.1353 266.904 43.462 266.904 43.91C266.904 44.2273 267.021 44.498 267.254 44.722C267.497 44.946 267.903 45.058 268.472 45.058H269.508C270.133 45.058 270.619 44.96 270.964 44.764C271.309 44.568 271.482 44.274 271.482 43.882ZM268.976 39.696C269.452 39.696 269.83 39.584 270.11 39.36C270.39 39.1267 270.53 38.772 270.53 38.296V37.904C270.53 37.428 270.39 37.078 270.11 36.854C269.83 36.6207 269.452 36.504 268.976 36.504C268.5 36.504 268.122 36.6207 267.842 36.854C267.562 37.078 267.422 37.428 267.422 37.904V38.296C267.422 38.772 267.562 39.1267 267.842 39.36C268.122 39.584 268.5 39.696 268.976 39.696ZM273.838 43V35.776H274.958V36.952H275.014C275.192 36.5413 275.439 36.2147 275.756 35.972C276.083 35.7293 276.517 35.608 277.058 35.608C277.805 35.608 278.393 35.8507 278.822 36.336C279.261 36.812 279.48 37.4887 279.48 38.366V43H278.36V38.562C278.36 37.2647 277.814 36.616 276.722 36.616C276.498 36.616 276.279 36.644 276.064 36.7C275.859 36.756 275.672 36.84 275.504 36.952C275.336 37.064 275.201 37.2087 275.098 37.386C275.005 37.554 274.958 37.7547 274.958 37.988V43H273.838ZM284.511 43.168C284.017 43.168 283.569 43.0793 283.167 42.902C282.775 42.7247 282.435 42.4727 282.145 42.146C281.865 41.81 281.646 41.4133 281.487 40.956C281.338 40.4893 281.263 39.9667 281.263 39.388C281.263 38.8187 281.338 38.3007 281.487 37.834C281.646 37.3673 281.865 36.9707 282.145 36.644C282.435 36.308 282.775 36.0513 283.167 35.874C283.569 35.6967 284.017 35.608 284.511 35.608C284.997 35.608 285.431 35.6967 285.813 35.874C286.196 36.0513 286.523 36.2987 286.793 36.616C287.064 36.924 287.269 37.2927 287.409 37.722C287.559 38.1513 287.633 38.6227 287.633 39.136V39.668H282.439V40.004C282.439 40.312 282.486 40.6013 282.579 40.872C282.682 41.1333 282.822 41.362 282.999 41.558C283.186 41.754 283.41 41.908 283.671 42.02C283.942 42.132 284.245 42.188 284.581 42.188C285.039 42.188 285.435 42.0807 285.771 41.866C286.117 41.6513 286.383 41.3433 286.569 40.942L287.367 41.516C287.134 42.0107 286.77 42.412 286.275 42.72C285.781 43.0187 285.193 43.168 284.511 43.168ZM284.511 36.546C284.203 36.546 283.923 36.602 283.671 36.714C283.419 36.8167 283.2 36.966 283.013 37.162C282.836 37.358 282.696 37.5913 282.593 37.862C282.491 38.1233 282.439 38.4127 282.439 38.73V38.828H286.429V38.674C286.429 38.03 286.252 37.5167 285.897 37.134C285.552 36.742 285.09 36.546 284.511 36.546ZM292.195 43.168C291.7 43.168 291.252 43.0793 290.851 42.902C290.459 42.7247 290.118 42.4727 289.829 42.146C289.549 41.81 289.33 41.4133 289.171 40.956C289.022 40.4893 288.947 39.9667 288.947 39.388C288.947 38.8187 289.022 38.3007 289.171 37.834C289.33 37.3673 289.549 36.9707 289.829 36.644C290.118 36.308 290.459 36.0513 290.851 35.874C291.252 35.6967 291.7 35.608 292.195 35.608C292.68 35.608 293.114 35.6967 293.497 35.874C293.88 36.0513 294.206 36.2987 294.477 36.616C294.748 36.924 294.953 37.2927 295.093 37.722C295.242 38.1513 295.317 38.6227 295.317 39.136V39.668H290.123V40.004C290.123 40.312 290.17 40.6013 290.263 40.872C290.366 41.1333 290.506 41.362 290.683 41.558C290.87 41.754 291.094 41.908 291.355 42.02C291.626 42.132 291.929 42.188 292.265 42.188C292.722 42.188 293.119 42.0807 293.455 41.866C293.8 41.6513 294.066 41.3433 294.253 40.942L295.051 41.516C294.818 42.0107 294.454 42.412 293.959 42.72C293.464 43.0187 292.876 43.168 292.195 43.168ZM292.195 36.546C291.887 36.546 291.607 36.602 291.355 36.714C291.103 36.8167 290.884 36.966 290.697 37.162C290.52 37.358 290.38 37.5913 290.277 37.862C290.174 38.1233 290.123 38.4127 290.123 38.73V38.828H294.113V38.674C294.113 38.03 293.936 37.5167 293.581 37.134C293.236 36.742 292.774 36.546 292.195 36.546ZM301.031 34.082C300.789 34.082 300.611 34.026 300.499 33.914C300.397 33.7927 300.345 33.6387 300.345 33.452V33.27C300.345 33.0833 300.397 32.934 300.499 32.822C300.611 32.7007 300.789 32.64 301.031 32.64C301.274 32.64 301.447 32.7007 301.549 32.822C301.661 32.934 301.717 33.0833 301.717 33.27V33.452C301.717 33.6387 301.661 33.7927 301.549 33.914C301.447 34.026 301.274 34.082 301.031 34.082ZM300.471 35.776H301.591V43H300.471V35.776ZM306.141 43.168C305.469 43.168 304.905 43.042 304.447 42.79C303.999 42.5287 303.612 42.1833 303.285 41.754L304.083 41.11C304.363 41.4647 304.676 41.74 305.021 41.936C305.367 42.1227 305.768 42.216 306.225 42.216C306.701 42.216 307.07 42.1133 307.331 41.908C307.602 41.7027 307.737 41.4133 307.737 41.04C307.737 40.76 307.644 40.522 307.457 40.326C307.28 40.1207 306.953 39.9807 306.477 39.906L305.903 39.822C305.567 39.7753 305.259 39.7053 304.979 39.612C304.699 39.5093 304.452 39.3787 304.237 39.22C304.032 39.052 303.869 38.8467 303.747 38.604C303.635 38.3613 303.579 38.072 303.579 37.736C303.579 37.3813 303.645 37.0733 303.775 36.812C303.906 36.5413 304.083 36.3173 304.307 36.14C304.541 35.9627 304.816 35.832 305.133 35.748C305.451 35.6547 305.791 35.608 306.155 35.608C306.743 35.608 307.233 35.7107 307.625 35.916C308.027 36.1213 308.377 36.406 308.675 36.77L307.933 37.442C307.775 37.218 307.541 37.0173 307.233 36.84C306.925 36.6533 306.538 36.56 306.071 36.56C305.605 36.56 305.25 36.6627 305.007 36.868C304.774 37.064 304.657 37.3347 304.657 37.68C304.657 38.0347 304.774 38.2913 305.007 38.45C305.25 38.6087 305.595 38.7253 306.043 38.8L306.603 38.884C307.406 39.0053 307.975 39.2387 308.311 39.584C308.647 39.92 308.815 40.3633 308.815 40.914C308.815 41.614 308.577 42.1647 308.101 42.566C307.625 42.9673 306.972 43.168 306.141 43.168ZM59.302 63V53.228H63.194C64.0713 53.228 64.7433 53.48 65.21 53.984C65.686 54.4787 65.924 55.16 65.924 56.028C65.924 56.896 65.686 57.582 65.21 58.086C64.7433 58.5807 64.0713 58.828 63.194 58.828H60.478V63H59.302ZM60.478 57.792H63.194C63.6607 57.792 64.02 57.6707 64.272 57.428C64.5333 57.1853 64.664 56.84 64.664 56.392V55.664C64.664 55.216 64.5333 54.8707 64.272 54.628C64.02 54.3853 63.6607 54.264 63.194 54.264H60.478V57.792ZM67.5435 63V55.776H68.6635V57.106H68.7335C68.8642 56.7607 69.0975 56.4527 69.4335 56.182C69.7695 55.9113 70.2315 55.776 70.8195 55.776H71.2535V56.896H70.5955C69.9888 56.896 69.5128 57.0127 69.1675 57.246C68.8315 57.47 68.6635 57.7547 68.6635 58.1V63H67.5435ZM73.2441 54.082C73.0015 54.082 72.8241 54.026 72.7121 53.914C72.6095 53.7927 72.5581 53.6387 72.5581 53.452V53.27C72.5581 53.0833 72.6095 52.934 72.7121 52.822C72.8241 52.7007 73.0015 52.64 73.2441 52.64C73.4868 52.64 73.6595 52.7007 73.7621 52.822C73.8741 52.934 73.9301 53.0833 73.9301 53.27V53.452C73.9301 53.6387 73.8741 53.7927 73.7621 53.914C73.6595 54.026 73.4868 54.082 73.2441 54.082ZM72.6841 55.776H73.8041V63H72.6841V55.776ZM76.1841 63V55.776H77.3041V56.952H77.3601C77.4441 56.7653 77.5375 56.5927 77.6401 56.434C77.7521 56.266 77.8828 56.1213 78.0321 56C78.1908 55.8787 78.3728 55.7853 78.5781 55.72C78.7835 55.6453 79.0261 55.608 79.3061 55.608C79.7821 55.608 80.2208 55.7247 80.6221 55.958C81.0235 56.182 81.3221 56.5553 81.5181 57.078H81.5461C81.6768 56.686 81.9195 56.3453 82.2741 56.056C82.6381 55.7573 83.1281 55.608 83.7441 55.608C84.4815 55.608 85.0555 55.8507 85.4661 56.336C85.8861 56.812 86.0961 57.4887 86.0961 58.366V63H84.9761V58.562C84.9761 57.918 84.8501 57.4327 84.5981 57.106C84.3461 56.7793 83.9448 56.616 83.3941 56.616C83.1701 56.616 82.9555 56.644 82.7501 56.7C82.5541 56.756 82.3768 56.84 82.2181 56.952C82.0595 57.064 81.9335 57.2087 81.8401 57.386C81.7468 57.554 81.7001 57.7547 81.7001 57.988V63H80.5801V58.562C80.5801 57.918 80.4541 57.4327 80.2021 57.106C79.9501 56.7793 79.5581 56.616 79.0261 56.616C78.8021 56.616 78.5875 56.644 78.3821 56.7C78.1768 56.756 77.9948 56.84 77.8361 56.952C77.6775 57.064 77.5468 57.2087 77.4441 57.386C77.3508 57.554 77.3041 57.7547 77.3041 57.988V63H76.1841ZM91.1228 63.168C90.6281 63.168 90.1801 63.0793 89.7788 62.902C89.3868 62.7247 89.0461 62.4727 88.7568 62.146C88.4768 61.81 88.2575 61.4133 88.0988 60.956C87.9495 60.4893 87.8748 59.9667 87.8748 59.388C87.8748 58.8187 87.9495 58.3007 88.0988 57.834C88.2575 57.3673 88.4768 56.9707 88.7568 56.644C89.0461 56.308 89.3868 56.0513 89.7788 55.874C90.1801 55.6967 90.6281 55.608 91.1228 55.608C91.6081 55.608 92.0421 55.6967 92.4248 55.874C92.8075 56.0513 93.1341 56.2987 93.4048 56.616C93.6755 56.924 93.8808 57.2927 94.0208 57.722C94.1701 58.1513 94.2448 58.6227 94.2448 59.136V59.668H89.0508V60.004C89.0508 60.312 89.0975 60.6013 89.1908 60.872C89.2935 61.1333 89.4335 61.362 89.6108 61.558C89.7975 61.754 90.0215 61.908 90.2828 62.02C90.5535 62.132 90.8568 62.188 91.1928 62.188C91.6501 62.188 92.0468 62.0807 92.3828 61.866C92.7281 61.6513 92.9941 61.3433 93.1808 60.942L93.9788 61.516C93.7455 62.0107 93.3815 62.412 92.8868 62.72C92.3921 63.0187 91.8041 63.168 91.1228 63.168ZM91.1228 56.546C90.8148 56.546 90.5348 56.602 90.2828 56.714C90.0308 56.8167 89.8115 56.966 89.6248 57.162C89.4475 57.358 89.3075 57.5913 89.2048 57.862C89.1021 58.1233 89.0508 58.4127 89.0508 58.73V58.828H93.0408V58.674C93.0408 58.03 92.8635 57.5167 92.5088 57.134C92.1635 56.742 91.7015 56.546 91.1228 56.546ZM99.049 63V62.02H100.421V54.208H99.049V53.228H102.969V54.208H101.597V62.02H102.969V63H99.049ZM105.004 63V55.776H106.124V56.952H106.18C106.358 56.5413 106.605 56.2147 106.922 55.972C107.249 55.7293 107.683 55.608 108.224 55.608C108.971 55.608 109.559 55.8507 109.988 56.336C110.427 56.812 110.646 57.4887 110.646 58.366V63H109.526V58.562C109.526 57.2647 108.98 56.616 107.888 56.616C107.664 56.616 107.445 56.644 107.23 56.7C107.025 56.756 106.838 56.84 106.67 56.952C106.502 57.064 106.367 57.2087 106.264 57.386C106.171 57.554 106.124 57.7547 106.124 57.988V63H105.004ZM114.557 63C114.165 63 113.867 62.8927 113.661 62.678C113.465 62.454 113.367 62.1647 113.367 61.81V56.756H112.177V55.776H112.849C113.092 55.776 113.255 55.7293 113.339 55.636C113.433 55.5333 113.479 55.3607 113.479 55.118V53.774H114.487V55.776H116.069V56.756H114.487V62.02H115.957V63H114.557ZM120.531 63.168C120.036 63.168 119.588 63.0793 119.187 62.902C118.795 62.7247 118.454 62.4727 118.165 62.146C117.885 61.81 117.666 61.4133 117.507 60.956C117.358 60.4893 117.283 59.9667 117.283 59.388C117.283 58.8187 117.358 58.3007 117.507 57.834C117.666 57.3673 117.885 56.9707 118.165 56.644C118.454 56.308 118.795 56.0513 119.187 55.874C119.588 55.6967 120.036 55.608 120.531 55.608C121.016 55.608 121.45 55.6967 121.833 55.874C122.216 56.0513 122.542 56.2987 122.813 56.616C123.084 56.924 123.289 57.2927 123.429 57.722C123.578 58.1513 123.653 58.6227 123.653 59.136V59.668H118.459V60.004C118.459 60.312 118.506 60.6013 118.599 60.872C118.702 61.1333 118.842 61.362 119.019 61.558C119.206 61.754 119.43 61.908 119.691 62.02C119.962 62.132 120.265 62.188 120.601 62.188C121.058 62.188 121.455 62.0807 121.791 61.866C122.136 61.6513 122.402 61.3433 122.589 60.942L123.387 61.516C123.154 62.0107 122.79 62.412 122.295 62.72C121.8 63.0187 121.212 63.168 120.531 63.168ZM120.531 56.546C120.223 56.546 119.943 56.602 119.691 56.714C119.439 56.8167 119.22 56.966 119.033 57.162C118.856 57.358 118.716 57.5913 118.613 57.862C118.51 58.1233 118.459 58.4127 118.459 58.73V58.828H122.449V58.674C122.449 58.03 122.272 57.5167 121.917 57.134C121.572 56.742 121.11 56.546 120.531 56.546ZM125.499 63V55.776H126.619V57.106H126.689C126.819 56.7607 127.053 56.4527 127.389 56.182C127.725 55.9113 128.187 55.776 128.775 55.776H129.209V56.896H128.551C127.944 56.896 127.468 57.0127 127.123 57.246C126.787 57.47 126.619 57.7547 126.619 58.1V63H125.499ZM130.639 63V55.776H131.759V56.952H131.815C131.993 56.5413 132.24 56.2147 132.557 55.972C132.884 55.7293 133.318 55.608 133.859 55.608C134.606 55.608 135.194 55.8507 135.623 56.336C136.062 56.812 136.281 57.4887 136.281 58.366V63H135.161V58.562C135.161 57.2647 134.615 56.616 133.523 56.616C133.299 56.616 133.08 56.644 132.865 56.7C132.66 56.756 132.473 56.84 132.305 56.952C132.137 57.064 132.002 57.2087 131.899 57.386C131.806 57.554 131.759 57.7547 131.759 57.988V63H130.639ZM143.846 63C143.426 63 143.123 62.888 142.936 62.664C142.759 62.44 142.647 62.16 142.6 61.824H142.53C142.372 62.272 142.11 62.608 141.746 62.832C141.382 63.056 140.948 63.168 140.444 63.168C139.679 63.168 139.082 62.972 138.652 62.58C138.232 62.188 138.022 61.656 138.022 60.984C138.022 60.3027 138.27 59.78 138.764 59.416C139.268 59.052 140.048 58.87 141.102 58.87H142.53V58.156C142.53 57.6427 142.39 57.2507 142.11 56.98C141.83 56.7093 141.401 56.574 140.822 56.574C140.384 56.574 140.015 56.672 139.716 56.868C139.427 57.064 139.184 57.3253 138.988 57.652L138.316 57.022C138.512 56.63 138.825 56.2987 139.254 56.028C139.684 55.748 140.225 55.608 140.878 55.608C141.756 55.608 142.437 55.8227 142.922 56.252C143.408 56.6813 143.65 57.2787 143.65 58.044V62.02H144.476V63H143.846ZM140.626 62.216C140.906 62.216 141.163 62.1833 141.396 62.118C141.63 62.0527 141.83 61.9593 141.998 61.838C142.166 61.7167 142.297 61.5767 142.39 61.418C142.484 61.2593 142.53 61.0867 142.53 60.9V59.71H141.046C140.402 59.71 139.931 59.8033 139.632 59.99C139.343 60.1767 139.198 60.4473 139.198 60.802V61.096C139.198 61.4507 139.324 61.726 139.576 61.922C139.838 62.118 140.188 62.216 140.626 62.216ZM147.671 63C147.279 63 146.98 62.8927 146.775 62.678C146.579 62.454 146.481 62.1647 146.481 61.81V56.756H145.291V55.776H145.963C146.205 55.776 146.369 55.7293 146.453 55.636C146.546 55.5333 146.593 55.3607 146.593 55.118V53.774H147.601V55.776H149.183V56.756H147.601V62.02H149.071V63H147.671ZM151.543 54.082C151.3 54.082 151.123 54.026 151.011 53.914C150.908 53.7927 150.857 53.6387 150.857 53.452V53.27C150.857 53.0833 150.908 52.934 151.011 52.822C151.123 52.7007 151.3 52.64 151.543 52.64C151.786 52.64 151.958 52.7007 152.061 52.822C152.173 52.934 152.229 53.0833 152.229 53.27V53.452C152.229 53.6387 152.173 53.7927 152.061 53.914C151.958 54.026 151.786 54.082 151.543 54.082ZM150.983 55.776H152.103V63H150.983V55.776ZM157.213 63.168C156.728 63.168 156.284 63.0793 155.883 62.902C155.482 62.7247 155.136 62.4727 154.847 62.146C154.567 61.81 154.348 61.4133 154.189 60.956C154.03 60.4893 153.951 59.9667 153.951 59.388C153.951 58.8187 154.03 58.3007 154.189 57.834C154.348 57.3673 154.567 56.9707 154.847 56.644C155.136 56.308 155.482 56.0513 155.883 55.874C156.284 55.6967 156.728 55.608 157.213 55.608C157.698 55.608 158.137 55.6967 158.529 55.874C158.93 56.0513 159.276 56.308 159.565 56.644C159.854 56.9707 160.078 57.3673 160.237 57.834C160.396 58.3007 160.475 58.8187 160.475 59.388C160.475 59.9667 160.396 60.4893 160.237 60.956C160.078 61.4133 159.854 61.81 159.565 62.146C159.276 62.4727 158.93 62.7247 158.529 62.902C158.137 63.0793 157.698 63.168 157.213 63.168ZM157.213 62.174C157.82 62.174 158.314 61.9873 158.697 61.614C159.08 61.2407 159.271 60.6713 159.271 59.906V58.87C159.271 58.1047 159.08 57.5353 158.697 57.162C158.314 56.7887 157.82 56.602 157.213 56.602C156.606 56.602 156.112 56.7887 155.729 57.162C155.346 57.5353 155.155 58.1047 155.155 58.87V59.906C155.155 60.6713 155.346 61.2407 155.729 61.614C156.112 61.9873 156.606 62.174 157.213 62.174ZM162.317 63V55.776H163.437V56.952H163.493C163.67 56.5413 163.918 56.2147 164.235 55.972C164.562 55.7293 164.996 55.608 165.537 55.608C166.284 55.608 166.872 55.8507 167.301 56.336C167.74 56.812 167.959 57.4887 167.959 58.366V63H166.839V58.562C166.839 57.2647 166.293 56.616 165.201 56.616C164.977 56.616 164.758 56.644 164.543 56.7C164.338 56.756 164.151 56.84 163.983 56.952C163.815 57.064 163.68 57.2087 163.577 57.386C163.484 57.554 163.437 57.7547 163.437 57.988V63H162.317ZM175.524 63C175.104 63 174.801 62.888 174.614 62.664C174.437 62.44 174.325 62.16 174.278 61.824H174.208C174.049 62.272 173.788 62.608 173.424 62.832C173.06 63.056 172.626 63.168 172.122 63.168C171.357 63.168 170.759 62.972 170.33 62.58C169.91 62.188 169.7 61.656 169.7 60.984C169.7 60.3027 169.947 59.78 170.442 59.416C170.946 59.052 171.725 58.87 172.78 58.87H174.208V58.156C174.208 57.6427 174.068 57.2507 173.788 56.98C173.508 56.7093 173.079 56.574 172.5 56.574C172.061 56.574 171.693 56.672 171.394 56.868C171.105 57.064 170.862 57.3253 170.666 57.652L169.994 57.022C170.19 56.63 170.503 56.2987 170.932 56.028C171.361 55.748 171.903 55.608 172.556 55.608C173.433 55.608 174.115 55.8227 174.6 56.252C175.085 56.6813 175.328 57.2787 175.328 58.044V62.02H176.154V63H175.524ZM172.304 62.216C172.584 62.216 172.841 62.1833 173.074 62.118C173.307 62.0527 173.508 61.9593 173.676 61.838C173.844 61.7167 173.975 61.5767 174.068 61.418C174.161 61.2593 174.208 61.0867 174.208 60.9V59.71H172.724C172.08 59.71 171.609 59.8033 171.31 59.99C171.021 60.1767 170.876 60.4473 170.876 60.802V61.096C170.876 61.4507 171.002 61.726 171.254 61.922C171.515 62.118 171.865 62.216 172.304 62.216ZM178.943 63C178.551 63 178.252 62.8927 178.047 62.678C177.851 62.454 177.753 62.174 177.753 61.838V52.64H178.873V62.02H179.937V63H178.943Z" fill="white"/>
<circle cx="356" cy="71" r="16" stroke="white" stroke-width="4"/>
<g clip-path="url(#clip0_438_14184)">
<mask id="mask0_438_14184" style="mask-type:luminance" maskUnits="userSpaceOnUse" x="340" y="55" width="32" height="32">
<path d="M372 71C372 62.1634 364.837 55 356 55C347.163 55 340 62.1634 340 71C340 79.8366 347.163 87 356 87C364.837 87 372 79.8366 372 71Z" fill="white"/>
</mask>
<g mask="url(#mask0_438_14184)">
<path d="M372 55H340V87H372V55Z" fill="#36CECC"/>
<path d="M340.167 63.4598C332.831 69.8369 332.054 80.9534 338.431 88.2894C344.808 95.6253 355.924 96.4027 363.26 90.0256C370.596 83.6486 371.373 72.532 364.996 65.1961C358.619 57.8602 347.503 57.0828 340.167 63.4598Z" fill="#176585"/>
<path d="M346.888 76.0605C346.749 76.9337 347.079 77.8444 347.805 78.5922C348.53 79.34 349.592 79.8637 350.756 80.0481C351.92 80.2325 353.092 80.0625 354.013 79.5754C354.934 79.0884 355.529 78.3242 355.667 77.4511" fill="white"/>
<path d="M346.266 71.462C346.343 70.9771 346.11 70.5374 345.747 70.4798C345.383 70.4222 345.026 70.7686 344.949 71.2534C344.872 71.7383 345.105 72.1781 345.469 72.2357C345.832 72.2933 346.189 71.9469 346.266 71.462Z" fill="white"/>
<path d="M358.557 73.4088C358.634 72.9239 358.402 72.4842 358.038 72.4266C357.674 72.369 357.317 72.7153 357.24 73.2002C357.164 73.6851 357.396 74.1248 357.76 74.1824C358.123 74.24 358.48 73.8937 358.557 73.4088Z" fill="white"/>
</g>
</g>
<defs>
<clipPath id="clip0_438_14184">
<rect width="32" height="32" fill="white" transform="translate(340 55)"/>
</clipPath>
</defs>
</svg>
