<svg width="420" height="440" viewBox="0 0 420 440" fill="none" xmlns="http://www.w3.org/2000/svg">
<rect width="420" height="440" rx="12" fill="#023C9B"/>
<rect width="404" height="48" transform="translate(8 8)" fill="#023C9B"/>
<path d="M24.0555 25.8819V30.1194H20.011V35.7749H16V30.1194C16 28.9484 16.4492 27.889 17.1753 27.1235C17.9013 26.3565 18.904 25.8818 20.0111 25.8818H24.0555V25.8819Z" fill="#C7D5EA"/>
<path d="M25.2361 16V20.2374C22.3548 20.2374 20.011 22.7149 20.011 25.7588V25.8831C18.904 25.8831 17.9013 26.3577 17.1752 27.1247C16.4492 27.8903 16 28.9496 16 30.1205V25.7588C16 20.3787 20.1434 16 25.2361 16Z" fill="white"/>
<path d="M20.0051 40V35.7625C22.8863 35.7625 25.2303 33.2861 25.2303 30.2423V20.2246H29.2414V30.2423C29.2414 35.6226 25.098 40 20.0051 40Z" fill="white"/>
<path d="M66.6218 37.8623H74.5137C77.3473 37.8623 79.2011 35.6907 79.2011 32.6452C79.2011 29.7586 77.3738 28.3815 75.6524 28.1696V28.0637C77.0295 27.7459 78.4861 26.6071 78.4861 24.0383C78.4861 21.1252 76.7382 19.3773 73.8516 19.3773H66.6218V37.8623ZM68.2108 28.9376H74.0899C76.3145 28.9376 77.5062 30.2882 77.5062 32.195V33.1749C77.5062 35.1081 76.3145 36.4587 74.0899 36.4587H68.2108V28.9376ZM68.2108 20.7809H73.6927C75.7054 20.7809 76.7912 21.9726 76.7912 23.6675V24.6739C76.7912 26.3423 75.7054 27.5605 73.6927 27.5605H68.2108V20.7809ZM86.5817 38.1801C90.1569 38.1801 92.4874 35.5318 92.4874 31.0827C92.4874 26.6336 90.1569 23.9853 86.5817 23.9853C83.0066 23.9853 80.6761 26.6336 80.6761 31.0827C80.6761 35.5318 83.0066 38.1801 86.5817 38.1801ZM86.5817 36.8295C83.9599 36.8295 82.2915 35.0816 82.2915 31.9302V30.2353C82.2915 27.0573 83.9599 25.336 86.5817 25.336C89.2035 25.336 90.8719 27.0838 90.8719 30.2353V31.9302C90.8719 35.1081 89.2035 36.8295 86.5817 36.8295ZM99.765 37.8623V36.5382H96.9048V25.6273H99.9768V24.3031H96.9048V20.5161H95.5277V23.2703C95.5277 24.0383 95.3159 24.3031 94.5743 24.3031H93.0383V25.6273H95.3953V36.1939C95.3953 37.2002 95.9779 37.8623 97.0637 37.8623H99.765Z" fill="white"/>
<path d="M40.812 26.9343V37.7242H38.0026V26.9343H35.8621V24.2822H38.0026V23.5039C38.0026 20.3904 39.7151 18.6897 42.0964 18.6897C42.9793 18.6897 43.782 18.8915 44.3438 19.2374L43.7285 21.4569C43.4074 21.2553 43.0061 21.1687 42.6047 21.1687C41.5077 21.1687 40.812 21.9471 40.812 23.5038V24.2821H43.4341V26.9341L40.812 26.9343Z" fill="white"/>
<path d="M43.9821 37.7229V24.281H46.7915V26.3278C47.7549 25.0017 49.3066 23.9637 50.9923 23.9637V26.9619C50.7515 26.9042 50.4573 26.8753 50.1093 26.8753C48.9321 26.8753 47.3535 27.7403 46.7915 28.7203V37.7229H43.9821Z" fill="white"/>
<path fill-rule="evenodd" clip-rule="evenodd" d="M51.4495 23.3206C51.4495 25.7709 53.1619 27.1834 55.1686 27.8755C53.0013 28.6538 51.1551 30.4123 51.155 32.8626C51.155 36.3219 54.3391 38.1379 58.0047 38.1379C61.6437 38.1379 64.8276 36.293 64.8276 32.8626C64.8276 30.4122 62.9814 28.6538 60.8142 27.8755C62.8209 27.1834 64.5601 25.771 64.5601 23.3206C64.5601 19.775 61.1353 18.2759 58.0047 18.2759C54.8208 18.2759 51.4495 19.775 51.4495 23.3206ZM54.3124 32.4301C54.3124 30.4411 56.881 29.5475 58.0047 29.4032C59.1019 29.5475 61.6705 30.4411 61.6704 32.4301C61.6704 34.1022 59.9848 35.1401 58.0047 35.1401C55.9713 35.1401 54.3124 34.1022 54.3124 32.4301ZM54.6066 23.8394C54.6066 22.2253 56.0516 21.274 58.0047 21.274C59.9045 21.274 61.3761 22.2253 61.3761 23.8394C61.3761 25.6557 59.1018 26.3475 58.0047 26.5493C56.9077 26.3474 54.6066 25.6557 54.6066 23.8394Z" fill="white"/>
<mask id="mask0_438_14086" style="mask-type:alpha" maskUnits="userSpaceOnUse" x="384" y="18" width="20" height="20">
<rect x="384" y="18" width="20" height="20" fill="#D9D9D9"/>
</mask>
<g mask="url(#mask0_438_14086)">
<path d="M394 29.1668L389.917 33.2502C389.764 33.4029 389.569 33.4793 389.333 33.4793C389.097 33.4793 388.903 33.4029 388.75 33.2502C388.597 33.0974 388.521 32.9029 388.521 32.6668C388.521 32.4307 388.597 32.2363 388.75 32.0835L392.833 28.0002L388.75 23.9168C388.597 23.7641 388.521 23.5696 388.521 23.3335C388.521 23.0974 388.597 22.9029 388.75 22.7502C388.903 22.5974 389.097 22.521 389.333 22.521C389.569 22.521 389.764 22.5974 389.917 22.7502L394 26.8335L398.083 22.7502C398.236 22.5974 398.431 22.521 398.667 22.521C398.903 22.521 399.097 22.5974 399.25 22.7502C399.403 22.9029 399.479 23.0974 399.479 23.3335C399.479 23.5696 399.403 23.7641 399.25 23.9168L395.167 28.0002L399.25 32.0835C399.403 32.2363 399.479 32.4307 399.479 32.6668C399.479 32.9029 399.403 33.0974 399.25 33.2502C399.097 33.4029 398.903 33.4793 398.667 33.4793C398.431 33.4793 398.236 33.4029 398.083 33.2502L394 29.1668Z" fill="#ABBAD0"/>
</g>
<path d="M8 64C8 59.5817 11.5817 56 16 56H404C408.418 56 412 59.5817 412 64V424C412 428.418 408.418 432 404 432H16C11.5817 432 8 428.418 8 424V64Z" fill="white"/>
</svg>
