<svg width="153" height="261" viewBox="0 0 153 261" fill="none" xmlns="http://www.w3.org/2000/svg">
<path d="M92.8627 107.641V153.364H46.7408V214.389H1V153.364C1 140.729 6.12331 129.299 14.4018 121.038C22.6812 112.762 34.1166 107.641 46.7404 107.641H92.8627V107.641Z" stroke="#023C9B"/>
<path d="M46.6719 260V214.277C79.528 214.277 106.259 187.557 106.259 154.713V46.6192H152V154.713C151.999 212.768 104.75 260 46.6719 260Z" stroke="#023C9B"/>
<path d="M1 106.3V123.357C3.03591 120.272 5.39442 117.369 8.07146 114.698C18.3997 104.372 32.1355 98.6827 46.7408 98.6827H47.245C50.9999 69.4233 76.0517 46.7232 106.326 46.7232V1C48.2502 1 1 48.2469 1 106.3Z" stroke="#023C9B"/>
</svg>
