<svg width="190" height="196" viewBox="0 0 190 196" fill="none" xmlns="http://www.w3.org/2000/svg">
<mask id="path-1-inside-1_452_7314" fill="white">
<path d="M120 185C120 191.075 114.18 196 107 196C99.8203 196 94 191.075 94 185C94 178.925 99.8203 174 107 174C114.18 174 120 178.925 120 185ZM101.8 185C101.8 187.43 104.128 189.4 107 189.4C109.872 189.4 112.2 187.43 112.2 185C112.2 182.57 109.872 180.6 107 180.6C104.128 180.6 101.8 182.57 101.8 185Z"/>
</mask>
<path d="M120 185C120 191.075 114.18 196 107 196C99.8203 196 94 191.075 94 185C94 178.925 99.8203 174 107 174C114.18 174 120 178.925 120 185ZM101.8 185C101.8 187.43 104.128 189.4 107 189.4C109.872 189.4 112.2 187.43 112.2 185C112.2 182.57 109.872 180.6 107 180.6C104.128 180.6 101.8 182.57 101.8 185Z" fill="white" stroke="#023C9B" stroke-width="2" mask="url(#path-1-inside-1_452_7314)"/>
<path d="M77.0001 14.9999L73.0001 44.4999C72.1866 50.4998 77.5001 50.7222 80 51C89 52 102.4 52.7 106 53.5C110.5 54.5 116 56.5 119.5 53.5C121.398 51.8731 123 28 123.5 22.5C123.9 18.1 119.667 16.6667 117.5 16.5C108.5 15.5 89.2001 13.2999 84.0001 12.4999C78.8001 11.6999 77.1668 13.8332 77.0001 14.9999Z" fill="white"/>
<path d="M77 63C68 64 62.6667 67 62 69C61.6668 70 60.4999 77.5 63.5 98C69 125 76.5 130 83 135.5C90.0909 141.5 108 144 118.5 132C128 123 130 106.5 128.5 89C127.003 71.5355 124 62 122.5 59.5C121 57 110.5 58.5 105.5 59.5C100.5 60.5 85 61.5 77 63Z" fill="white"/>
<path d="M138.5 182.5C137 183.5 93.3333 184.667 71.5 184.5C72.1667 172.167 83.5 147.817 105 148.5C134 149.42 140.3 179.5 138.5 182.5Z" fill="white"/>
<path d="M110.898 149.029C110.169 148.922 110.169 150.104 110.898 150.198C125.25 152.134 137.331 165.16 138.343 182.018C130.344 183.346 82.6563 184.61 72.0662 184.097C74.0338 172.749 78.3597 161.312 88.1933 154.553C91.3162 152.552 94.6376 150.882 98.1042 149.569C98.18 149.548 98.2442 149.497 98.2828 149.429C98.3213 149.36 98.331 149.278 98.3098 149.202C98.2885 149.127 98.238 149.062 98.1694 149.023C98.1008 148.985 98.0197 148.975 97.9439 148.996C91.7095 150.501 86.0788 153.871 81.7993 158.659C75.3062 165.781 72.3912 175.104 70.823 184.492C70.8009 184.577 70.7985 184.667 70.8159 184.753C70.8333 184.84 70.87 184.921 70.9233 184.992C70.9766 185.062 71.0451 185.119 71.1236 185.159C71.2022 185.199 71.2888 185.221 71.3768 185.223C80.1728 185.736 118.04 184.523 118.04 184.523L118.916 184.487C118.916 184.487 135.146 183.784 139.083 183.071C139.205 183.038 139.312 182.965 139.39 182.865C139.467 182.765 139.51 182.643 139.512 182.516C138.786 166.407 127.718 151.266 110.898 149.029Z" fill="#023C9B"/>
<path d="M94.5741 29.7247C94.9997 27.2681 93.0714 24.6521 90.4436 25.602C89.77 25.8609 89.199 26.333 88.817 26.9465C88.2369 27.6401 87.9439 28.5301 87.9981 29.4336C88.0523 30.3372 88.4497 31.1856 89.1085 31.8044C89.5635 32.192 90.1139 32.4502 90.7023 32.5519C91.2907 32.6537 91.8955 32.5953 92.4537 32.3829C93.012 32.1705 93.5032 31.8119 93.8761 31.3443C94.2491 30.8768 94.4901 30.3175 94.5741 29.7247V29.7247Z" fill="#023C9B"/>
<path d="M108.448 31.2847C108.886 28.8295 106.946 26.2121 104.318 27.162C103.644 27.4214 103.074 27.8933 102.691 28.5065C102.111 29.2002 101.819 30.0902 101.873 30.9936C101.927 31.897 102.324 32.7453 102.983 33.3643C103.437 33.7539 103.988 34.0138 104.577 34.1166C105.166 34.2194 105.771 34.1615 106.33 33.9488C106.889 33.7361 107.381 33.3766 107.753 32.9078C108.126 32.4391 108.366 31.8785 108.448 31.2847V31.2847Z" fill="#023C9B"/>
<path d="M97.6904 41.5937C100.339 41.7822 105.403 41.0573 106.362 38.5816C106.469 38.3127 106.112 38.0789 105.898 38.2221C104.606 39.0722 103.195 39.7248 101.712 40.1585C98.9872 40.7791 96.1395 40.5606 93.541 39.5316C92.2049 38.9025 90.9095 38.1899 89.6626 37.3979C89.4119 37.2517 89.0184 37.5601 89.2151 37.8465C90.8606 40.0226 94.7332 41.3818 97.6904 41.5937Z" fill="#023C9B"/>
<path d="M129.398 62.102C128.708 61.3158 127.833 60.714 126.853 60.3509C125.874 59.9879 124.819 59.875 123.785 60.0224C121.704 57.4152 118.822 57.6067 115.203 57.6374C110.635 57.8016 106.087 58.317 101.598 59.1792C101.998 58.3213 102.151 57.3683 102.041 56.4276C101.93 55.487 101.559 54.596 100.971 53.8551C111.398 54.9161 112.183 55.492 114.63 55.7199C118.083 56.0429 119.831 54.6969 120.567 51.9012C122.367 45.1494 123.164 31.8283 124.065 23.827C124.398 22.3306 124.245 20.7665 123.628 19.3637C123.002 18.3431 122.06 17.5561 120.946 17.1233C118.793 16.1793 117.795 16.2465 103.998 14.5059C106.188 12.0473 108.229 9.45937 110.111 6.7559C113.317 7.63276 115.152 3.60942 113.061 1.43187C109.92 -1.8286 105.4 3.77018 109.198 6.3087C108.869 6.72667 109.811 5.50929 106.517 9.94768C105.289 11.3491 104.16 12.8346 103.138 14.3934C98.668 13.838 86.6889 12.3678 85.1702 12.1881C82.828 11.8958 80.0209 11.5786 77.9644 12.9948C75.4079 14.7339 75.6761 18.4445 75.3729 21.1525C74.5684 28.0666 73.1546 35.7465 72.7261 42.8797C72.5658 45.6039 72.1723 48.9739 75.0858 50.3915C76.2479 50.8914 77.4887 51.1823 78.7514 51.2509C85.3189 51.8749 84.5814 51.8764 91.1765 52.7927C89.0048 55.1587 89.4129 59.7725 90.9622 60.9314C83.5677 61.1719 76.2172 62.1709 69.0256 63.9128C65.8293 64.813 62.9712 66.1049 61.5341 68.9854C60.5313 68.9868 59.545 69.242 58.6668 69.7274C57.7886 70.2128 57.0467 70.9127 56.5101 71.7622C51.4949 78.2816 54.7451 88.994 61.5166 88.5599C61.6129 88.5579 61.7063 88.5268 61.7848 88.4708C63.3676 102.3 67.4471 120.915 76.9427 131.01C82.2823 136.874 89.6883 140.423 97.5924 140.907C96.8767 145.21 97.5559 150.909 101.883 153.037C102.827 153.537 103.889 153.773 104.955 153.719C106.021 153.666 107.054 153.325 107.943 152.733C111.513 150.103 110.807 142.977 109.984 138.624C112.359 137.608 114.579 136.262 116.581 134.626C131.791 122.094 130.656 98.4641 127.898 79.1074C133.678 77.8344 135.245 67.7739 129.398 62.102ZM79.9495 50.3418C73.1357 49.7573 73.3718 47.9582 73.8703 41.7369C74.2332 36.7987 75.0858 31.235 75.784 26.2296C76.8829 18.1507 76.5841 18.5906 76.982 16.6206C78.0023 11.602 84.2228 13.1614 87.9234 13.6086C95.9687 14.5951 114.794 16.926 116.153 17.1043C118.34 17.3733 121.301 17.6889 122.625 19.7218C123.52 21.0853 123.144 22.842 122.964 24.3472C121.965 33.7194 121.475 42.7848 119.746 50.7364C118.538 56.496 114.974 54.6063 108.77 53.747C102.589 52.8774 99.3355 52.7941 98.9712 52.6714C92.6078 52.1876 86.3129 50.8913 79.9495 50.3418ZM127.901 109.339C123.604 140.657 97.3329 146.323 81.3078 133.755C75.2112 128.951 71.3969 122.356 68.7399 115.165C64.2057 102.889 62.2876 89.2439 61.744 76.1202C61.5574 71.6145 61.3184 68.6493 65.446 66.3285C69.9001 63.8558 81.5367 62.4776 86.6321 62.0611C104.371 60.5062 105.932 59.0929 114.151 58.7831C116.446 58.6405 118.751 58.8096 121.001 59.2859C123.843 60.3965 124.47 64.0896 124.881 66.7611C126.742 78.8911 126.47 78.6704 126.704 79.0226C128.211 88.8712 129.234 99.5996 127.899 109.339H127.901Z" fill="#023C9B"/>
<path fill-rule="evenodd" clip-rule="evenodd" d="M28.0836 57.266C28.0911 57.2407 28.0985 57.2154 28.106 57.1901C28.6675 57.6905 29.2301 58.1776 29.7919 58.664C29.8732 58.7343 29.9544 58.8047 30.0357 58.8751C29.166 59.6436 28.2439 60.3729 27.3193 61.1042C25.8298 62.2822 24.3338 63.4654 23.0397 64.8261C21.9766 64.7976 20.9128 64.8518 19.858 64.9883C19.4099 65.011 18.9563 65.0229 18.5013 65.0347C17.5224 65.0603 16.5369 65.086 15.5847 65.2207C15.446 64.9425 13.9365 64.5178 13.3041 64.3398C13.1922 64.3083 13.1077 64.2846 13.0632 64.2707C12.2776 64.0194 7.52478 62.5492 5.93028 62.0654C6.3874 59.9717 6.72174 57.8528 6.93158 55.7198C6.93158 55.4056 6.40251 54.9336 6.12704 55.3603C5.30773 56.6538 4.91652 57.3572 3.63814 59.6558C3.05174 60.7102 2.27867 62.1003 1.19199 64.0369C0.887706 64.4277 0.662888 64.8746 0.530288 65.3522C0.485344 65.9668 1.13444 66.1204 1.64766 66.2418C1.73359 66.2622 1.81571 66.2816 1.89013 66.3021C2.91624 66.6023 3.99754 66.925 5.10836 67.2565C8.64259 68.3113 12.4757 69.4552 15.7814 70.248C17.8138 74.723 20.7754 78.7114 24.4681 81.9468C27.0025 84.271 30.0189 86.0033 33.3005 87.0195C40.1744 88.7512 45.7904 86.1656 51.2628 83.6461C51.36 83.6014 51.457 83.5567 51.5541 83.512C52.4034 83.1892 53.218 82.7808 53.9851 82.2932C54.0673 82.2425 54.1288 82.1641 54.1584 82.072C54.1881 81.98 54.184 81.8803 54.1469 81.791C54.1099 81.7017 54.0422 81.6286 53.9562 81.5848C53.8702 81.5411 53.7714 81.5295 53.6776 81.5522C52.8223 81.6913 51.6217 82.275 50.1338 82.9985C46.4775 84.7763 41.0857 87.398 34.8163 86.3384C31.402 85.5879 28.2372 83.9706 25.6253 81.6414C21.0705 78.0047 19.5138 75.0939 18.1222 72.4919C17.7959 71.8817 17.4787 71.2885 17.134 70.7069C19.2727 71.1265 21.4901 70.8104 23.4274 69.8096C23.6592 69.7204 23.8734 69.6313 24.0891 69.5173C24.5698 70.306 25.12 71.0499 25.7332 71.7401C26.0815 72.2151 26.4259 72.6949 26.7702 73.1746C27.1145 73.6543 27.4589 74.134 27.8072 74.6089C32.4624 80.7908 36.2227 82.9391 46.4004 77.8358C47.9795 77.0441 49.514 76.1684 51.0476 75.2931C52.2572 74.6027 53.4663 73.9127 54.6964 73.2644C55.001 73.1022 54.7853 72.5644 54.4457 72.6901C52.8455 73.314 51.0473 74.2627 49.1568 75.26C43.8822 78.0426 37.8894 81.2042 33.4754 78.7492C30.7925 77.2409 28.3029 73.6686 26.6802 71.34C26.0576 70.4467 25.5626 69.7364 25.2333 69.396C29.0622 66.7943 32.5361 63.7026 35.5669 60.1992C35.6398 60.1253 35.6808 60.0255 35.6808 59.9215C35.6808 59.8175 35.6398 59.7177 35.5669 59.6438C33.6238 57.4852 31.4263 55.5713 29.0227 53.9442L28.5 53.5L27.5324 56.8239L28.0836 57.266ZM31.0298 59.0173C31.0091 59.0652 30.9788 59.1083 30.9408 59.144H30.9364C28.6642 61.1681 26.2695 63.141 23.8428 64.9576C24.1798 65.0421 24.4945 65.199 24.7651 65.4172C25.0358 65.6355 25.2561 65.9101 25.4107 66.2219C25.5653 66.5338 25.6506 66.8756 25.6608 67.2238C25.6709 67.5719 25.6056 67.9181 25.4694 68.2385C28.9113 65.8516 32.0513 63.0544 34.8206 59.9083C33.9082 58.9599 32.9609 58.0245 31.9771 57.1316C31.5791 56.7704 31.1493 56.4294 30.718 56.0872C30.0831 55.5834 29.4451 55.0772 28.9018 54.501C28.7414 55.1104 28.5797 55.7008 28.4018 56.3103C28.9626 56.7904 29.5153 57.2937 30.0655 57.7948C30.3577 58.0608 30.6491 58.3262 30.9408 58.5872C30.9788 58.6229 31.0091 58.666 31.0298 58.7139C31.0505 58.7618 31.0612 58.8134 31.0612 58.8656C31.0612 58.9178 31.0505 58.9694 31.0298 59.0173ZM1.89533 64.3457C1.5708 64.8823 1.38563 65.1884 1.33045 65.32C1.33045 65.32 6.03668 66.7786 14.7364 69.2747C14.3703 68.7968 14.1248 68.2373 14.0208 67.6437C13.9683 66.9978 14.2001 65.9938 14.8618 65.7439C14.1088 65.4486 13.4815 65.2514 11.9537 64.771C10.6454 64.3596 8.677 63.7407 5.40413 62.6748C5.30654 62.6434 5.22452 62.5759 5.17472 62.4861C5.12492 62.3963 5.11106 62.2908 5.13595 62.1911C5.25858 61.5237 5.36379 60.8449 5.46935 60.1638C5.62475 59.1611 5.7809 58.1536 5.99441 57.1711C3.92638 60.9875 2.59082 63.1958 1.89533 64.3457Z" fill="#023C9B"/>
<path d="M167.927 128.772C168.392 128.824 168.445 128.199 168.142 127.965C167.086 127.212 163.976 124.896 163.44 124.523C162.361 123.696 162.892 123.391 163.207 122.569C165.538 117.061 165.264 118.014 165.603 117.12C166.77 116.339 167.654 115.201 168.124 113.875C168.707 113.893 169.303 113.91 169.893 113.91C170.484 113.91 170.447 113.785 170.412 114.349C170.343 114.822 170.373 115.304 170.501 115.765C170.555 115.926 170.823 115.997 170.912 115.818C171.173 115.214 171.277 114.555 171.217 113.9C171.089 112.877 170.506 113.2 168.41 113.2C168.744 112.445 168.908 111.625 168.892 110.799C170.491 110.924 172.08 111.157 173.648 111.498C174.792 111.799 174.231 113.082 173.939 114.274C173.663 115.074 173.488 115.905 173.421 116.749C173.421 116.818 173.444 116.886 173.486 116.941C173.528 116.996 173.587 117.036 173.654 117.054C173.721 117.073 173.792 117.069 173.857 117.043C173.921 117.017 173.975 116.97 174.011 116.911C174.484 115.816 174.815 114.666 174.995 113.487C175.191 112.697 175.549 111.748 174.815 111.121C174 110.65 173.075 110.402 172.134 110.403C171.033 110.245 169.921 110.166 168.809 110.169C168.303 108.363 166.049 107.769 164.231 109.399C163.356 108.98 162.455 108.621 161.532 108.323C144.552 101.756 145.239 98.0641 140.668 86.811C139.041 82.795 136.466 75.9657 134.692 72.0212C134.567 71.729 133.963 72.182 134.067 72.4699C135.408 76.2872 137.964 82.6517 139.448 86.4164C144.597 99.524 144.189 102.459 160.598 109.041C161.551 109.468 162.53 109.833 163.53 110.134C162.585 111.489 161.916 113.018 161.564 114.634C157.099 113.32 152.77 111.579 148.637 109.434C142.748 106.482 142.066 106.909 133.762 88.5676C132.655 86.1475 131.117 82.2835 129.865 79.9276C129.834 79.8563 129.777 79.8001 129.705 79.7715C129.633 79.7429 129.552 79.7441 129.481 79.7749C129.41 79.8057 129.354 79.8636 129.325 79.9358C129.297 80.008 129.298 80.0887 129.329 80.16C130.327 83.3751 134.194 91.8968 135.551 94.8065C137.212 98.8824 139.38 102.731 142.004 106.261C144.774 109.589 158.879 115.495 161.564 115.547C161.633 115.962 161.799 116.355 162.046 116.694C160.88 118.263 160.506 119.137 157.382 124.493C157.06 125.05 156.31 125.91 156.508 126.609C156.706 127.307 157.581 127.307 158.171 127.398C161.704 128.021 164.929 128.436 167.927 128.772ZM157.579 126.352C157.369 126.002 158.356 124.867 160.315 121.383C161.102 120.021 161.96 118.659 162.621 117.224C163.15 117.565 163.789 117.693 164.409 117.583C164.409 117.729 163.947 118.597 162.603 121.831C162.273 122.437 162.004 123.073 161.799 123.731C161.602 124.718 163.068 125.339 163.712 125.811C164.587 126.438 165.461 127.084 166.323 127.711C163.712 127.35 157.726 126.375 157.575 126.352H157.579Z" fill="#023C9B"/>
<path d="M108.572 48.8349C110.218 49.0863 112.095 48.9971 113.042 47.4012C114.409 45.0629 115.329 32.553 115.741 28.6495C115.938 26.6956 116.494 24.4552 114.705 23.0566C113.393 22.2177 111.877 21.7529 110.321 21.7121C87.2126 18.8155 86.8395 18.643 85.0584 19.3811C83.1097 20.2053 82.9305 22.1578 82.7512 24.0065C82.1828 29.6009 81.129 34.5888 80.8025 40.2665C80.6772 42.4177 80.6247 44.6581 82.9669 45.5364C83.9342 45.8357 84.9396 45.9927 85.9518 46.0026C90.6654 46.3183 93.8908 47.0066 98.0738 47.3647C105.787 48.2606 102.13 47.8616 108.572 48.8349ZM85.3834 44.8992C82.1915 44.6873 81.6974 43.7199 81.7718 41.4386C81.9365 36.1613 83.3167 28.442 83.7379 24.4976C83.7048 23.3351 83.9433 22.181 84.4346 21.1275C85.4723 19.6397 87.7781 19.9978 89.3157 20.1776C90.2281 20.2857 102.85 21.8451 108.25 22.5086C110.538 22.8008 114.883 22.7234 114.935 25.8246C114.897 26.8756 114.796 27.9234 114.632 28.9623C114.086 34.352 113.815 39.2888 112.844 44.2358C112.8 45.3674 112.407 46.4573 111.717 47.3545C110.051 48.8071 106.762 46.916 96.9675 46.1853C93.1067 45.6987 89.2458 45.1462 85.3834 44.8992Z" fill="#023C9B"/>
<path d="M113.806 89.4393C113.61 87.5219 113.627 85.3473 111.642 84.4017C109.456 83.3641 108.129 84.0524 86.2904 85.8179C84.6901 85.8086 83.1183 86.243 81.7488 87.0732C80.0873 88.3461 80.4269 90.3542 80.6047 92.1883C81.1425 97.3588 81.2037 102.79 82.017 108.179C82.3216 110.259 82.6612 112.553 85.1113 112.983C87.4432 113.379 87.5409 112.242 110.999 110.903C112.68 110.814 114.497 110.331 115.093 108.537C115.944 105.917 114.188 93.071 113.806 89.4393ZM113.716 108.926C112.973 109.579 112.003 109.914 111.017 109.859C107.119 110.11 103.168 110.217 99.2882 110.735C85.789 111.801 86.6562 112.251 85.1637 111.905C83.9307 111.612 83.5372 110.614 83.3229 109.467C82.4134 104.717 82.189 97.4275 81.7197 92.5142C81.5084 91.4707 81.448 90.4021 81.5404 89.3414C82.0593 86.5647 86.5469 86.8482 88.7462 86.6523C94.2162 86.1671 99.6876 85.7009 105.158 85.2172C107.482 85.0199 111.827 83.9984 112.506 87.0995C112.72 88.1225 112.739 89.2157 112.863 90.2548C113.586 95.3733 114.051 100.525 114.258 105.69C114.447 106.799 114.256 107.94 113.716 108.926V108.926Z" fill="#023C9B"/>
<path d="M110.519 92.3626C110.49 92.2633 110.431 92.176 110.348 92.1138C110.266 92.0517 110.166 92.0181 110.063 92.0181C109.96 92.0181 109.86 92.0517 109.778 92.1138C109.696 92.176 109.636 92.2633 109.608 92.3626C108.613 94.972 107.785 97.6427 107.13 100.358C106.414 99.2635 105.681 98.1659 104.967 97.0772C104.918 97.0013 104.848 96.9408 104.767 96.9027C104.685 96.8645 104.594 96.8501 104.505 96.8613C104.415 96.8724 104.33 96.9085 104.26 96.9656C104.19 97.0226 104.138 97.0983 104.109 97.1839C103.644 98.296 103.179 99.4067 102.731 100.501C102.231 99.8919 101.749 99.2635 101.248 98.6541C101.19 98.5989 101.12 98.5593 101.043 98.5391C100.966 98.5188 100.886 98.5186 100.809 98.5383C100.732 98.5581 100.661 98.5972 100.604 98.652C100.546 98.7068 100.503 98.7754 100.479 98.8514C100.056 100.192 99.7219 101.559 99.4782 102.943C98.4223 99.8061 97.1126 96.7605 95.5619 93.8372C95.3841 93.5142 94.7938 93.5449 94.7399 93.9438C94.0957 97.4757 93.4519 101.001 92.8087 104.52C91.6646 101.76 90.5029 98.999 89.3588 96.2573C89.2131 95.9153 88.5893 95.7721 88.5179 96.2573C88.2517 97.9721 87.8936 99.6713 87.4451 101.347C86.2023 101.584 84.9378 101.686 83.6732 101.653C83.1907 101.635 83.2082 102.334 83.6732 102.384C85.09 102.515 86.5186 102.431 87.9101 102.132C87.9828 102.112 88.0491 102.073 88.1025 102.02C88.1559 101.966 88.1945 101.9 88.2147 101.827C88.5718 100.536 88.8764 99.2284 89.1256 97.919C90.2693 100.68 91.4197 103.441 92.5769 106.202C92.7227 106.56 93.364 106.704 93.4515 106.202C94.1132 102.616 94.7559 99.0311 95.4176 95.4462C96.9621 98.5342 98.242 101.748 99.2435 105.054C99.2755 105.158 99.3434 105.247 99.435 105.306C99.5266 105.364 99.636 105.388 99.7436 105.373C99.8513 105.358 99.9501 105.305 100.022 105.224C100.095 105.143 100.136 105.038 100.138 104.929C100.327 103.236 100.662 101.562 101.14 99.927C101.603 100.519 102.087 101.111 102.552 101.703C102.801 102.007 103.212 101.774 103.32 101.505C103.768 100.43 104.214 99.3541 104.678 98.2785C105.429 99.4476 106.199 100.59 106.949 101.755C106.997 101.833 107.066 101.896 107.148 101.935C107.23 101.975 107.322 101.99 107.413 101.979C107.503 101.968 107.589 101.931 107.659 101.872C107.729 101.813 107.78 101.736 107.808 101.649C108.403 99.0864 109.143 96.5603 110.025 94.0827C110.477 95.9013 110.823 97.7449 111.061 99.604C111.134 100.213 112.099 100.213 112.027 99.604C111.702 97.1564 111.198 94.7361 110.519 92.3626Z" fill="#023C9B"/>
</svg>
