<svg width="989" height="240" viewBox="0 0 989 240" fill="none" xmlns="http://www.w3.org/2000/svg">
<g clip-path="url(#clip0_437_6382)">
<rect x="0.5" y="0.5" width="988" height="239" rx="3.5" fill="white" stroke="#C7D5EA"/>
<rect x="866" y="11" width="109" height="28" rx="3" fill="#008DE4"/>
<path d="M885.5 25.75H881.75V29.5C881.75 29.9125 881.413 30.25 881 30.25C880.587 30.25 880.25 29.9125 880.25 29.5V25.75H876.5C876.087 25.75 875.75 25.4125 875.75 25C875.75 24.5875 876.087 24.25 876.5 24.25H880.25V20.5C880.25 20.0875 880.587 19.75 881 19.75C881.413 19.75 881.75 20.0875 881.75 20.5V24.25H885.5C885.913 24.25 886.25 24.5875 886.25 25C886.25 25.4125 885.913 25.75 885.5 25.75Z" fill="white"/>
<path d="M896.748 25.928H898.056L899.52 29H901.548L899.904 25.712C900.924 25.328 901.428 24.428 901.428 23.3C901.428 21.704 900.444 20.624 898.896 20.624H894.924V29H896.748V25.928ZM896.748 24.392V22.208H898.668C899.208 22.208 899.544 22.496 899.544 23.036V23.564C899.544 24.104 899.208 24.392 898.668 24.392H896.748ZM905.294 29.144C907.142 29.144 908.246 27.872 908.246 25.844C908.246 23.816 907.142 22.556 905.294 22.556C903.446 22.556 902.342 23.816 902.342 25.844C902.342 27.872 903.446 29.144 905.294 29.144ZM905.294 27.74C904.598 27.74 904.19 27.284 904.19 26.492V25.208C904.19 24.416 904.598 23.96 905.294 23.96C905.99 23.96 906.398 24.416 906.398 25.208V26.492C906.398 27.284 905.99 27.74 905.294 27.74ZM913.232 29H915.008V22.7H913.232V26.792C913.232 27.392 912.668 27.704 912.116 27.704C911.468 27.704 911.216 27.272 911.216 26.504V22.7H909.44V26.66C909.44 28.244 910.124 29.144 911.408 29.144C912.44 29.144 912.956 28.58 913.172 27.944H913.232V29ZM919.924 29V27.62H918.772V24.08H920.02V22.7H918.772V20.996H917.176V22.028C917.176 22.46 917.032 22.7 916.552 22.7H916.108V24.08H916.996V27.164C916.996 28.364 917.644 29 918.868 29H919.924ZM923.835 29.144C924.987 29.144 925.911 28.748 926.475 28.1L925.587 26.996C925.191 27.404 924.783 27.752 924.039 27.752C923.091 27.752 922.647 27.224 922.647 26.396V26.3H926.691V25.772C926.691 24.068 925.851 22.556 923.763 22.556C921.867 22.556 920.811 23.852 920.811 25.844C920.811 27.86 921.903 29.144 923.835 29.144ZM923.799 23.864C924.507 23.864 924.855 24.38 924.855 25.148V25.256H922.647V25.16C922.647 24.38 923.091 23.864 923.799 23.864ZM935.893 29V27.38H932.701V20.624H930.877V29H935.893ZM939.655 29.144C940.807 29.144 941.731 28.748 942.295 28.1L941.407 26.996C941.011 27.404 940.603 27.752 939.859 27.752C938.911 27.752 938.467 27.224 938.467 26.396V26.3H942.511V25.772C942.511 24.068 941.671 22.556 939.583 22.556C937.687 22.556 936.631 23.852 936.631 25.844C936.631 27.86 937.723 29.144 939.655 29.144ZM939.619 23.864C940.327 23.864 940.675 24.38 940.675 25.148V25.256H938.467V25.16C938.467 24.38 938.911 23.864 939.619 23.864ZM949.598 29.456C949.598 28.292 948.938 27.62 947.402 27.62H945.578C945.038 27.62 944.822 27.44 944.822 27.14C944.822 26.924 944.93 26.744 945.098 26.636C945.422 26.72 945.794 26.768 946.214 26.768C948.038 26.768 948.914 25.94 948.914 24.68C948.914 23.876 948.566 23.228 947.834 22.88V22.808H949.226V21.488H948.23C947.63 21.488 947.282 21.776 947.282 22.436V22.676C946.97 22.592 946.61 22.556 946.214 22.556C944.402 22.556 943.514 23.408 943.514 24.68C943.514 25.496 943.886 26.132 944.642 26.48V26.528C944.054 26.648 943.466 26.984 943.466 27.644C943.466 28.184 943.778 28.64 944.378 28.748V28.88C943.646 28.976 943.202 29.384 943.202 30.08C943.202 30.992 944.006 31.544 946.19 31.544C948.758 31.544 949.598 30.788 949.598 29.456ZM947.93 29.696C947.93 30.152 947.57 30.368 946.61 30.368H945.89C944.93 30.368 944.57 30.152 944.57 29.696C944.57 29.504 944.642 29.288 944.798 29.132H946.958C947.666 29.132 947.93 29.336 947.93 29.696ZM946.214 25.604C945.518 25.604 945.17 25.292 945.17 24.74V24.596C945.17 24.044 945.518 23.732 946.214 23.732C946.91 23.732 947.258 24.044 947.258 24.596V24.74C947.258 25.292 946.91 25.604 946.214 25.604Z" fill="white"/>
<path d="M960.53 24.5603L962.472 26.5028C962.765 26.7953 963.237 26.7953 963.53 26.5028L965.472 24.5603C965.945 24.0878 965.607 23.2778 964.94 23.2778H961.055C960.387 23.2778 960.057 24.0878 960.53 24.5603Z" fill="white"/>
<path d="M15.206 26.416H16.732L18.44 30H20.806L18.888 26.164C20.078 25.716 20.666 24.666 20.666 23.35C20.666 21.488 19.518 20.228 17.712 20.228H13.078V30H15.206V26.416ZM15.206 24.624V22.076H17.446C18.076 22.076 18.468 22.412 18.468 23.042V23.658C18.468 24.288 18.076 24.624 17.446 24.624H15.206ZM25.1765 30.168C27.3325 30.168 28.6205 28.684 28.6205 26.318C28.6205 23.952 27.3325 22.482 25.1765 22.482C23.0205 22.482 21.7325 23.952 21.7325 26.318C21.7325 28.684 23.0205 30.168 25.1765 30.168ZM25.1765 28.53C24.3645 28.53 23.8885 27.998 23.8885 27.074V25.576C23.8885 24.652 24.3645 24.12 25.1765 24.12C25.9885 24.12 26.4645 24.652 26.4645 25.576V27.074C26.4645 27.998 25.9885 28.53 25.1765 28.53ZM34.4369 30H36.5089V22.65H34.4369V27.424C34.4369 28.124 33.7789 28.488 33.1349 28.488C32.3789 28.488 32.0849 27.984 32.0849 27.088V22.65H30.0129V27.27C30.0129 29.118 30.8109 30.168 32.3089 30.168C33.5129 30.168 34.1149 29.51 34.3669 28.768H34.4369V30ZM42.2447 30V28.39H40.9007V24.26H42.3567V22.65H40.9007V20.662H39.0387V21.866C39.0387 22.37 38.8707 22.65 38.3107 22.65H37.7927V24.26H38.8287V27.858C38.8287 29.258 39.5847 30 41.0127 30H42.2447ZM44.8321 21.866C45.6721 21.866 46.0361 21.432 46.0361 20.844V20.536C46.0361 19.948 45.6721 19.514 44.8321 19.514C43.9921 19.514 43.6281 19.948 43.6281 20.536V20.844C43.6281 21.432 43.9921 21.866 44.8321 21.866ZM43.7961 30H45.8681V22.65H43.7961V30ZM49.8739 30V25.24C49.8739 24.512 50.5319 24.162 51.2039 24.162C51.9599 24.162 52.2259 24.624 52.2259 25.562V30H54.2979V25.394C54.2979 23.546 53.4999 22.482 52.0019 22.482C50.8399 22.482 50.2239 23.126 49.9579 23.896H49.8739V22.65H47.8019V30H49.8739ZM62.9458 30.532C62.9458 29.174 62.1758 28.39 60.3838 28.39H58.2558C57.6258 28.39 57.3738 28.18 57.3738 27.83C57.3738 27.578 57.4998 27.368 57.6958 27.242C58.0738 27.34 58.5078 27.396 58.9978 27.396C61.1258 27.396 62.1478 26.43 62.1478 24.96C62.1478 24.022 61.7418 23.266 60.8878 22.86V22.776H62.5118V21.236H61.3498C60.6498 21.236 60.2438 21.572 60.2438 22.342V22.622C59.8798 22.524 59.4598 22.482 58.9978 22.482C56.8838 22.482 55.8478 23.476 55.8478 24.96C55.8478 25.912 56.2818 26.654 57.1638 27.06V27.116C56.4778 27.256 55.7918 27.648 55.7918 28.418C55.7918 29.048 56.1558 29.58 56.8558 29.706V29.86C56.0018 29.972 55.4838 30.448 55.4838 31.26C55.4838 32.324 56.4218 32.968 58.9698 32.968C61.9658 32.968 62.9458 32.086 62.9458 30.532ZM60.9998 30.812C60.9998 31.344 60.5798 31.596 59.4598 31.596H58.6198C57.4998 31.596 57.0798 31.344 57.0798 30.812C57.0798 30.588 57.1638 30.336 57.3458 30.154H59.8658C60.6918 30.154 60.9998 30.392 60.9998 30.812ZM58.9978 26.038C58.1858 26.038 57.7798 25.674 57.7798 25.03V24.862C57.7798 24.218 58.1858 23.854 58.9978 23.854C59.8098 23.854 60.2158 24.218 60.2158 24.862V25.03C60.2158 25.674 59.8098 26.038 58.9978 26.038Z" fill="#002245"/>
<line x1="988" y1="49.5" y2="49.5" stroke="#C7D5EA"/>
<path d="M277 60.5H713C714.933 60.5 716.5 62.067 716.5 64V225C716.5 226.933 714.933 228.5 713 228.5H277C275.067 228.5 273.5 226.933 273.5 225V64C273.5 62.067 275.067 60.5 277 60.5Z" fill="#F0F6FC"/>
<path d="M301.984 81H303.484V74.988H303.532L304.18 76.32L305.896 79.488L307.612 76.32L308.26 74.988H308.308V81H309.808V72.624H308.092L305.968 76.716H305.92L303.772 72.624H301.984V81ZM313.233 81.144C314.169 81.144 314.853 80.724 315.057 79.92H315.129C315.225 80.568 315.633 81 316.293 81H317.145V79.776H316.521V76.824C316.521 75.396 315.621 74.592 313.929 74.592C312.669 74.592 311.937 75.072 311.481 75.792L312.393 76.608C312.693 76.176 313.101 75.816 313.821 75.816C314.637 75.816 314.985 76.224 314.985 76.92V77.376H313.917C312.213 77.376 311.241 78.012 311.241 79.296C311.241 80.412 311.961 81.144 313.233 81.144ZM313.749 80.028C313.149 80.028 312.801 79.776 312.801 79.272V79.068C312.801 78.576 313.197 78.3 314.001 78.3H314.985V79.128C314.985 79.716 314.433 80.028 313.749 80.028ZM319.156 73.824C319.78 73.824 320.056 73.5 320.056 73.056V72.816C320.056 72.372 319.78 72.048 319.156 72.048C318.52 72.048 318.256 72.372 318.256 72.816V73.056C318.256 73.5 318.52 73.824 319.156 73.824ZM318.388 81H319.924V74.736H318.388V81ZM323.24 81V76.86C323.24 76.188 323.852 75.852 324.488 75.852C325.22 75.852 325.52 76.308 325.52 77.196V81H327.056V77.04C327.056 75.48 326.336 74.592 325.052 74.592C324.08 74.592 323.552 75.108 323.3 75.78H323.24V74.736H321.704V81H323.24ZM334.943 81.144C336.443 81.144 337.439 80.412 338.039 79.164L336.755 78.408C336.479 79.164 335.891 79.74 334.943 79.74C333.767 79.74 333.011 78.924 333.011 77.484V76.164C333.011 74.736 333.767 73.884 334.943 73.884C335.879 73.884 336.407 74.388 336.647 75.132L338.003 74.412C337.415 73.116 336.443 72.48 334.943 72.48C332.735 72.48 331.331 74.052 331.331 76.872C331.331 79.692 332.735 81.144 334.943 81.144ZM340.842 81.144C341.778 81.144 342.462 80.724 342.666 79.92H342.738C342.834 80.568 343.242 81 343.902 81H344.754V79.776H344.13V76.824C344.13 75.396 343.23 74.592 341.538 74.592C340.278 74.592 339.546 75.072 339.09 75.792L340.002 76.608C340.302 76.176 340.71 75.816 341.43 75.816C342.246 75.816 342.594 76.224 342.594 76.92V77.376H341.526C339.822 77.376 338.85 78.012 338.85 79.296C338.85 80.412 339.57 81.144 340.842 81.144ZM341.358 80.028C340.758 80.028 340.41 79.776 340.41 79.272V79.068C340.41 78.576 340.806 78.3 341.61 78.3H342.594V79.128C342.594 79.716 342.042 80.028 341.358 80.028ZM347.533 81V77.16C347.533 76.476 348.073 76.188 349.105 76.188H349.585V74.736H349.249C348.253 74.736 347.749 75.372 347.593 76.032H347.533V74.736H345.997V81H347.533ZM352.244 81V77.16C352.244 76.476 352.784 76.188 353.816 76.188H354.296V74.736H353.96C352.964 74.736 352.46 75.372 352.304 76.032H352.244V74.736H350.708V81H352.244ZM356.187 73.824C356.811 73.824 357.087 73.5 357.087 73.056V72.816C357.087 72.372 356.811 72.048 356.187 72.048C355.551 72.048 355.287 72.372 355.287 72.816V73.056C355.287 73.5 355.551 73.824 356.187 73.824ZM355.419 81H356.955V74.736H355.419V81ZM360.284 81.144C361.22 81.144 361.904 80.724 362.108 79.92H362.18C362.276 80.568 362.684 81 363.344 81H364.196V79.776H363.572V76.824C363.572 75.396 362.672 74.592 360.98 74.592C359.72 74.592 358.988 75.072 358.532 75.792L359.444 76.608C359.744 76.176 360.152 75.816 360.872 75.816C361.688 75.816 362.036 76.224 362.036 76.92V77.376H360.968C359.264 77.376 358.292 78.012 358.292 79.296C358.292 80.412 359.012 81.144 360.284 81.144ZM360.8 80.028C360.2 80.028 359.852 79.776 359.852 79.272V79.068C359.852 78.576 360.248 78.3 361.052 78.3H362.036V79.128C362.036 79.716 361.484 80.028 360.8 80.028ZM371.091 81.528C371.091 80.4 370.431 79.74 368.895 79.74H367.215C366.663 79.74 366.399 79.584 366.399 79.272C366.399 78.996 366.603 78.816 366.843 78.708C367.119 78.78 367.443 78.816 367.803 78.816C369.507 78.816 370.395 77.976 370.395 76.716C370.395 75.948 370.071 75.336 369.423 74.976V74.808H370.755V73.632H369.783C369.207 73.632 368.895 73.932 368.895 74.544V74.748C368.583 74.64 368.187 74.592 367.803 74.592C366.111 74.592 365.211 75.444 365.211 76.716C365.211 77.544 365.595 78.192 366.351 78.54V78.588C365.751 78.72 365.199 79.044 365.199 79.692C365.199 80.196 365.487 80.604 366.003 80.736V80.868C365.307 80.976 364.887 81.372 364.887 82.068C364.887 82.992 365.691 83.544 367.803 83.544C370.203 83.544 371.091 82.836 371.091 81.528ZM369.651 81.708C369.651 82.236 369.207 82.488 368.211 82.488H367.443C366.483 82.488 366.123 82.2 366.123 81.72C366.123 81.468 366.219 81.24 366.447 81.072H368.583C369.363 81.072 369.651 81.312 369.651 81.708ZM367.803 77.772C367.071 77.772 366.675 77.436 366.675 76.812V76.608C366.675 75.972 367.071 75.648 367.803 75.648C368.535 75.648 368.931 75.972 368.931 76.608V76.812C368.931 77.436 368.535 77.772 367.803 77.772ZM374.44 81.144C375.604 81.144 376.516 80.7 377.032 79.992L376.204 79.068C375.82 79.56 375.364 79.92 374.608 79.92C373.6 79.92 373.084 79.308 373.084 78.408V78.252H377.248V77.748C377.248 76.032 376.348 74.592 374.392 74.592C372.556 74.592 371.488 75.876 371.488 77.856C371.488 79.86 372.592 81.144 374.44 81.144ZM374.416 75.744C375.208 75.744 375.652 76.332 375.652 77.196V77.304H373.084V77.208C373.084 76.344 373.612 75.744 374.416 75.744Z" fill="#002245"/>
<line x1="273" y1="91.5" x2="717" y2="91.5" stroke="#C7D5EA"/>
<path d="M284.051 218.108C285.095 218.108 285.86 217.559 286.256 216.677L285.653 216.299C285.401 216.983 284.852 217.433 284.051 217.433C282.971 217.433 282.332 216.65 282.332 215.363V214.427C282.332 213.14 282.971 212.285 284.051 212.285C284.825 212.285 285.347 212.708 285.599 213.356L286.211 212.987C285.815 212.114 285.095 211.61 284.051 211.61C282.467 211.61 281.522 212.798 281.522 214.895C281.522 216.992 282.467 218.108 284.051 218.108ZM291.135 218V217.37H290.604V214.814C290.604 213.833 289.938 213.248 288.822 213.248C287.985 213.248 287.427 213.662 287.175 214.157L287.607 214.562C287.859 214.139 288.228 213.869 288.786 213.869C289.524 213.869 289.884 214.229 289.884 214.886V215.345H288.966C287.616 215.345 286.986 215.831 286.986 216.704C286.986 217.568 287.562 218.108 288.543 218.108C289.191 218.108 289.686 217.811 289.884 217.244H289.929C289.983 217.676 290.199 218 290.73 218H291.135ZM288.66 217.496C288.102 217.496 287.742 217.235 287.742 216.776V216.587C287.742 216.137 288.111 215.885 288.93 215.885H289.884V216.65C289.884 217.127 289.371 217.496 288.66 217.496ZM292.882 218V214.85C292.882 214.409 293.35 214.076 294.124 214.076H294.547V213.356H294.268C293.512 213.356 293.089 213.77 292.927 214.211H292.882V213.356H292.162V218H292.882ZM296.187 218V214.85C296.187 214.409 296.655 214.076 297.429 214.076H297.852V213.356H297.573C296.817 213.356 296.394 213.77 296.232 214.211H296.187V213.356H295.467V218H296.187ZM299.132 212.267C299.438 212.267 299.573 212.105 299.573 211.862V211.745C299.573 211.502 299.438 211.34 299.132 211.34C298.826 211.34 298.691 211.502 298.691 211.745V211.862C298.691 212.105 298.826 212.267 299.132 212.267ZM298.772 218H299.492V213.356H298.772V218ZM302.768 218.108C303.641 218.108 304.307 217.676 304.604 217.046L304.091 216.677C303.848 217.19 303.398 217.478 302.813 217.478C301.949 217.478 301.436 216.875 301.436 216.074V215.858H304.775V215.516C304.775 214.202 304.01 213.248 302.768 213.248C301.508 213.248 300.68 214.202 300.68 215.678C300.68 217.154 301.508 218.108 302.768 218.108ZM302.768 213.851C303.506 213.851 304.001 214.4 304.001 215.219V215.318H301.436V215.255C301.436 214.445 301.985 213.851 302.768 213.851ZM306.681 218V214.85C306.681 214.409 307.149 214.076 307.923 214.076H308.346V213.356H308.067C307.311 213.356 306.888 213.77 306.726 214.211H306.681V213.356H305.961V218H306.681ZM309.815 218.108C310.193 218.108 310.364 217.892 310.364 217.586V217.469C310.364 217.163 310.193 216.947 309.815 216.947C309.437 216.947 309.266 217.163 309.266 217.469V217.586C309.266 217.892 309.437 218.108 309.815 218.108ZM309.815 214.409C310.193 214.409 310.364 214.193 310.364 213.887V213.77C310.364 213.464 310.193 213.248 309.815 213.248C309.437 213.248 309.266 213.464 309.266 213.77V213.887C309.266 214.193 309.437 214.409 309.815 214.409ZM316.226 215.651V214.877H313.877V215.651H316.226Z" fill="#5E758D"/>
<path d="M336.186 218L338.301 211.718H337.518L336.474 214.886L335.763 217.244H335.718L335.025 214.886L333.99 211.718H333.18L335.268 218H336.186ZM340.723 218.108C341.596 218.108 342.262 217.676 342.559 217.046L342.046 216.677C341.803 217.19 341.353 217.478 340.768 217.478C339.904 217.478 339.391 216.875 339.391 216.074V215.858H342.73V215.516C342.73 214.202 341.965 213.248 340.723 213.248C339.463 213.248 338.635 214.202 338.635 215.678C338.635 217.154 339.463 218.108 340.723 218.108ZM340.723 213.851C341.461 213.851 341.956 214.4 341.956 215.219V215.318H339.391V215.255C339.391 214.445 339.94 213.851 340.723 213.851ZM345.311 218.108C346.373 218.108 347.03 217.559 347.03 216.659C347.03 215.957 346.634 215.507 345.608 215.354L345.248 215.3C344.672 215.21 344.357 215.03 344.357 214.58C344.357 214.139 344.672 213.86 345.266 213.86C345.86 213.86 346.256 214.139 346.463 214.427L346.94 213.995C346.562 213.527 346.067 213.248 345.32 213.248C344.375 213.248 343.664 213.698 343.664 214.616C343.664 215.48 344.303 215.831 345.158 215.957L345.527 216.011C346.139 216.101 346.337 216.38 346.337 216.74C346.337 217.217 345.977 217.496 345.365 217.496C344.78 217.496 344.348 217.235 343.988 216.785L343.475 217.199C343.889 217.748 344.456 218.108 345.311 218.108ZM349.644 218.108C350.706 218.108 351.363 217.559 351.363 216.659C351.363 215.957 350.967 215.507 349.941 215.354L349.581 215.3C349.005 215.21 348.69 215.03 348.69 214.58C348.69 214.139 349.005 213.86 349.599 213.86C350.193 213.86 350.589 214.139 350.796 214.427L351.273 213.995C350.895 213.527 350.4 213.248 349.653 213.248C348.708 213.248 347.997 213.698 347.997 214.616C347.997 215.48 348.636 215.831 349.491 215.957L349.86 216.011C350.472 216.101 350.67 216.38 350.67 216.74C350.67 217.217 350.31 217.496 349.698 217.496C349.113 217.496 348.681 217.235 348.321 216.785L347.808 217.199C348.222 217.748 348.789 218.108 349.644 218.108ZM354.381 218.108C355.254 218.108 355.92 217.676 356.217 217.046L355.704 216.677C355.461 217.19 355.011 217.478 354.426 217.478C353.562 217.478 353.049 216.875 353.049 216.074V215.858H356.388V215.516C356.388 214.202 355.623 213.248 354.381 213.248C353.121 213.248 352.293 214.202 352.293 215.678C352.293 217.154 353.121 218.108 354.381 218.108ZM354.381 213.851C355.119 213.851 355.614 214.4 355.614 215.219V215.318H353.049V215.255C353.049 214.445 353.598 213.851 354.381 213.851ZM358.979 218V217.37H358.295V211.34H357.575V217.253C357.575 217.685 357.845 218 358.34 218H358.979ZM360.576 218.108C360.954 218.108 361.125 217.892 361.125 217.586V217.469C361.125 217.163 360.954 216.947 360.576 216.947C360.198 216.947 360.027 217.163 360.027 217.469V217.586C360.027 217.892 360.198 218.108 360.576 218.108ZM360.576 214.409C360.954 214.409 361.125 214.193 361.125 213.887V213.77C361.125 213.464 360.954 213.248 360.576 213.248C360.198 213.248 360.027 213.464 360.027 213.77V213.887C360.027 214.193 360.198 214.409 360.576 214.409ZM366.987 215.651V214.877H364.638V215.651H366.987Z" fill="#5E758D"/>
<path d="M341.127 155.807V154.322H335.297V155.807H337.376V162H339.048V155.807H341.127ZM346.579 162V160.735H346.04V158.205C346.04 156.841 345.204 156.093 343.576 156.093C342.366 156.093 341.706 156.511 341.244 157.193L342.212 158.051C342.465 157.699 342.806 157.369 343.455 157.369C344.137 157.369 344.412 157.721 344.412 158.282V158.645H343.499C341.97 158.645 341.024 159.228 341.024 160.449C341.024 161.45 341.662 162.132 342.817 162.132C343.697 162.132 344.335 161.736 344.511 160.988H344.577C344.676 161.604 345.094 162 345.677 162H346.579ZM343.422 160.999C342.938 160.999 342.663 160.801 342.663 160.383V160.218C342.663 159.8 342.993 159.569 343.62 159.569H344.412V160.251C344.412 160.779 343.961 160.999 343.422 160.999ZM349.3 162V158.26C349.3 157.688 349.817 157.413 350.345 157.413C350.939 157.413 351.148 157.776 351.148 158.513V162H352.776V158.381C352.776 156.929 352.149 156.093 350.972 156.093C350.059 156.093 349.575 156.599 349.366 157.204H349.3V156.225H347.672V162H349.3ZM354.225 162.935H353.367V164.2H354.225C355.358 164.2 355.853 163.639 355.853 162.616V156.225H354.225V162.935ZM355.039 155.609C355.699 155.609 355.985 155.268 355.985 154.806V154.564C355.985 154.102 355.699 153.761 355.039 153.761C354.379 153.761 354.093 154.102 354.093 154.564V154.806C354.093 155.268 354.379 155.609 355.039 155.609ZM360.782 162H362.41V156.225H360.782V159.976C360.782 160.526 360.265 160.812 359.759 160.812C359.165 160.812 358.934 160.416 358.934 159.712V156.225H357.306V159.855C357.306 161.307 357.933 162.132 359.11 162.132C360.056 162.132 360.529 161.615 360.727 161.032H360.782V162ZM365.553 162V158.26C365.553 157.688 366.07 157.413 366.598 157.413C367.192 157.413 367.401 157.776 367.401 158.513V162H369.029V158.381C369.029 156.929 368.402 156.093 367.225 156.093C366.312 156.093 365.828 156.599 365.619 157.204H365.553V156.225H363.925V162H365.553ZM375.824 162.418C375.824 161.351 375.219 160.735 373.811 160.735H372.139C371.644 160.735 371.446 160.57 371.446 160.295C371.446 160.097 371.545 159.932 371.699 159.833C371.996 159.91 372.337 159.954 372.722 159.954C374.394 159.954 375.197 159.195 375.197 158.04C375.197 157.303 374.878 156.709 374.207 156.39V156.324H375.483V155.114H374.57C374.02 155.114 373.701 155.378 373.701 155.983V156.203C373.415 156.126 373.085 156.093 372.722 156.093C371.061 156.093 370.247 156.874 370.247 158.04C370.247 158.788 370.588 159.371 371.281 159.69V159.734C370.742 159.844 370.203 160.152 370.203 160.757C370.203 161.252 370.489 161.67 371.039 161.769V161.89C370.368 161.978 369.961 162.352 369.961 162.99C369.961 163.826 370.698 164.332 372.7 164.332C375.054 164.332 375.824 163.639 375.824 162.418ZM374.295 162.638C374.295 163.056 373.965 163.254 373.085 163.254H372.425C371.545 163.254 371.215 163.056 371.215 162.638C371.215 162.462 371.281 162.264 371.424 162.121H373.404C374.053 162.121 374.295 162.308 374.295 162.638ZM372.722 158.887C372.084 158.887 371.765 158.601 371.765 158.095V157.963C371.765 157.457 372.084 157.171 372.722 157.171C373.36 157.171 373.679 157.457 373.679 157.963V158.095C373.679 158.601 373.36 158.887 372.722 158.887ZM380.907 162V159.228H382.865C384.295 159.228 385.197 158.227 385.197 156.775C385.197 155.323 384.295 154.322 382.865 154.322H379.235V162H380.907ZM380.907 155.774H382.667C383.162 155.774 383.47 156.038 383.47 156.533V157.017C383.47 157.512 383.162 157.776 382.667 157.776H380.907V155.774ZM387.886 162V158.623C387.886 157.952 388.348 157.743 389.294 157.743H389.701V156.225H389.415C388.513 156.225 388.073 156.841 387.941 157.479H387.886V156.225H386.258V162H387.886ZM391.519 155.609C392.179 155.609 392.465 155.268 392.465 154.806V154.564C392.465 154.102 392.179 153.761 391.519 153.761C390.859 153.761 390.573 154.102 390.573 154.564V154.806C390.573 155.268 390.859 155.609 391.519 155.609ZM390.705 162H392.333V156.225H390.705V162ZM396.196 162.132C397.89 162.132 398.902 160.966 398.902 159.107C398.902 157.248 397.89 156.093 396.196 156.093C394.502 156.093 393.49 157.248 393.49 159.107C393.49 160.966 394.502 162.132 396.196 162.132ZM396.196 160.845C395.558 160.845 395.184 160.427 395.184 159.701V158.524C395.184 157.798 395.558 157.38 396.196 157.38C396.834 157.38 397.208 157.798 397.208 158.524V159.701C397.208 160.427 396.834 160.845 396.196 160.845ZM400.062 162H401.69V160.372L402.416 159.558L403.714 162H405.65L403.505 158.436L405.43 156.225H403.626L402.471 157.6L401.756 158.667H401.69V153.86H400.062V162ZM408.658 158.568C408.658 160.713 409.505 162.594 410.572 163.518H412.112C410.946 162.451 410.198 160.9 410.198 158.964V158.194C410.198 156.324 410.935 154.74 412.112 153.64H410.583C409.483 154.597 408.658 156.445 408.658 158.568ZM416.17 162V160.669H415.18V155.653H416.17V154.322H412.518V155.653H413.508V160.669H412.518V162H416.17ZM417.563 162H420.456C422.491 162 423.833 160.713 423.833 158.161C423.833 155.609 422.491 154.322 420.456 154.322H417.563V162ZM419.235 160.515V155.807H420.456C421.446 155.807 422.062 156.346 422.062 157.567V158.755C422.062 159.976 421.446 160.515 420.456 160.515H419.235ZM425.395 154.322V155.664H427.727V159.701C427.727 160.361 427.331 160.658 426.847 160.658C426.33 160.658 426.011 160.306 425.89 159.657L424.328 159.965C424.548 161.252 425.351 162.121 426.869 162.121C428.453 162.121 429.399 161.186 429.399 159.778V154.322H425.395ZM435.752 162H437.721L434.905 157.479L437.49 154.322H435.598L433.871 156.489L432.782 157.974H432.716V154.322H431.044V162H432.716V159.866L433.717 158.656L435.752 162ZM443.704 155.807V154.322H437.874V155.807H439.953V162H441.625V155.807H443.704ZM447.527 158.568C447.527 156.445 446.702 154.597 445.602 153.64H444.073C445.25 154.74 445.987 156.324 445.987 158.194V158.964C445.987 160.9 445.239 162.451 444.073 163.518H445.613C446.68 162.594 447.527 160.713 447.527 158.568Z" fill="#002245"/>
<path d="M358.671 176V175.334H355.593V173.156H358.491V172.49H355.593V170.384H358.671V169.718H354.837V176H358.671ZM364.197 170.384V169.718H359.445V170.384H361.443V176H362.199V170.384H364.197ZM365.234 176H367.34C368.906 176 369.914 174.956 369.914 172.859C369.914 170.762 368.906 169.718 367.34 169.718H365.234V176ZM365.99 175.334V170.384H367.34C368.375 170.384 369.104 171.104 369.104 172.346V173.372C369.104 174.614 368.375 175.334 367.34 175.334H365.99ZM375.263 176.108C376.766 176.108 377.423 174.911 377.423 172.859C377.423 170.807 376.766 169.61 375.263 169.61C373.76 169.61 373.103 170.807 373.103 172.859C373.103 174.911 373.76 176.108 375.263 176.108ZM375.263 175.451C374.282 175.451 373.895 174.587 373.895 173.372V172.346C373.895 171.131 374.282 170.267 375.263 170.267C376.244 170.267 376.631 171.131 376.631 172.346V173.372C376.631 174.587 376.244 175.451 375.263 175.451ZM380.659 176.108C382.09 176.108 382.837 175.325 382.837 174.29C382.837 173.435 382.324 172.94 381.568 172.733V172.661C382.225 172.436 382.648 171.905 382.648 171.185C382.648 170.231 381.91 169.61 380.659 169.61C379.408 169.61 378.67 170.231 378.67 171.185C378.67 171.905 379.093 172.436 379.75 172.661V172.733C378.994 172.94 378.481 173.435 378.481 174.29C378.481 175.325 379.228 176.108 380.659 176.108ZM380.659 175.451C379.786 175.451 379.282 175.037 379.282 174.326V174.137C379.282 173.426 379.786 173.012 380.659 173.012C381.532 173.012 382.036 173.426 382.036 174.137V174.326C382.036 175.037 381.532 175.451 380.659 175.451ZM380.659 172.382C379.876 172.382 379.453 172.031 379.453 171.392V171.257C379.453 170.618 379.876 170.267 380.659 170.267C381.442 170.267 381.865 170.618 381.865 171.257V171.392C381.865 172.031 381.442 172.382 380.659 172.382ZM384.084 177.359L386.433 169.34H385.785L383.436 177.359H384.084ZM387.683 169.718V170.384H389.843V174.236C389.843 175.037 389.465 175.433 388.817 175.433C388.178 175.433 387.854 175.055 387.737 174.515L387.053 174.677C387.224 175.532 387.827 176.108 388.799 176.108C389.861 176.108 390.599 175.433 390.599 174.371V169.718H387.683ZM392.181 169.718V173.426C392.181 175.253 392.739 176.108 394.413 176.108C396.087 176.108 396.699 175.253 396.699 173.426V169.718H395.943V173.606C395.943 174.803 395.556 175.433 394.44 175.433C393.324 175.433 392.937 174.803 392.937 173.606V169.718H392.181ZM402.141 176H403.014V169.718H402.276V174.947H402.249L401.493 173.552L399.198 169.718H398.325V176H399.063V170.771H399.09L399.846 172.166L402.141 176ZM404.581 177.359L406.93 169.34H406.282L403.933 177.359H404.581ZM412.094 175.334H408.791L410.483 173.813C411.284 173.093 411.86 172.409 411.86 171.437C411.86 170.366 411.158 169.61 409.934 169.61C408.719 169.61 408.161 170.348 407.918 171.086L408.593 171.347C408.764 170.753 409.124 170.285 409.898 170.285C410.672 170.285 411.059 170.762 411.059 171.455V171.563C411.059 172.166 410.609 172.796 410.024 173.336L407.972 175.226V176H412.094V175.334ZM415.393 176.108C416.896 176.108 417.553 174.911 417.553 172.859C417.553 170.807 416.896 169.61 415.393 169.61C413.89 169.61 413.233 170.807 413.233 172.859C413.233 174.911 413.89 176.108 415.393 176.108ZM415.393 175.451C414.412 175.451 414.025 174.587 414.025 173.372V172.346C414.025 171.131 414.412 170.267 415.393 170.267C416.374 170.267 416.761 171.131 416.761 172.346V173.372C416.761 174.587 416.374 175.451 415.393 175.451ZM422.887 175.334H419.584L421.276 173.813C422.077 173.093 422.653 172.409 422.653 171.437C422.653 170.366 421.951 169.61 420.727 169.61C419.512 169.61 418.954 170.348 418.711 171.086L419.386 171.347C419.557 170.753 419.917 170.285 420.691 170.285C421.465 170.285 421.852 170.762 421.852 171.455V171.563C421.852 172.166 421.402 172.796 420.817 173.336L418.765 175.226V176H422.887V175.334ZM425.151 172.382V173.039H425.889C426.771 173.039 427.239 173.462 427.239 174.2V174.272C427.239 175.01 426.771 175.433 425.889 175.433C425.124 175.433 424.755 175.1 424.431 174.605L423.864 175.037C424.251 175.577 424.809 176.108 425.898 176.108C427.176 176.108 428.031 175.361 428.031 174.281C428.031 173.336 427.383 172.832 426.708 172.697V172.661C427.374 172.49 427.914 172.004 427.914 171.194C427.914 170.177 427.068 169.61 426.006 169.61C424.998 169.61 424.449 170.132 424.134 170.636L424.692 171.068C424.953 170.591 425.34 170.285 425.988 170.285C426.654 170.285 427.113 170.618 427.113 171.275V171.338C427.113 171.941 426.681 172.382 425.835 172.382H425.151Z" fill="#5E758D"/>
<path d="M542.333 162.132C544.247 162.132 545.325 161.109 545.325 159.635C545.325 158.315 544.566 157.611 542.993 157.358L542.234 157.237C541.596 157.138 541.321 156.94 541.321 156.412C541.321 155.95 541.684 155.664 542.432 155.664C543.224 155.664 543.719 155.961 544.082 156.39L545.193 155.268C544.566 154.575 543.686 154.19 542.531 154.19C540.727 154.19 539.649 155.147 539.649 156.522C539.649 157.809 540.386 158.601 542.003 158.81L542.762 158.909C543.477 159.008 543.653 159.316 543.653 159.734C543.653 160.295 543.257 160.658 542.443 160.658C541.695 160.658 541.035 160.361 540.518 159.778L539.418 160.889C540.078 161.615 540.991 162.132 542.333 162.132ZM547.437 155.609C548.097 155.609 548.383 155.268 548.383 154.806V154.564C548.383 154.102 548.097 153.761 547.437 153.761C546.777 153.761 546.491 154.102 546.491 154.564V154.806C546.491 155.268 546.777 155.609 547.437 155.609ZM546.623 162H548.251V156.225H546.623V162ZM551.399 162V158.26C551.399 157.688 551.916 157.413 552.444 157.413C553.038 157.413 553.247 157.776 553.247 158.513V162H554.875V158.381C554.875 156.929 554.248 156.093 553.071 156.093C552.158 156.093 551.674 156.599 551.465 157.204H551.399V156.225H549.771V162H551.399ZM561.669 162.418C561.669 161.351 561.064 160.735 559.656 160.735H557.984C557.489 160.735 557.291 160.57 557.291 160.295C557.291 160.097 557.39 159.932 557.544 159.833C557.841 159.91 558.182 159.954 558.567 159.954C560.239 159.954 561.042 159.195 561.042 158.04C561.042 157.303 560.723 156.709 560.052 156.39V156.324H561.328V155.114H560.415C559.865 155.114 559.546 155.378 559.546 155.983V156.203C559.26 156.126 558.93 156.093 558.567 156.093C556.906 156.093 556.092 156.874 556.092 158.04C556.092 158.788 556.433 159.371 557.126 159.69V159.734C556.587 159.844 556.048 160.152 556.048 160.757C556.048 161.252 556.334 161.67 556.884 161.769V161.89C556.213 161.978 555.806 162.352 555.806 162.99C555.806 163.826 556.543 164.332 558.545 164.332C560.899 164.332 561.669 163.639 561.669 162.418ZM560.14 162.638C560.14 163.056 559.81 163.254 558.93 163.254H558.27C557.39 163.254 557.06 163.056 557.06 162.638C557.06 162.462 557.126 162.264 557.269 162.121H559.249C559.898 162.121 560.14 162.308 560.14 162.638ZM558.567 158.887C557.929 158.887 557.61 158.601 557.61 158.095V157.963C557.61 157.457 557.929 157.171 558.567 157.171C559.205 157.171 559.524 157.457 559.524 157.963V158.095C559.524 158.601 559.205 158.887 558.567 158.887ZM567.541 162V160.735H567.002V158.205C567.002 156.841 566.166 156.093 564.538 156.093C563.328 156.093 562.668 156.511 562.206 157.193L563.174 158.051C563.427 157.699 563.768 157.369 564.417 157.369C565.099 157.369 565.374 157.721 565.374 158.282V158.645H564.461C562.932 158.645 561.986 159.228 561.986 160.449C561.986 161.45 562.624 162.132 563.779 162.132C564.659 162.132 565.297 161.736 565.473 160.988H565.539C565.638 161.604 566.056 162 566.639 162H567.541ZM564.384 160.999C563.9 160.999 563.625 160.801 563.625 160.383V160.218C563.625 159.8 563.955 159.569 564.582 159.569H565.374V160.251C565.374 160.779 564.923 160.999 564.384 160.999ZM568.634 164.2H570.262V161.032H570.317C570.482 161.659 571.12 162.132 571.868 162.132C573.331 162.132 574.09 161.065 574.09 159.107C574.09 157.149 573.331 156.093 571.868 156.093C571.12 156.093 570.482 156.555 570.317 157.193H570.262V156.225H568.634V164.2ZM571.329 160.812C570.713 160.812 570.262 160.493 570.262 159.965V158.26C570.262 157.732 570.713 157.413 571.329 157.413C571.945 157.413 572.396 157.886 572.396 158.612V159.613C572.396 160.339 571.945 160.812 571.329 160.812ZM577.669 162.132C579.363 162.132 580.375 160.966 580.375 159.107C580.375 157.248 579.363 156.093 577.669 156.093C575.975 156.093 574.963 157.248 574.963 159.107C574.963 160.966 575.975 162.132 577.669 162.132ZM577.669 160.845C577.031 160.845 576.657 160.427 576.657 159.701V158.524C576.657 157.798 577.031 157.38 577.669 157.38C578.307 157.38 578.681 157.798 578.681 158.524V159.701C578.681 160.427 578.307 160.845 577.669 160.845ZM583.163 162V158.623C583.163 157.952 583.625 157.743 584.571 157.743H584.978V156.225H584.692C583.79 156.225 583.35 156.841 583.218 157.479H583.163V156.225H581.535V162H583.163ZM588.338 162.132C589.394 162.132 590.241 161.769 590.758 161.175L589.944 160.163C589.581 160.537 589.207 160.856 588.525 160.856C587.656 160.856 587.249 160.372 587.249 159.613V159.525H590.956V159.041C590.956 157.479 590.186 156.093 588.272 156.093C586.534 156.093 585.566 157.281 585.566 159.107C585.566 160.955 586.567 162.132 588.338 162.132ZM588.305 157.292C588.954 157.292 589.273 157.765 589.273 158.469V158.568H587.249V158.48C587.249 157.765 587.656 157.292 588.305 157.292ZM594.353 158.568C594.353 160.713 595.2 162.594 596.267 163.518H597.807C596.641 162.451 595.893 160.9 595.893 158.964V158.194C595.893 156.324 596.63 154.74 597.807 153.64H596.278C595.178 154.597 594.353 156.445 594.353 158.568ZM600.996 162.132C602.91 162.132 603.988 161.109 603.988 159.635C603.988 158.315 603.229 157.611 601.656 157.358L600.897 157.237C600.259 157.138 599.984 156.94 599.984 156.412C599.984 155.95 600.347 155.664 601.095 155.664C601.887 155.664 602.382 155.961 602.745 156.39L603.856 155.268C603.229 154.575 602.349 154.19 601.194 154.19C599.39 154.19 598.312 155.147 598.312 156.522C598.312 157.809 599.049 158.601 600.666 158.81L601.425 158.909C602.14 159.008 602.316 159.316 602.316 159.734C602.316 160.295 601.92 160.658 601.106 160.658C600.358 160.658 599.698 160.361 599.181 159.778L598.081 160.889C598.741 161.615 599.654 162.132 600.996 162.132ZM610.247 162H611.655V157.721H608.63V159.118H610.06V159.503C610.06 160.251 609.389 160.647 608.553 160.647C607.519 160.647 606.848 160.053 606.848 158.777V157.545C606.848 156.269 607.519 155.675 608.553 155.675C609.444 155.675 609.917 156.159 610.148 156.753L611.512 155.972C610.94 154.795 609.917 154.19 608.553 154.19C606.474 154.19 605.077 155.609 605.077 158.194C605.077 160.768 606.463 162.132 608.223 162.132C609.378 162.132 610.082 161.549 610.192 160.779H610.247V162ZM615.767 162.132C617.681 162.132 618.759 161.109 618.759 159.635C618.759 158.315 618 157.611 616.427 157.358L615.668 157.237C615.03 157.138 614.755 156.94 614.755 156.412C614.755 155.95 615.118 155.664 615.866 155.664C616.658 155.664 617.153 155.961 617.516 156.39L618.627 155.268C618 154.575 617.12 154.19 615.965 154.19C614.161 154.19 613.083 155.147 613.083 156.522C613.083 157.809 613.82 158.601 615.437 158.81L616.196 158.909C616.911 159.008 617.087 159.316 617.087 159.734C617.087 160.295 616.691 160.658 615.877 160.658C615.129 160.658 614.469 160.361 613.952 159.778L612.852 160.889C613.512 161.615 614.425 162.132 615.767 162.132ZM623.5 162V160.669H622.51V155.653H623.5V154.322H619.848V155.653H620.838V160.669H619.848V162H623.5ZM629.337 162H631.163V154.322H629.59V159.492H629.557L628.82 157.952L626.719 154.322H624.893V162H626.466V156.83H626.499L627.236 158.37L629.337 162ZM635.317 158.568C635.317 156.445 634.492 154.597 633.392 153.64H631.863C633.04 154.74 633.777 156.324 633.777 158.194V158.964C633.777 160.9 633.029 162.451 631.863 163.518H633.403C634.47 162.594 635.317 160.713 635.317 158.568Z" fill="#002245"/>
<path d="M554.671 176V175.334H551.593V173.156H554.491V172.49H551.593V170.384H554.671V169.718H550.837V176H554.671ZM560.197 170.384V169.718H555.445V170.384H557.443V176H558.199V170.384H560.197ZM565.371 176L563.175 169.718H562.212L560.016 176H560.781L561.411 174.146H563.949L564.579 176H565.371ZM563.76 173.48H561.591L562.653 170.42H562.698L563.76 173.48ZM572.624 176V175.334H571.004V169.718H569.825L568.16 171.275L568.601 171.752L570.185 170.276H570.248V175.334H568.493V176H572.624ZM577.58 169.718H574.214L573.989 173.174L574.628 173.264C574.889 172.976 575.177 172.733 575.753 172.733C576.608 172.733 577.067 173.21 577.067 174.038V174.128C577.067 174.956 576.608 175.433 575.753 175.433C574.997 175.433 574.682 175.1 574.358 174.605L573.791 175.037C574.169 175.577 574.709 176.108 575.753 176.108C577.076 176.108 577.868 175.253 577.868 174.029C577.868 172.814 577.076 172.085 575.996 172.085C575.339 172.085 575.006 172.355 574.709 172.778H574.646L574.826 170.384H577.58V169.718ZM579.223 177.359L581.572 169.34H580.924L578.575 177.359H579.223ZM582.821 169.718V170.384H584.981V174.236C584.981 175.037 584.603 175.433 583.955 175.433C583.316 175.433 582.992 175.055 582.875 174.515L582.191 174.677C582.362 175.532 582.965 176.108 583.937 176.108C584.999 176.108 585.737 175.433 585.737 174.371V169.718H582.821ZM587.319 169.718V173.426C587.319 175.253 587.877 176.108 589.551 176.108C591.225 176.108 591.837 175.253 591.837 173.426V169.718H591.081V173.606C591.081 174.803 590.694 175.433 589.578 175.433C588.462 175.433 588.075 174.803 588.075 173.606V169.718H587.319ZM597.28 176H598.153V169.718H597.415V174.947H597.388L596.632 173.552L594.337 169.718H593.464V176H594.202V170.771H594.229L594.985 172.166L597.28 176ZM599.719 177.359L602.068 169.34H601.42L599.071 177.359H599.719ZM607.233 175.334H603.93L605.622 173.813C606.423 173.093 606.999 172.409 606.999 171.437C606.999 170.366 606.297 169.61 605.073 169.61C603.858 169.61 603.3 170.348 603.057 171.086L603.732 171.347C603.903 170.753 604.263 170.285 605.037 170.285C605.811 170.285 606.198 170.762 606.198 171.455V171.563C606.198 172.166 605.748 172.796 605.163 173.336L603.111 175.226V176H607.233V175.334ZM610.532 176.108C612.035 176.108 612.692 174.911 612.692 172.859C612.692 170.807 612.035 169.61 610.532 169.61C609.029 169.61 608.372 170.807 608.372 172.859C608.372 174.911 609.029 176.108 610.532 176.108ZM610.532 175.451C609.551 175.451 609.164 174.587 609.164 173.372V172.346C609.164 171.131 609.551 170.267 610.532 170.267C611.513 170.267 611.9 171.131 611.9 172.346V173.372C611.9 174.587 611.513 175.451 610.532 175.451ZM618.026 175.334H614.723L616.415 173.813C617.216 173.093 617.792 172.409 617.792 171.437C617.792 170.366 617.09 169.61 615.866 169.61C614.651 169.61 614.093 170.348 613.85 171.086L614.525 171.347C614.696 170.753 615.056 170.285 615.83 170.285C616.604 170.285 616.991 170.762 616.991 171.455V171.563C616.991 172.166 616.541 172.796 615.956 173.336L613.904 175.226V176H618.026V175.334ZM620.29 172.382V173.039H621.028C621.91 173.039 622.378 173.462 622.378 174.2V174.272C622.378 175.01 621.91 175.433 621.028 175.433C620.263 175.433 619.894 175.1 619.57 174.605L619.003 175.037C619.39 175.577 619.948 176.108 621.037 176.108C622.315 176.108 623.17 175.361 623.17 174.281C623.17 173.336 622.522 172.832 621.847 172.697V172.661C622.513 172.49 623.053 172.004 623.053 171.194C623.053 170.177 622.207 169.61 621.145 169.61C620.137 169.61 619.588 170.132 619.273 170.636L619.831 171.068C620.092 170.591 620.479 170.285 621.127 170.285C621.793 170.285 622.252 170.618 622.252 171.275V171.338C622.252 171.941 621.82 172.382 620.974 172.382H620.29Z" fill="#5E758D"/>
<path d="M387 132.5L582 132.5" stroke="#008DE4"/>
<circle cx="392" cy="132" r="10" fill="#008DE4"/>
<path d="M389.923 134.512L387.674 132.262C387.553 132.141 387.388 132.073 387.217 132.073C387.045 132.073 386.881 132.141 386.76 132.262C386.507 132.515 386.507 132.924 386.76 133.176L389.469 135.886C389.722 136.138 390.13 136.138 390.383 135.886L397.24 129.028C397.493 128.775 397.493 128.367 397.24 128.114C397.119 127.993 396.955 127.925 396.784 127.925C396.612 127.925 396.448 127.993 396.327 128.114L389.923 134.512Z" fill="white"/>
<circle cx="588" cy="132" r="10" fill="#008DE4"/>
<path d="M585.923 134.512L583.674 132.262C583.553 132.141 583.388 132.073 583.217 132.073C583.045 132.073 582.881 132.141 582.76 132.262C582.507 132.515 582.507 132.924 582.76 133.176L585.469 135.886C585.722 136.138 586.13 136.138 586.383 135.886L593.24 129.028C593.493 128.775 593.493 128.367 593.24 128.114C593.119 127.993 592.955 127.925 592.784 127.925C592.612 127.925 592.448 127.993 592.327 128.114L585.923 134.512Z" fill="white"/>
<path d="M294.705 78.8567C294.975 78.8567 295.192 79.0752 295.192 79.3445C295.192 79.614 294.974 79.8316 294.705 79.8316C294.436 79.8316 294.217 79.6138 294.217 79.3445C294.217 79.0752 294.436 78.8567 294.705 78.8567ZM294.201 78.0353C294.032 78.0353 294.015 78.0382 293.937 78.1742L293.588 78.7788C293.518 78.8983 293.267 78.9955 293.022 78.9955H282.274C282.088 78.9955 281.938 79.1466 281.938 79.3317V81.0177C281.938 81.2222 282.069 81.3863 282.241 81.4981L283.018 82.0028C283.057 81.9687 283.107 81.926 283.183 81.8629C283.454 81.6407 283.975 81.2167 284.733 81.2167C285.489 81.2167 286.011 81.6407 286.282 81.8629C286.555 82.0871 286.521 82.1018 286.712 82.1018C286.905 82.1018 286.871 82.0871 287.143 81.8629C287.414 81.6407 287.936 81.2167 288.693 81.2167C289.449 81.2167 289.971 81.6417 290.241 81.8629C290.514 82.0871 290.48 82.1018 290.671 82.1018C290.864 82.1018 290.829 82.0871 291.102 81.8629C291.373 81.6407 291.895 81.2167 292.652 81.2167C293.41 81.2167 293.931 81.6407 294.202 81.8629C294.439 82.0574 294.451 82.0926 294.572 82.0993C295.539 81.3086 296.061 80.0241 296.061 78.8824V78.3713C296.061 78.1861 295.911 78.0352 295.726 78.0352H294.201V78.0353Z" fill="#002245"/>
<path d="M290.745 76.9099H292.905C293.124 76.9099 293.3 77.0673 293.3 77.2635V78.0109C293.3 78.2072 293.124 78.3645 292.905 78.3645H290.745C290.526 78.3645 290.349 78.2072 290.349 78.0109V77.2635C290.349 77.0671 290.526 76.9099 290.745 76.9099Z" fill="#008DE4"/>
<path d="M287.162 76.9099H289.321C289.541 76.9099 289.717 77.0672 289.717 77.2635V78.0109C289.717 78.2071 289.541 78.3645 289.321 78.3645H287.162C286.943 78.3645 286.766 78.2071 286.766 78.0109V77.2635C286.766 77.067 286.943 76.9099 287.162 76.9099Z" fill="#008DE4"/>
<path d="M290.745 74.8221H292.905C293.124 74.8221 293.3 74.9805 293.3 75.1757V75.9237C293.3 76.12 293.124 76.2773 292.905 76.2773H290.745C290.526 76.2773 290.349 76.12 290.349 75.9237V75.1757C290.349 74.9803 290.526 74.8221 290.745 74.8221Z" fill="#008DE4"/>
<path d="M287.162 74.8221H289.321C289.541 74.8221 289.717 74.9805 289.717 75.1757V75.9237C289.717 76.12 289.541 76.2773 289.321 76.2773H287.162C286.943 76.2773 286.766 76.12 286.766 75.9237V75.1757C286.766 74.9803 286.943 74.8221 287.162 74.8221Z" fill="#008DE4"/>
<path d="M284.111 72.5254C284.01 72.5254 283.929 72.6004 283.929 72.6939V72.9025C283.929 72.9949 284.01 73.0699 284.111 73.0699H284.661V73.4521H284.125C283.905 73.4521 283.787 73.6189 283.729 73.8059L282.44 78.0079C282.383 78.196 282.616 78.3615 282.836 78.3615H285.711C285.93 78.3615 286.107 78.2041 286.107 78.0079V75.4514H284.976C284.852 75.4514 284.753 75.3106 284.753 75.1355C284.753 74.9606 284.852 74.8191 284.976 74.8191H286.107V73.8059C286.107 73.6097 285.93 73.4521 285.711 73.4521H285.205V73.0699H285.755C285.855 73.0699 285.937 72.9947 285.937 72.9025V72.6939C285.937 72.6004 285.855 72.5254 285.755 72.5254H284.111Z" fill="#002245"/>
<path d="M284.732 82.2695C284.179 82.2695 283.811 82.5678 283.543 82.7881C283.274 83.0087 283.104 83.1559 282.754 83.1559C282.566 83.1529 282.413 83.304 282.413 83.4921C282.413 83.679 282.566 83.8297 282.754 83.8283C283.32 83.8283 283.697 83.5309 283.968 83.3076C284.24 83.0855 284.403 82.9419 284.732 82.9419C285.062 82.9419 285.225 83.0855 285.496 83.3076C285.768 83.5309 286.146 83.8283 286.713 83.8283C287.28 83.8283 287.656 83.5309 287.928 83.3076C288.199 83.0855 288.364 82.9419 288.693 82.9419C289.022 82.9419 289.186 83.0855 289.456 83.3076C289.728 83.5309 290.105 83.8283 290.672 83.8283C291.239 83.8283 291.618 83.5309 291.889 83.3076C292.16 83.0855 292.323 82.9419 292.653 82.9419C292.981 82.9419 293.145 83.0855 293.416 83.3076C293.687 83.5309 294.064 83.8283 294.631 83.8283C294.818 83.8299 294.972 83.6791 294.972 83.4921C294.972 83.304 294.818 83.1531 294.631 83.1559C294.28 83.1559 294.111 83.0087 293.842 82.7881C293.574 82.5678 293.206 82.2695 292.653 82.2695C292.098 82.2695 291.73 82.5678 291.462 82.7881C291.194 83.0087 291.022 83.1559 290.672 83.1559C290.321 83.1559 290.151 83.0087 289.882 82.7881C289.614 82.5678 289.247 82.2695 288.693 82.2695C288.139 82.2695 287.771 82.5678 287.502 82.7881C287.234 83.0087 287.063 83.1559 286.712 83.1559C286.362 83.1559 286.191 83.0087 285.923 82.7881C285.655 82.5678 285.286 82.2695 284.732 82.2695Z" fill="#008DE4"/>
<path fill-rule="evenodd" clip-rule="evenodd" d="M703.333 70.6667H705C705.366 70.6667 705.666 70.9667 705.666 71.3333C705.666 71.7 705.366 72 705 72H697C696.633 72 696.333 71.7 696.333 71.3333C696.333 70.9667 696.633 70.6667 697 70.6667H698.666L699.14 70.1933C699.26 70.0733 699.433 70 699.606 70H702.393C702.566 70 702.74 70.0733 702.86 70.1933L703.333 70.6667ZM698.333 82C697.6 82 697 81.4 697 80.6667V74C697 73.2667 697.6 72.6667 698.333 72.6667H703.666C704.4 72.6667 705 73.2667 705 74V80.6667C705 81.4 704.4 82 703.666 82H698.333Z" fill="#5E758D"/>
<path fill-rule="evenodd" clip-rule="evenodd" d="M686.806 71.7542C687.066 72.0142 687.066 72.4342 686.806 72.6942L685.586 73.9142L683.086 71.4142L684.306 70.1942C684.43 70.0693 684.599 69.9992 684.776 69.9992C684.952 69.9992 685.121 70.0693 685.246 70.1942L686.806 71.7542ZM674.999 81.6675V79.6408C674.999 79.5475 675.032 79.4675 675.099 79.4008L682.372 72.1275L684.872 74.6275L677.592 81.9008C677.532 81.9675 677.446 82.0008 677.359 82.0008H675.332C675.146 82.0008 674.999 81.8542 674.999 81.6675Z" fill="#5E758D"/>
<path d="M681.181 209.174H679.446C679.216 209.174 678.874 209.119 678.661 209.201C678.363 209.316 678.5 210.004 678.5 210.241C678.5 210.35 678.49 210.476 678.602 210.55C678.765 210.657 679.125 210.597 679.32 210.597H681.181V216.593C679.978 216.336 678.886 215.89 678.155 214.978C677.879 214.634 677.742 214.261 677.554 213.883C677.712 213.883 677.909 213.909 678.058 213.858C678.286 213.78 678.274 213.565 678.151 213.417C677.85 213.054 677.487 212.721 677.157 212.377C677.007 212.22 676.824 211.943 676.545 212.002C676.359 212.042 676.227 212.229 676.111 212.349C675.805 212.669 675.496 212.987 675.192 213.308C675.07 213.437 674.902 213.636 675.073 213.793C675.271 213.975 675.697 213.761 675.852 213.946C675.926 214.035 675.926 214.189 675.959 214.293C676.039 214.546 676.134 214.793 676.257 215.033C676.647 215.793 677.264 216.45 678.027 216.952C678.654 217.364 679.36 217.651 680.108 217.852C680.408 217.932 680.804 217.921 681.081 218.037C681.233 218.1 681.159 218.286 681.212 218.4C681.309 218.607 681.729 219 682.001 219C682.264 219 682.708 218.603 682.797 218.4C682.848 218.285 682.764 218.102 682.92 218.037C683.158 217.937 683.507 217.942 683.767 217.883C684.291 217.763 684.809 217.582 685.28 217.348C686.323 216.83 687.198 216.065 687.712 215.115C687.906 214.756 687.932 214.308 688.135 213.969C688.287 213.714 688.888 214.063 688.991 213.691C689.042 213.506 688.858 213.353 688.736 213.226L687.895 212.349C687.784 212.234 687.662 212.054 687.487 212.008C687.206 211.934 687.027 212.191 686.875 212.349C686.545 212.694 686.19 213.03 685.881 213.39C685.758 213.532 685.686 213.744 685.912 213.847C686.063 213.914 686.282 213.883 686.447 213.883C686.3 214.216 686.177 214.538 685.952 214.841C685.242 215.798 684.09 216.379 682.82 216.593V210.597H684.681C684.876 210.597 685.236 210.657 685.399 210.55C685.511 210.476 685.501 210.35 685.501 210.241C685.501 210.013 685.631 209.34 685.371 209.213C685.177 209.118 684.835 209.174 684.618 209.174H682.82C682.82 209.025 682.763 208.763 682.853 208.632C682.993 208.428 683.437 208.3 683.635 208.106C683.988 207.757 684.199 207.257 684.175 206.792C684.078 204.85 680.955 204.299 680.019 206.08C679.683 206.721 679.815 207.501 680.314 208.051C680.449 208.2 680.619 208.33 680.802 208.432C680.91 208.492 681.08 208.532 681.148 208.632C681.238 208.764 681.181 209.024 681.181 209.174Z" fill="#5E758D"/>
<path fill-rule="evenodd" clip-rule="evenodd" d="M705.667 206.667H705V206C705 205.633 704.7 205.333 704.333 205.333C703.967 205.333 703.667 205.633 703.667 206V206.667H698.333V206C698.333 205.633 698.033 205.333 697.667 205.333C697.3 205.333 697 205.633 697 206V206.667H696.333C695.593 206.667 695.007 207.267 695.007 208L695 217.333C695 218.067 695.593 218.667 696.333 218.667H705.667C706.4 218.667 707 218.067 707 217.333V208C707 207.267 706.4 206.667 705.667 206.667ZM705.667 216.667C705.667 217.033 705.367 217.333 705 217.333H697C696.633 217.333 696.333 217.033 696.333 216.667V210H705.667V216.667ZM700.333 211.333H698.333C697.967 211.333 697.667 211.633 697.667 212V214C697.667 214.367 697.967 214.667 698.333 214.667H700.333C700.7 214.667 701 214.367 701 214V212C701 211.633 700.7 211.333 700.333 211.333Z" fill="#5E758D"/>
<path d="M277 60.5H713C714.933 60.5 716.5 62.067 716.5 64V225C716.5 226.933 714.933 228.5 713 228.5H277C275.067 228.5 273.5 226.933 273.5 225V64C273.5 62.067 275.067 60.5 277 60.5Z" stroke="#C7D5EA"/>
<circle cx="188" cy="131" r="20" fill="#008DE4"/>
<path d="M194.976 130.003H188.997V124.024C188.997 123.76 188.892 123.506 188.705 123.32C188.518 123.133 188.265 123.028 188 123.028C187.736 123.028 187.483 123.133 187.296 123.32C187.109 123.506 187.004 123.76 187.004 124.024V130.003H181.025C180.761 130.003 180.507 130.108 180.32 130.295C180.133 130.482 180.028 130.736 180.028 131C180.028 131.264 180.133 131.518 180.32 131.704C180.507 131.891 180.761 131.996 181.025 131.996H187.004V137.975C187.004 138.24 187.109 138.493 187.296 138.68C187.483 138.867 187.736 138.972 188 138.972C188.265 138.972 188.518 138.867 188.705 138.68C188.892 138.493 188.997 138.24 188.997 137.975V131.996H194.976C195.24 131.996 195.494 131.891 195.681 131.704C195.868 131.518 195.973 131.264 195.973 131C195.973 130.736 195.868 130.482 195.681 130.295C195.494 130.108 195.24 130.003 194.976 130.003Z" fill="white"/>
<path d="M142.812 174L140.028 165.624H138.06L135.252 174H136.86L137.52 171.864H140.496L141.168 174H142.812ZM140.112 170.508H137.904L138.972 167.064H139.032L140.112 170.508ZM147.839 174H149.375V165.12H147.839V168.768H147.779C147.563 168.048 146.879 167.592 146.051 167.592C144.479 167.592 143.603 168.768 143.603 170.856C143.603 172.956 144.479 174.144 146.051 174.144C146.879 174.144 147.551 173.664 147.779 172.956H147.839V174ZM146.543 172.872C145.751 172.872 145.211 172.296 145.211 171.408V170.328C145.211 169.44 145.751 168.852 146.543 168.852C147.275 168.852 147.839 169.248 147.839 169.86V171.852C147.839 172.5 147.275 172.872 146.543 172.872ZM155.034 174H156.57V165.12H155.034V168.768H154.974C154.758 168.048 154.074 167.592 153.246 167.592C151.674 167.592 150.798 168.768 150.798 170.856C150.798 172.956 151.674 174.144 153.246 174.144C154.074 174.144 154.746 173.664 154.974 172.956H155.034V174ZM153.738 172.872C152.946 172.872 152.406 172.296 152.406 171.408V170.328C152.406 169.44 152.946 168.852 153.738 168.852C154.47 168.852 155.034 169.248 155.034 169.86V171.852C155.034 172.5 154.47 172.872 153.738 172.872ZM162.857 174V170.808H165.041C166.589 170.808 167.525 169.776 167.525 168.216C167.525 166.668 166.589 165.624 165.041 165.624H161.273V174H162.857ZM162.857 167.004H164.897C165.509 167.004 165.881 167.328 165.881 167.94V168.492C165.881 169.104 165.509 169.44 164.897 169.44H162.857V167.004ZM169.633 166.824C170.257 166.824 170.533 166.5 170.533 166.056V165.816C170.533 165.372 170.257 165.048 169.633 165.048C168.997 165.048 168.733 165.372 168.733 165.816V166.056C168.733 166.5 168.997 166.824 169.633 166.824ZM168.865 174H170.401V167.736H168.865V174ZM174.653 174.144C175.865 174.144 176.741 173.592 177.149 172.488L175.973 171.924C175.745 172.488 175.385 172.908 174.653 172.908C173.801 172.908 173.369 172.32 173.369 171.444V170.304C173.369 169.428 173.801 168.828 174.653 168.828C175.313 168.828 175.709 169.212 175.853 169.74L177.113 169.176C176.741 168.192 175.913 167.592 174.653 167.592C172.805 167.592 171.761 168.852 171.761 170.856C171.761 172.872 172.805 174.144 174.653 174.144ZM178.333 174H179.869V172.092L180.697 171.192L182.305 174H184.129L181.741 170.16L183.901 167.736H182.161L180.757 169.344L179.929 170.472H179.869V165.12H178.333V174ZM188.698 174H190.234V167.736H188.698V171.876C188.698 172.548 188.086 172.872 187.474 172.872C186.742 172.872 186.418 172.404 186.418 171.54V167.736H184.882V171.696C184.882 173.256 185.602 174.144 186.886 174.144C187.918 174.144 188.422 173.58 188.638 172.956H188.698V174ZM192.009 176.4H193.545V172.956H193.593C193.833 173.664 194.493 174.144 195.321 174.144C196.905 174.144 197.781 172.956 197.781 170.856C197.781 168.768 196.905 167.592 195.321 167.592C194.493 167.592 193.821 168.048 193.593 168.768H193.545V167.736H192.009V176.4ZM194.829 172.872C194.097 172.872 193.545 172.5 193.545 171.852V169.86C193.545 169.248 194.097 168.852 194.829 168.852C195.621 168.852 196.173 169.44 196.173 170.328V171.408C196.173 172.296 195.621 172.872 194.829 172.872ZM202.136 174H205.184C207.368 174 208.796 172.596 208.796 169.812C208.796 167.028 207.368 165.624 205.184 165.624H202.136V174ZM203.72 172.596V167.028H205.184C206.36 167.028 207.116 167.724 207.116 169.152V170.472C207.116 171.9 206.36 172.596 205.184 172.596H203.72ZM212.846 174.144C214.01 174.144 214.922 173.7 215.438 172.992L214.61 172.068C214.226 172.56 213.77 172.92 213.014 172.92C212.006 172.92 211.49 172.308 211.49 171.408V171.252H215.654V170.748C215.654 169.032 214.754 167.592 212.798 167.592C210.962 167.592 209.894 168.876 209.894 170.856C209.894 172.86 210.998 174.144 212.846 174.144ZM212.822 168.744C213.614 168.744 214.058 169.332 214.058 170.196V170.304H211.49V170.208C211.49 169.344 212.018 168.744 212.822 168.744ZM218.961 174H220.065V172.776H218.877V168.96H220.161V167.736H218.877V166.02H217.497V167.088C217.497 167.52 217.353 167.736 216.897 167.736H216.417V168.96H217.341V172.404C217.341 173.424 217.905 174 218.961 174ZM223.041 174.144C223.977 174.144 224.661 173.724 224.865 172.92H224.937C225.033 173.568 225.441 174 226.101 174H226.953V172.776H226.329V169.824C226.329 168.396 225.429 167.592 223.737 167.592C222.477 167.592 221.745 168.072 221.289 168.792L222.201 169.608C222.501 169.176 222.909 168.816 223.629 168.816C224.445 168.816 224.793 169.224 224.793 169.92V170.376H223.725C222.021 170.376 221.049 171.012 221.049 172.296C221.049 173.412 221.769 174.144 223.041 174.144ZM223.557 173.028C222.957 173.028 222.609 172.776 222.609 172.272V172.068C222.609 171.576 223.005 171.3 223.809 171.3H224.793V172.128C224.793 172.716 224.241 173.028 223.557 173.028ZM228.965 166.824C229.589 166.824 229.865 166.5 229.865 166.056V165.816C229.865 165.372 229.589 165.048 228.965 165.048C228.329 165.048 228.065 165.372 228.065 165.816V166.056C228.065 166.5 228.329 166.824 228.965 166.824ZM228.197 174H229.733V167.736H228.197V174ZM233.877 174V172.776H233.049V165.12H231.513V172.488C231.513 173.448 232.005 174 233.049 174H233.877ZM237.092 174.144C238.652 174.144 239.672 173.304 239.672 172.092C239.672 171.048 239.012 170.436 237.644 170.244L237.008 170.16C236.42 170.064 236.192 169.872 236.192 169.452C236.192 169.068 236.48 168.804 237.14 168.804C237.752 168.804 238.28 169.092 238.64 169.476L239.54 168.576C238.94 167.952 238.316 167.592 237.092 167.592C235.664 167.592 234.716 168.36 234.716 169.572C234.716 170.712 235.46 171.3 236.804 171.468L237.428 171.552C237.98 171.624 238.196 171.852 238.196 172.212C238.196 172.656 237.884 172.932 237.152 172.932C236.444 172.932 235.892 172.608 235.436 172.08L234.5 172.992C235.124 173.712 235.904 174.144 237.092 174.144Z" fill="#002245"/>
<circle cx="805.5" cy="131" r="20" fill="#008DE4"/>
<path d="M812.476 130.003H806.497V124.024C806.497 123.76 806.392 123.506 806.205 123.32C806.018 123.133 805.765 123.028 805.5 123.028C805.236 123.028 804.983 123.133 804.796 123.32C804.609 123.506 804.504 123.76 804.504 124.024V130.003H798.525C798.261 130.003 798.007 130.108 797.82 130.295C797.633 130.482 797.528 130.736 797.528 131C797.528 131.264 797.633 131.518 797.82 131.704C798.007 131.891 798.261 131.996 798.525 131.996H804.504V137.975C804.504 138.24 804.609 138.493 804.796 138.68C804.983 138.867 805.236 138.972 805.5 138.972C805.765 138.972 806.018 138.867 806.205 138.68C806.392 138.493 806.497 138.24 806.497 137.975V131.996H812.476C812.74 131.996 812.994 131.891 813.181 131.704C813.368 131.518 813.473 131.264 813.473 131C813.473 130.736 813.368 130.482 813.181 130.295C812.994 130.108 812.74 130.003 812.476 130.003Z" fill="white"/>
<path d="M756.812 174L754.028 165.624H752.06L749.252 174H750.86L751.52 171.864H754.496L755.168 174H756.812ZM754.112 170.508H751.904L752.972 167.064H753.032L754.112 170.508ZM761.839 174H763.375V165.12H761.839V168.768H761.779C761.563 168.048 760.879 167.592 760.051 167.592C758.479 167.592 757.603 168.768 757.603 170.856C757.603 172.956 758.479 174.144 760.051 174.144C760.879 174.144 761.551 173.664 761.779 172.956H761.839V174ZM760.543 172.872C759.751 172.872 759.211 172.296 759.211 171.408V170.328C759.211 169.44 759.751 168.852 760.543 168.852C761.275 168.852 761.839 169.248 761.839 169.86V171.852C761.839 172.5 761.275 172.872 760.543 172.872ZM769.034 174H770.57V165.12H769.034V168.768H768.974C768.758 168.048 768.074 167.592 767.246 167.592C765.674 167.592 764.798 168.768 764.798 170.856C764.798 172.956 765.674 174.144 767.246 174.144C768.074 174.144 768.746 173.664 768.974 172.956H769.034V174ZM767.738 172.872C766.946 172.872 766.406 172.296 766.406 171.408V170.328C766.406 169.44 766.946 168.852 767.738 168.852C768.47 168.852 769.034 169.248 769.034 169.86V171.852C769.034 172.5 768.47 172.872 767.738 172.872ZM775.273 174H778.321C780.505 174 781.933 172.596 781.933 169.812C781.933 167.028 780.505 165.624 778.321 165.624H775.273V174ZM776.857 172.596V167.028H778.321C779.497 167.028 780.253 167.724 780.253 169.152V170.472C780.253 171.9 779.497 172.596 778.321 172.596H776.857ZM785.983 174.144C787.147 174.144 788.059 173.7 788.575 172.992L787.747 172.068C787.363 172.56 786.907 172.92 786.151 172.92C785.143 172.92 784.627 172.308 784.627 171.408V171.252H788.791V170.748C788.791 169.032 787.891 167.592 785.935 167.592C784.099 167.592 783.031 168.876 783.031 170.856C783.031 172.86 784.135 174.144 785.983 174.144ZM785.959 168.744C786.751 168.744 787.195 169.332 787.195 170.196V170.304H784.627V170.208C784.627 169.344 785.155 168.744 785.959 168.744ZM792.506 174V172.776H791.678V165.12H790.142V172.488C790.142 173.448 790.634 174 791.678 174H792.506ZM794.437 166.824C795.061 166.824 795.337 166.5 795.337 166.056V165.816C795.337 165.372 795.061 165.048 794.437 165.048C793.801 165.048 793.537 165.372 793.537 165.816V166.056C793.537 166.5 793.801 166.824 794.437 166.824ZM793.669 174H795.205V167.736H793.669V174ZM800.154 174L802.254 167.736H800.79L799.938 170.436L799.326 172.668H799.242L798.63 170.436L797.754 167.736H796.242L798.33 174H800.154ZM805.717 174.144C806.881 174.144 807.793 173.7 808.309 172.992L807.481 172.068C807.097 172.56 806.641 172.92 805.885 172.92C804.877 172.92 804.361 172.308 804.361 171.408V171.252H808.525V170.748C808.525 169.032 807.625 167.592 805.669 167.592C803.833 167.592 802.765 168.876 802.765 170.856C802.765 172.86 803.869 174.144 805.717 174.144ZM805.693 168.744C806.485 168.744 806.929 169.332 806.929 170.196V170.304H804.361V170.208C804.361 169.344 804.889 168.744 805.693 168.744ZM811.412 174V170.16C811.412 169.476 811.952 169.188 812.984 169.188H813.464V167.736H813.128C812.132 167.736 811.628 168.372 811.472 169.032H811.412V167.736H809.876V174H811.412ZM817.429 171.048L816.997 172.632H816.925L816.517 171.048L815.425 167.736H813.901L816.145 174.3L815.857 175.176H814.729V176.4H815.653C816.685 176.4 817.129 176.016 817.441 175.116L819.961 167.736H818.521L817.429 171.048ZM823.906 174H826.954C829.138 174 830.566 172.596 830.566 169.812C830.566 167.028 829.138 165.624 826.954 165.624H823.906V174ZM825.49 172.596V167.028H826.954C828.13 167.028 828.886 167.724 828.886 169.152V170.472C828.886 171.9 828.13 172.596 826.954 172.596H825.49ZM834.615 174.144C835.779 174.144 836.691 173.7 837.207 172.992L836.379 172.068C835.995 172.56 835.539 172.92 834.783 172.92C833.775 172.92 833.259 172.308 833.259 171.408V171.252H837.423V170.748C837.423 169.032 836.523 167.592 834.567 167.592C832.731 167.592 831.663 168.876 831.663 170.856C831.663 172.86 832.767 174.144 834.615 174.144ZM834.591 168.744C835.383 168.744 835.827 169.332 835.827 170.196V170.304H833.259V170.208C833.259 169.344 833.787 168.744 834.591 168.744ZM840.731 174H841.835V172.776H840.647V168.96H841.931V167.736H840.647V166.02H839.267V167.088C839.267 167.52 839.123 167.736 838.667 167.736H838.187V168.96H839.111V172.404C839.111 173.424 839.675 174 840.731 174ZM844.811 174.144C845.747 174.144 846.431 173.724 846.635 172.92H846.707C846.803 173.568 847.211 174 847.871 174H848.723V172.776H848.099V169.824C848.099 168.396 847.199 167.592 845.507 167.592C844.247 167.592 843.515 168.072 843.059 168.792L843.971 169.608C844.271 169.176 844.679 168.816 845.399 168.816C846.215 168.816 846.563 169.224 846.563 169.92V170.376H845.495C843.791 170.376 842.819 171.012 842.819 172.296C842.819 173.412 843.539 174.144 844.811 174.144ZM845.327 173.028C844.727 173.028 844.379 172.776 844.379 172.272V172.068C844.379 171.576 844.775 171.3 845.579 171.3H846.563V172.128C846.563 172.716 846.011 173.028 845.327 173.028ZM850.734 166.824C851.358 166.824 851.634 166.5 851.634 166.056V165.816C851.634 165.372 851.358 165.048 850.734 165.048C850.098 165.048 849.834 165.372 849.834 165.816V166.056C849.834 166.5 850.098 166.824 850.734 166.824ZM849.966 174H851.502V167.736H849.966V174ZM855.647 174V172.776H854.819V165.12H853.283V172.488C853.283 173.448 853.775 174 854.819 174H855.647ZM858.862 174.144C860.422 174.144 861.442 173.304 861.442 172.092C861.442 171.048 860.782 170.436 859.414 170.244L858.778 170.16C858.19 170.064 857.962 169.872 857.962 169.452C857.962 169.068 858.25 168.804 858.91 168.804C859.522 168.804 860.05 169.092 860.41 169.476L861.31 168.576C860.71 167.952 860.086 167.592 858.862 167.592C857.434 167.592 856.486 168.36 856.486 169.572C856.486 170.712 857.23 171.3 858.574 171.468L859.198 171.552C859.75 171.624 859.966 171.852 859.966 172.212C859.966 172.656 859.654 172.932 858.922 172.932C858.214 172.932 857.662 172.608 857.206 172.08L856.27 172.992C856.894 173.712 857.674 174.144 858.862 174.144Z" fill="#002245"/>
</g>
<defs>
<clipPath id="clip0_437_6382">
<rect width="989" height="240" fill="white"/>
</clipPath>
</defs>
</svg>
