<svg width="68" height="32" viewBox="0 0 68 32" fill="none" xmlns="http://www.w3.org/2000/svg">
<rect width="68" height="32" rx="3" fill="#0067E7"/>
<path d="M22.3865 21.168C24.8225 21.168 26.1945 19.866 26.1945 17.99C26.1945 16.31 25.2285 15.414 23.2265 15.092L22.2605 14.938C21.4485 14.812 21.0985 14.56 21.0985 13.888C21.0985 13.3 21.5605 12.936 22.5125 12.936C23.5205 12.936 24.1505 13.314 24.6125 13.86L26.0265 12.432C25.2285 11.55 24.1085 11.06 22.6385 11.06C20.3425 11.06 18.9705 12.278 18.9705 14.028C18.9705 15.666 19.9085 16.674 21.9665 16.94L22.9325 17.066C23.8425 17.192 24.0665 17.584 24.0665 18.116C24.0665 18.83 23.5625 19.292 22.5265 19.292C21.5745 19.292 20.7345 18.914 20.0765 18.172L18.6765 19.586C19.5165 20.51 20.6785 21.168 22.3865 21.168ZM34.4269 21V19.39H33.7409V16.17C33.7409 14.434 32.6769 13.482 30.6049 13.482C29.0649 13.482 28.2249 14.014 27.6369 14.882L28.8689 15.974C29.1909 15.526 29.6249 15.106 30.4509 15.106C31.3189 15.106 31.6689 15.554 31.6689 16.268V16.73H30.5069C28.5609 16.73 27.3569 17.472 27.3569 19.026C27.3569 20.3 28.1689 21.168 29.6389 21.168C30.7589 21.168 31.5709 20.664 31.7949 19.712H31.8789C32.0049 20.496 32.5369 21 33.2789 21H34.4269ZM30.4089 19.726C29.7929 19.726 29.4429 19.474 29.4429 18.942V18.732C29.4429 18.2 29.8629 17.906 30.6609 17.906H31.6689V18.774C31.6689 19.446 31.0949 19.726 30.4089 19.726ZM39.7128 21L42.1208 13.65H40.1608L39.2788 16.618L38.5928 19.278H38.4808L37.7948 16.618L36.8848 13.65H34.8408L37.2488 21H39.7128ZM46.1707 21.168C47.5147 21.168 48.5927 20.706 49.2507 19.95L48.2147 18.662C47.7527 19.138 47.2767 19.544 46.4087 19.544C45.3027 19.544 44.7847 18.928 44.7847 17.962V17.85H49.5027V17.234C49.5027 15.246 48.5227 13.482 46.0867 13.482C43.8747 13.482 42.6427 14.994 42.6427 17.318C42.6427 19.67 43.9167 21.168 46.1707 21.168ZM46.1287 15.008C46.9547 15.008 47.3607 15.61 47.3607 16.506V16.632H44.7847V16.52C44.7847 15.61 45.3027 15.008 46.1287 15.008Z" fill="white"/>
</svg>
