<svg width="48" height="836" viewBox="0 0 48 836" fill="none" xmlns="http://www.w3.org/2000/svg">
<g clip-path="url(#clip0_406_23050)">
<mask id="path-1-inside-1_406_23050" fill="white">
<path d="M0 0H48V836H0V0Z"/>
</mask>
<path d="M0 0H48V836H0V0Z" fill="#F7FAFD"/>
<mask id="mask0_406_23050" style="mask-type:alpha" maskUnits="userSpaceOnUse" x="14" y="10" width="20" height="20">
<rect x="14" y="10" width="20" height="20" fill="#D9D9D9"/>
</mask>
<g mask="url(#mask0_406_23050)">
<path d="M18.771 24.396C18.6043 24.2293 18.521 24.028 18.521 23.792C18.521 23.556 18.6043 23.3547 18.771 23.188L21.958 20L18.771 16.812C18.6043 16.6453 18.521 16.444 18.521 16.208C18.521 15.972 18.6043 15.7707 18.771 15.604C18.9377 15.4373 19.139 15.354 19.375 15.354C19.611 15.354 19.8123 15.4373 19.979 15.604L23.75 19.375C23.8333 19.4583 23.8993 19.5557 23.948 19.667C23.9967 19.7777 24.021 19.8887 24.021 20C24.021 20.1113 23.9967 20.2223 23.948 20.333C23.8993 20.4443 23.8333 20.5417 23.75 20.625L19.979 24.396C19.8123 24.5627 19.611 24.646 19.375 24.646C19.139 24.646 18.9377 24.5627 18.771 24.396ZM23.729 24.396C23.5623 24.2293 23.479 24.028 23.479 23.792C23.479 23.556 23.5623 23.3547 23.729 23.188L26.917 20L23.729 16.812C23.5623 16.6453 23.479 16.444 23.479 16.208C23.479 15.972 23.5623 15.7707 23.729 15.604C23.8957 15.4373 24.097 15.354 24.333 15.354C24.5697 15.354 24.7713 15.4373 24.938 15.604L28.708 19.375C28.7913 19.4583 28.8573 19.5557 28.906 19.667C28.9547 19.7777 28.979 19.8887 28.979 20C28.979 20.1113 28.9547 20.2223 28.906 20.333C28.8573 20.4443 28.7913 20.5417 28.708 20.625L24.938 24.396C24.7713 24.5627 24.5697 24.646 24.333 24.646C24.097 24.646 23.8957 24.5627 23.729 24.396Z" fill="#5E758D"/>
</g>
<rect width="48" height="40" transform="translate(0 40)" fill="#008DE4" fill-opacity="0.08"/>
<g clip-path="url(#clip1_406_23050)">
<path fill-rule="evenodd" clip-rule="evenodd" d="M26.2057 60.6746L26.1867 56.877L22.6116 58.1581L26.2057 60.6746Z" fill="#008DE4"/>
<path fill-rule="evenodd" clip-rule="evenodd" d="M21.7943 59.3253L21.8132 63.123L25.3883 61.8419L21.7943 59.3253Z" fill="#008DE4"/>
<path fill-rule="evenodd" clip-rule="evenodd" d="M29.7357 51.8085C28.1156 50.6741 26.1955 50.0455 24.2181 50.0024C22.2408 49.9592 20.2951 50.5034 18.627 51.5661C16.9589 52.6288 15.6434 54.1622 14.8469 55.9725C14.0503 57.7828 13.8085 59.7887 14.1519 61.7365C14.4954 63.6842 15.4087 65.4864 16.7764 66.9151C18.144 68.3438 19.9047 69.3348 21.8356 69.7629C23.7665 70.191 25.781 70.0369 27.6244 69.32C29.4677 68.6032 31.0571 67.3559 32.1915 65.7357C33.7127 63.5632 34.3086 60.8754 33.848 58.2635C33.3875 55.6516 31.9083 53.3297 29.7357 51.8085ZM26.2115 63.0744L22.2902 64.4794C22.0753 64.5571 21.8448 64.582 21.6182 64.552C21.3915 64.5219 21.1755 64.4377 20.9882 64.3066C20.801 64.1755 20.648 64.0013 20.5423 63.7986C20.4365 63.596 20.3811 63.3708 20.3806 63.1422L20.3597 58.977C20.3544 58.5285 20.49 58.0897 20.7472 57.7224C21.0045 57.355 21.3704 57.0776 21.7936 56.9291L25.7148 55.5241C25.9298 55.4464 26.1603 55.4215 26.3869 55.4516C26.6135 55.4817 26.8296 55.5658 27.0168 55.6969C27.2041 55.828 27.3571 56.0023 27.4628 56.2049C27.5686 56.4076 27.624 56.6327 27.6245 56.8613L27.6403 61.023C27.6457 61.4712 27.5109 61.9099 27.2547 62.2777C26.9985 62.6456 26.6338 62.9241 26.2115 63.0744Z" fill="#002245"/>
</g>
<path d="M15 102.144C15 101.423 15.58 100.843 16.3009 100.843L21.8573 100.844C22.5782 100.844 23.1568 101.423 23.1568 102.144V107.699C23.1568 108.42 22.5782 109 21.8573 109H16.3009C15.58 109 15 108.42 15 107.699V102.144Z" fill="#ABBAD0"/>
<path d="M26.1441 100.828C25.4232 100.828 24.8432 101.409 24.8432 102.13V107.684C24.8432 108.405 25.4232 108.986 26.1441 108.986H31.7005C32.4214 108.986 33 108.405 33 107.684V102.13C33 101.409 32.4214 100.828 31.7005 100.828H29.7533V102.798C29.7533 102.949 29.585 103.071 29.375 103.071H28.4698C28.2596 103.071 28.0899 102.949 28.0899 102.798V100.828H26.1441Z" fill="#C7D5EA"/>
<path d="M15 92.3009C15 91.58 15.58 91 16.3009 91L21.8573 91.0003C22.5782 91.0003 23.1568 91.5803 23.1568 92.3012V97.8559C23.1568 98.5768 22.5782 99.1568 21.8573 99.1568H16.3009C15.58 99.1568 15 98.5768 15 97.8559V92.3009Z" fill="#ABBAD0"/>
<path d="M24.8432 92.3009C24.8432 91.58 25.4232 91 26.1441 91L31.7005 91.0003C32.4214 91.0003 33 91.5803 33 92.3012V97.8559C33 98.5768 32.4214 99.1568 31.7005 99.1568H26.1441C25.4232 99.1568 24.8432 98.5768 24.8432 97.8559V92.3009Z" fill="#ABBAD0"/>
<path fill-rule="evenodd" clip-rule="evenodd" d="M17 163.144H31C31 163.901 30.7049 164.628 30.1795 165.163C29.6542 165.699 28.9417 166 28.1988 166H19.8012C19.0583 166 18.3458 165.699 17.8205 165.163C17.2951 164.628 17 163.901 17 163.144Z" fill="#C7D5EA"/>
<path fill-rule="evenodd" clip-rule="evenodd" d="M29.8047 149.826L24.7968 146.257C24.5613 146.09 24.281 146 23.9939 146C23.7067 146 23.4264 146.09 23.1909 146.257L18.1891 149.826C17.8211 150.091 17.5209 150.442 17.3139 150.85C17.1069 151.258 16.9993 151.71 17 152.169V161.719H31V152.169C30.9995 151.71 30.8907 151.257 30.6827 150.849C30.4747 150.441 30.1736 150.09 29.8047 149.826ZM26.3292 157.988C26.1476 158.174 25.9318 158.322 25.6941 158.422C25.4563 158.523 25.2014 158.575 24.944 158.575H24.6988V159.575H23.3012V158.575H21.4623V157.144H24.9317C25.0805 157.144 25.2231 157.084 25.3283 156.977C25.4335 156.869 25.4926 156.724 25.4926 156.572C25.4926 156.421 25.4335 156.275 25.3283 156.168C25.2231 156.061 25.0805 156.001 24.9317 156.001H23.0928C22.5726 156.001 22.0737 155.79 21.7059 155.415C21.338 155.04 21.1314 154.531 21.1314 154.001C21.1314 153.47 21.338 152.962 21.7059 152.586C22.0737 152.211 22.5726 152.001 23.0928 152.001H23.3074V151.001H24.7049V152.001H26.5438V153.426H23.0806C22.9318 153.426 22.7892 153.486 22.684 153.593C22.5788 153.7 22.5197 153.846 22.5197 153.997C22.5197 154.149 22.5788 154.295 22.684 154.402C22.7892 154.509 22.9318 154.569 23.0806 154.569H24.9194C25.3069 154.57 25.6855 154.688 26.0074 154.907C26.3294 155.127 26.5803 155.439 26.7284 155.804C26.8766 156.169 26.9155 156.571 26.8401 156.958C26.7646 157.346 26.5784 157.702 26.3047 157.982L26.3292 157.988Z" fill="#ABBAD0"/>
<path fill-rule="evenodd" clip-rule="evenodd" d="M26.8592 191.952C26.9836 192.072 27.1518 192.14 27.3277 192.141H32V203.712C32.0008 203.881 31.9667 204.049 31.8999 204.206C31.833 204.362 31.7347 204.505 31.6105 204.624C31.4863 204.744 31.3387 204.839 31.1763 204.903C31.0139 204.968 30.8399 205.001 30.6642 205H17.3299C16.9771 204.997 16.6398 204.86 16.3909 204.619C16.1419 204.378 16.0015 204.052 16 203.712V188.288C16.0015 187.948 16.1419 187.622 16.3909 187.381C16.6398 187.14 16.9771 187.003 17.3299 187H26.6628V191.5C26.6643 191.67 26.7348 191.832 26.8592 191.952ZM18.5263 202.206H29.4737V200.756H18.5263V202.206ZM18.5263 199.566H29.4737V198.278H18.5263V199.566ZM24.8421 196.995L29.4737 196.995V195.707L24.8421 195.707V196.995ZM22.3351 194.788C22.202 194.93 22.0438 195.043 21.8696 195.12C21.6954 195.197 21.5087 195.237 21.32 195.237H21.1403V196H20.1163V195.237H18.7689V194.144H21.311C21.42 194.144 21.5245 194.098 21.6016 194.016C21.6787 193.934 21.722 193.823 21.722 193.708C21.722 193.592 21.6787 193.481 21.6016 193.399C21.5245 193.317 21.42 193.271 21.311 193.271H19.9636C19.5824 193.271 19.2168 193.11 18.9473 192.824C18.6777 192.538 18.5263 192.149 18.5263 191.745C18.5263 191.34 18.6777 190.951 18.9473 190.665C19.2168 190.379 19.5824 190.218 19.9636 190.218H20.1208V189.455H21.1448V190.218H22.4923V191.306H19.9546C19.8456 191.306 19.7411 191.352 19.664 191.433C19.5869 191.515 19.5436 191.626 19.5436 191.742C19.5436 191.858 19.5869 191.969 19.664 192.051C19.7411 192.133 19.8456 192.179 19.9546 192.179H21.302C21.5859 192.179 21.8633 192.269 22.0992 192.437C22.3352 192.605 22.519 192.843 22.6276 193.121C22.7362 193.4 22.7646 193.707 22.7094 194.002C22.6541 194.298 22.5176 194.57 22.3171 194.783L22.3351 194.788Z" fill="#ABBAD0"/>
<path fill-rule="evenodd" clip-rule="evenodd" d="M31.3289 190.858H27.9983V187.641L31.3289 190.858Z" fill="#C7D5EA"/>
<path d="M29.3693 235.795C29.6442 235.795 29.8534 235.977 29.8534 236.204V241.695C29.8534 241.92 29.6442 242.102 29.3693 242.102C29.0946 242.102 28.8855 241.92 28.8855 241.695V236.203C28.8855 235.977 29.0946 235.795 29.3693 235.795ZM25.79 235.795C26.0647 235.795 26.2738 235.977 26.2738 236.204V241.695C26.2738 241.92 26.0647 242.102 25.79 242.102C25.5149 242.102 25.3057 241.92 25.3057 241.695V236.203C25.3057 235.977 25.5149 235.795 25.79 235.795ZM22.2116 235.795C22.4861 235.795 22.6943 235.977 22.6943 236.204V241.695C22.6943 241.92 22.4861 242.102 22.2116 242.102C21.9365 242.102 21.7273 241.92 21.7273 241.695V236.203C21.7273 235.977 21.9365 235.795 22.2116 235.795ZM18.6318 235.795C18.9065 235.795 19.1159 235.977 19.1159 236.204V241.695C19.1159 241.92 18.9065 242.102 18.6318 242.102C18.3571 242.102 18.1478 241.92 18.1478 241.695V236.203C18.1478 235.977 18.3574 235.795 18.6318 235.795ZM15.7028 233.897C15.3117 233.91 15 234.247 15 234.667V235.618C15 235.814 15.1164 235.951 15.195 236.074L15.7028 236.873V241.024L15.195 241.824C15.1164 241.947 15 242.083 15 242.278V243.231C15 243.651 15.3117 243.988 15.7028 244H32.2986C32.6886 243.988 33 243.651 33 243.231V242.278C33 242.083 32.8833 241.947 32.8061 241.824L32.2983 241.024V236.873L32.8061 236.074C32.8831 235.951 33 235.814 33 235.618V234.667C33 234.247 32.6883 233.91 32.2986 233.897H15.7028Z" fill="#ABBAD0"/>
<path d="M25.7031 226C25.7031 226.534 25.4165 227.027 24.9505 227.294C24.8519 227.35 24.7471 227.395 24.6388 227.427V227.77C24.6388 227.86 24.708 227.902 24.7793 227.941C25.0434 228.086 25.2489 228.325 25.3608 228.617C25.4679 228.895 25.4773 229.193 25.4026 229.469L30.9029 232.261C31.4582 232.548 30.9679 233.363 30.4508 233.014L24.9003 230.192C24.5541 230.435 24.0988 230.494 23.7038 230.317C23.6278 230.285 23.5588 230.241 23.4922 230.194L17.9446 233.014C17.4323 233.345 16.9541 232.553 17.4905 232.261L22.9905 229.469C22.9597 229.353 22.9419 229.233 22.9419 229.109C22.9311 228.513 23.8374 228.513 23.8267 229.109C23.8267 229.301 23.9351 229.459 24.0669 229.518C24.1991 229.577 24.3324 229.552 24.4454 229.431C24.5582 229.309 24.5998 229.102 24.5333 228.928C24.4941 228.825 24.4249 228.75 24.35 228.709C24.2584 228.658 24.1265 228.575 23.9993 228.425C23.8732 228.275 23.7543 228.045 23.7543 227.77V227.427C23.6463 227.394 23.5426 227.349 23.4442 227.294C22.9777 227.027 22.6912 226.534 22.6912 226H25.7031Z" fill="#C7D5EA"/>
<path d="M19.4301 287.43H28.5751V289.715H19.4301V287.43Z" fill="#C7D5EA"/>
<path d="M26.285 293.145H28.57V296.575H26.285V293.145Z" fill="#C7D5EA"/>
<path fill-rule="evenodd" clip-rule="evenodd" d="M31.33 284.67C30.9018 284.241 30.3209 284 29.715 284H18.285C17.9849 284 17.6878 284.059 17.4106 284.174C17.1333 284.289 16.8814 284.457 16.6693 284.669C16.2407 285.098 16 285.679 16 286.285V297.715C16 298.321 16.2407 298.902 16.6693 299.331C16.8814 299.543 17.1333 299.711 17.4106 299.826C17.6878 299.941 17.9849 300 18.285 300H29.715C30.0151 300 30.3122 299.941 30.5894 299.826C30.8667 299.711 31.1186 299.543 31.3307 299.331C31.5429 299.119 31.7112 298.867 31.8261 298.589C31.9409 298.312 32 298.015 32 297.715V286.285C31.9996 285.679 31.7586 285.098 31.33 284.67ZM19.43 297.715C19.3173 297.715 19.2071 297.682 19.1133 297.619C19.0196 297.556 18.9465 297.467 18.9034 297.363C18.8602 297.259 18.849 297.144 18.871 297.034C18.8929 296.923 18.9472 296.822 19.0269 296.742C19.1067 296.662 19.2082 296.608 19.3188 296.586C19.4294 296.564 19.544 296.575 19.6481 296.618C19.7523 296.662 19.8413 296.735 19.9039 296.828C19.9666 296.922 20 297.032 20 297.145C20 297.296 19.9399 297.441 19.8331 297.548C19.7262 297.655 19.5812 297.715 19.43 297.715ZM19.43 295.43C19.3175 295.43 19.2075 295.397 19.1139 295.334C19.0202 295.272 18.9472 295.183 18.9039 295.079C18.8606 294.975 18.849 294.861 18.8706 294.751C18.8922 294.64 18.946 294.539 19.0252 294.459C19.1044 294.379 19.2055 294.324 19.3158 294.302C19.426 294.279 19.5405 294.29 19.6447 294.332C19.7489 294.374 19.8383 294.447 19.9015 294.54C19.9647 294.633 19.999 294.742 20 294.855C20.0007 294.93 19.9864 295.005 19.9581 295.075C19.9297 295.144 19.8878 295.208 19.8348 295.261C19.7818 295.315 19.7188 295.357 19.6493 295.386C19.5798 295.415 19.5053 295.43 19.43 295.43ZM19.43 293.145C19.3175 293.145 19.2075 293.112 19.1139 293.049C19.0202 292.987 18.9472 292.898 18.9039 292.794C18.8606 292.69 18.849 292.576 18.8706 292.466C18.8922 292.355 18.946 292.254 19.0252 292.174C19.1044 292.094 19.2055 292.039 19.3158 292.017C19.426 291.994 19.5405 292.005 19.6447 292.047C19.7489 292.089 19.8383 292.162 19.9015 292.255C19.9647 292.348 19.999 292.457 20 292.57C20.0007 292.645 19.9864 292.72 19.9581 292.79C19.9297 292.859 19.8878 292.923 19.8348 292.976C19.7818 293.03 19.7188 293.072 19.6493 293.101C19.5798 293.13 19.5053 293.145 19.43 293.145ZM21.43 297.715C21.3173 297.715 21.2071 297.682 21.1133 297.619C21.0196 297.556 20.9465 297.467 20.9034 297.363C20.8602 297.259 20.849 297.144 20.871 297.034C20.8929 296.923 20.9472 296.822 21.0269 296.742C21.1067 296.662 21.2082 296.608 21.3188 296.586C21.4294 296.564 21.544 296.575 21.6481 296.618C21.7523 296.662 21.8413 296.735 21.9039 296.828C21.9666 296.922 22 297.032 22 297.145C22 297.296 21.9399 297.441 21.8331 297.548C21.7262 297.655 21.5812 297.715 21.43 297.715ZM21.43 295.43C21.3175 295.43 21.2075 295.397 21.1139 295.334C21.0202 295.272 20.9472 295.183 20.9039 295.079C20.8606 294.975 20.849 294.861 20.8706 294.751C20.8922 294.64 20.946 294.539 21.0252 294.459C21.1044 294.379 21.2055 294.324 21.3158 294.302C21.426 294.279 21.5405 294.29 21.6447 294.332C21.7489 294.374 21.8383 294.447 21.9015 294.54C21.9647 294.633 21.999 294.742 22 294.855C22.0007 294.93 21.9864 295.005 21.9581 295.075C21.9297 295.144 21.8878 295.208 21.8348 295.261C21.7818 295.315 21.7188 295.357 21.6493 295.386C21.5798 295.415 21.5053 295.43 21.43 295.43ZM21.43 293.145C21.3175 293.145 21.2075 293.112 21.1139 293.049C21.0202 292.987 20.9472 292.898 20.9039 292.794C20.8606 292.69 20.849 292.576 20.8706 292.466C20.8922 292.355 20.946 292.254 21.0252 292.174C21.1044 292.094 21.2055 292.039 21.3158 292.017C21.426 291.994 21.5405 292.005 21.6447 292.047C21.7489 292.089 21.8383 292.162 21.9015 292.255C21.9647 292.348 21.999 292.457 22 292.57C22.0007 292.645 21.9864 292.72 21.9581 292.79C21.9297 292.859 21.8878 292.923 21.8348 292.976C21.7818 293.03 21.7188 293.072 21.6493 293.101C21.5798 293.13 21.5053 293.145 21.43 293.145ZM23.43 297.715C23.3173 297.715 23.2071 297.682 23.1133 297.619C23.0196 297.556 22.9465 297.467 22.9034 297.363C22.8602 297.259 22.849 297.144 22.871 297.034C22.8929 296.923 22.9472 296.822 23.0269 296.742C23.1067 296.662 23.2082 296.608 23.3188 296.586C23.4294 296.564 23.544 296.575 23.6481 296.618C23.7523 296.662 23.8413 296.735 23.9039 296.828C23.9666 296.922 24 297.032 24 297.145C24 297.296 23.9399 297.441 23.8331 297.548C23.7262 297.655 23.5812 297.715 23.43 297.715ZM23.43 295.43C23.3175 295.43 23.2075 295.397 23.1139 295.334C23.0202 295.272 22.9472 295.183 22.9039 295.079C22.8606 294.975 22.849 294.861 22.8706 294.751C22.8922 294.64 22.946 294.539 23.0252 294.459C23.1044 294.379 23.2055 294.324 23.3158 294.302C23.426 294.279 23.5405 294.29 23.6447 294.332C23.7489 294.374 23.8383 294.447 23.9015 294.54C23.9647 294.633 23.999 294.742 24 294.855C24.0007 294.93 23.9864 295.005 23.9581 295.075C23.9297 295.144 23.8878 295.208 23.8348 295.261C23.7818 295.315 23.7188 295.357 23.6493 295.386C23.5798 295.415 23.5053 295.43 23.43 295.43ZM23.43 293.145C23.3175 293.145 23.2075 293.112 23.1139 293.049C23.0202 292.987 22.9472 292.898 22.9039 292.794C22.8606 292.69 22.849 292.576 22.8706 292.466C22.8922 292.355 22.946 292.254 23.0252 292.174C23.1044 292.094 23.2055 292.039 23.3158 292.017C23.426 291.994 23.5405 292.005 23.6447 292.047C23.7489 292.089 23.8383 292.162 23.9015 292.255C23.9647 292.348 23.999 292.457 24 292.57C24.0007 292.645 23.9864 292.72 23.9581 292.79C23.9297 292.859 23.8878 292.923 23.8348 292.976C23.7818 293.03 23.7188 293.072 23.6493 293.101C23.5798 293.13 23.5053 293.145 23.43 293.145ZM29.715 296.575C29.715 296.879 29.5944 297.17 29.3796 297.385C29.1649 297.599 28.8737 297.72 28.57 297.72H26.285C25.9813 297.72 25.6901 297.599 25.4754 297.385C25.2606 297.17 25.14 296.879 25.14 296.575V293.145C25.14 292.841 25.2606 292.55 25.4754 292.335C25.6901 292.121 25.9813 292 26.285 292H28.57C28.8737 292 29.1649 292.121 29.3796 292.335C29.5944 292.55 29.715 292.841 29.715 293.145V296.575ZM29.715 289.72C29.715 290.024 29.5944 290.315 29.3796 290.53C29.1649 290.744 28.8737 290.865 28.57 290.865H19.43C19.1263 290.865 18.8351 290.744 18.6204 290.53C18.4056 290.315 18.285 290.024 18.285 289.72V287.43C18.285 287.126 18.4056 286.835 18.6204 286.62C18.8351 286.406 19.1263 286.285 19.43 286.285H28.57C28.8737 286.285 29.1649 286.406 29.3796 286.62C29.5944 286.835 29.715 287.126 29.715 287.43V289.72Z" fill="#ABBAD0"/>
<path d="M23.2643 325.223C23.2643 324.808 22.9273 324.468 22.514 324.505C21.1443 324.63 19.8231 325.096 18.6729 325.864C17.3139 326.772 16.2546 328.063 15.6291 329.573C15.0036 331.083 14.8399 332.745 15.1588 334.348C15.4777 335.951 16.2648 337.424 17.4206 338.579C18.5764 339.735 20.0489 340.522 21.652 340.841C23.2552 341.16 24.9168 340.996 26.427 340.371C27.9371 339.745 29.2278 338.686 30.1359 337.327C30.9044 336.177 31.3697 334.856 31.4945 333.486C31.5322 333.073 31.1923 332.736 30.7774 332.736H24.0156C23.6007 332.736 23.2643 332.399 23.2643 331.984V325.223Z" fill="#ABBAD0"/>
<path d="M32.28 331.233C32.6949 331.233 33.0348 330.896 32.9971 330.483C32.9217 329.655 32.7215 328.841 32.4022 328.07C31.9869 327.068 31.3781 326.157 30.6107 325.389C29.8433 324.622 28.9322 324.013 27.9296 323.598C27.1587 323.279 26.3453 323.078 25.5172 323.003C25.104 322.965 24.7669 323.305 24.7669 323.72V330.482C24.7669 330.897 25.1033 331.233 25.5182 331.233L32.28 331.233Z" fill="#C7D5EA"/>
<g clip-path="url(#clip2_406_23050)">
<path fill-rule="evenodd" clip-rule="evenodd" d="M27.125 389.667C26.4054 389.666 25.7083 389.416 25.1512 388.961C24.594 388.505 24.2109 387.872 24.0663 387.167H22.9586V385.379C23.5687 385.131 24 384.532 24 383.834C24 382.915 23.2525 382.168 22.3338 382.168C21.415 382.168 20.6675 382.915 20.6675 383.834C20.6675 384.532 21.0987 385.131 21.7086 385.379V387.167H17.9575C16.6913 387.167 15.6663 388.192 15.6663 389.458V391.96H15.25V391.126C15.25 390.96 15.1842 390.801 15.0669 390.684C14.9497 390.567 14.7908 390.501 14.625 390.501C14.4592 390.501 14.3003 390.567 14.1831 390.684C14.0658 390.801 14 390.96 14 391.126V394.042C14 394.208 14.0658 394.367 14.1831 394.484C14.3003 394.601 14.4592 394.667 14.625 394.667C14.7908 394.667 14.9497 394.601 15.0669 394.484C15.1842 394.367 15.25 394.208 15.25 394.042V393.21H15.6663V395.709C15.6663 396.975 16.6913 398 17.9575 398H26.7075C27.0085 398.001 27.3067 397.942 27.585 397.827C27.8633 397.712 28.1161 397.544 28.3291 397.331C28.5421 397.118 28.711 396.866 28.8261 396.587C28.9412 396.309 29.0003 396.011 29 395.71V393.21H29.4162V394.042C29.4162 394.208 29.4821 394.367 29.5993 394.484C29.7165 394.601 29.8755 394.667 30.0412 394.667C30.207 394.667 30.366 394.601 30.4832 394.484C30.6004 394.367 30.6662 394.208 30.6662 394.042V392.588L30.6662 392.585L30.6662 392.582V391.126C30.6662 390.96 30.6004 390.801 30.4832 390.684C30.366 390.567 30.207 390.501 30.0412 390.501C29.8755 390.501 29.7165 390.567 29.5993 390.684C29.4821 390.801 29.4162 390.96 29.4162 391.126V391.96H29V389.668L27.125 389.667ZM18.1663 391.335C18.1663 390.418 18.9163 389.668 19.8325 389.668C20.7488 389.668 21.4988 390.418 21.4988 391.335C21.4978 391.776 21.3221 392.199 21.0101 392.511C20.6981 392.824 20.2752 393 19.8338 393.001C18.9163 393.001 18.1663 392.251 18.1663 391.335ZM24.2088 395.501H20.4588C20.1175 395.501 19.8338 395.217 19.8338 394.876C19.8338 394.535 20.1175 394.251 20.4588 394.251H24.2088C24.55 394.251 24.8338 394.535 24.8338 394.876C24.8338 395.217 24.55 395.501 24.2088 395.501ZM24.8338 393.001C23.9175 393.001 23.1675 392.251 23.1675 391.335C23.1675 390.418 23.9175 389.668 24.8338 389.668C25.75 389.668 26.5 390.417 26.5 391.335C26.5 392.251 25.75 393.001 24.8338 393.001Z" fill="#ABBAD0"/>
<path d="M32.5413 378.834H31.9163V378.625C31.9163 378.459 31.8504 378.3 31.7332 378.183C31.616 378.066 31.457 378 31.2913 378C31.1255 378 30.9665 378.066 30.8493 378.183C30.7321 378.3 30.6663 378.459 30.6663 378.625V378.834H29V378.625C29 378.459 28.9342 378.3 28.8169 378.183C28.6997 378.066 28.5408 378 28.375 378C28.2092 378 28.0503 378.066 27.9331 378.183C27.8159 378.3 27.75 378.459 27.75 378.625V378.834H27.125C26.3213 378.834 25.6663 379.487 25.6663 380.292V386.542C25.6663 387.346 26.32 388.001 27.125 388.001H32.5413C32.928 388 33.2987 387.846 33.5721 387.572C33.8455 387.299 33.9993 386.928 34 386.541V380.291C34 379.487 33.3463 378.834 32.5413 378.834ZM31.0838 385.5H28.5838C28.418 385.5 28.259 385.434 28.1418 385.317C28.0246 385.2 27.9588 385.041 27.9588 384.875C27.9588 384.709 28.0246 384.55 28.1418 384.433C28.259 384.316 28.418 384.25 28.5838 384.25H31.0838C31.2495 384.25 31.4085 384.316 31.5257 384.433C31.6429 384.55 31.7088 384.709 31.7088 384.875C31.7088 385.041 31.6429 385.2 31.5257 385.317C31.4085 385.434 31.2495 385.5 31.0838 385.5ZM31.0838 383.416H28.5838C28.418 383.416 28.259 383.35 28.1418 383.233C28.0246 383.116 27.9588 382.957 27.9588 382.791C27.9588 382.625 28.0246 382.467 28.1418 382.349C28.259 382.232 28.418 382.166 28.5838 382.166H31.0838C31.2495 382.166 31.4085 382.232 31.5257 382.349C31.6429 382.467 31.7088 382.625 31.7088 382.791C31.7088 382.957 31.6429 383.116 31.5257 383.233C31.4085 383.35 31.2495 383.416 31.0838 383.416Z" fill="#C7D5EA"/>
</g>
<path d="M15 428C15 429.158 15.765 430.105 16.7 430.105H31.3C32.235 430.105 33 429.158 33 428C33 426.842 32.235 425.895 31.3 425.895H16.7C15.765 425.895 15 426.842 15 428Z" fill="#C7D5EA"/>
<path fill-rule="evenodd" clip-rule="evenodd" d="M31.3 436H16.7C15.765 436 15 435.053 15 433.895C15 432.737 15.765 431.789 16.7 431.789H31.3C32.235 431.789 33 432.737 33 433.895C33 435.053 32.235 436 31.3 436ZM30.875 432.632C30.1708 432.632 29.6 433.197 29.6 433.895C29.6 434.592 30.1708 435.158 30.875 435.158C31.5792 435.158 32.15 434.592 32.15 433.895C32.15 433.197 31.5792 432.632 30.875 432.632Z" fill="#ABBAD0"/>
<path fill-rule="evenodd" clip-rule="evenodd" d="M31.3 424.211H16.7C15.765 424.211 15 423.263 15 422.105C15 420.947 15.765 420 16.7 420H31.3C32.235 420 33 420.947 33 422.105C33 423.263 32.235 424.211 31.3 424.211ZM17.125 420.842C16.4208 420.842 15.85 421.408 15.85 422.105C15.85 422.803 16.4208 423.368 17.125 423.368C17.8292 423.368 18.4 422.803 18.4 422.105C18.4 421.408 17.8292 420.842 17.125 420.842Z" fill="#ABBAD0"/>
<path d="M27.9954 464.503C27.9317 464.173 27.8381 463.848 27.7156 463.535L29.3495 462.136L26.9415 459.364L25.3075 460.765C24.7178 460.43 24.0709 460.206 23.3994 460.104L22.9953 458L19.3757 458.685L19.7798 460.79C19.1931 461.13 18.6747 461.574 18.2504 462.101L16.2117 461.395L15 464.853L17.0377 465.557C17.0422 466.231 17.1704 466.899 17.4161 467.527L15.7822 468.926L18.1902 471.698L19.8244 470.298C20.4141 470.632 21.0609 470.856 21.7323 470.958L22.1364 473.062L25.7561 472.377L25.352 470.272C25.9386 469.932 26.4571 469.488 26.8814 468.961L28.9201 469.667L30.1317 466.209L28.0941 465.506C28.0917 465.169 28.0587 464.834 27.9954 464.503ZM24.3757 465.188C24.444 465.544 24.4045 465.911 24.2624 466.245C24.1203 466.578 23.8819 466.862 23.5773 467.06C23.2727 467.259 22.9156 467.363 22.5513 467.36C22.1869 467.358 21.8315 467.247 21.5301 467.044C21.2288 466.841 20.9949 466.553 20.8581 466.218C20.7214 465.882 20.6878 465.514 20.7617 465.16C20.8357 464.806 21.0137 464.481 21.2734 464.227C21.5332 463.973 21.8628 463.802 22.2208 463.734C22.7008 463.643 23.1975 463.745 23.6016 464.018C24.0057 464.291 24.2842 464.712 24.3757 465.188Z" fill="#ABBAD0"/>
<path d="M32.1507 471.736C32.0301 471.583 31.8958 471.442 31.7494 471.313L32.2147 470.167L30.2417 469.377L29.7771 470.525C29.3855 470.508 28.9942 470.563 28.6228 470.687L27.8552 469.714L26.1817 471.016L26.9493 471.989C26.739 472.318 26.5916 472.682 26.5143 473.063L25.2809 473.236L25.5804 475.327L26.8126 475.153C26.9945 475.498 27.2381 475.807 27.5315 476.064L27.0662 477.211L29.0392 478L29.5041 476.853C29.8955 476.869 30.2868 476.814 30.6581 476.69L31.4257 477.663L33.0992 476.361L32.3316 475.388C32.5419 475.06 32.6893 474.696 32.7666 474.314L34 474.141L33.7005 472.05L32.4683 472.224C32.3775 472.052 32.2712 471.889 32.1507 471.736ZM30.4772 473.038C30.6069 473.202 30.6845 473.401 30.7004 473.609C30.7162 473.817 30.6696 474.025 30.5663 474.207C30.463 474.389 30.3077 474.536 30.1201 474.631C29.9325 474.725 29.721 474.762 29.5123 474.736C29.3036 474.711 29.1071 474.625 28.9477 474.489C28.7882 474.353 28.673 474.173 28.6165 473.972C28.5601 473.771 28.565 473.558 28.6305 473.359C28.6961 473.161 28.8195 472.987 28.9849 472.858C29.2069 472.685 29.4888 472.607 29.7686 472.641C30.0485 472.675 30.3034 472.817 30.4772 473.038Z" fill="#C7D5EA"/>
</g>
<path d="M47 0V836H49V0H47Z" fill="#F0F6FC" mask="url(#path-1-inside-1_406_23050)"/>
<defs>
<clipPath id="clip0_406_23050">
<path d="M0 0H48V836H0V0Z" fill="white"/>
</clipPath>
<clipPath id="clip1_406_23050">
<rect width="20" height="20" fill="white" transform="translate(14 50)"/>
</clipPath>
<clipPath id="clip2_406_23050">
<rect width="20" height="20" fill="white" transform="translate(14 378)"/>
</clipPath>
</defs>
</svg>
