<svg width="372" height="40" viewBox="0 0 372 40" fill="none" xmlns="http://www.w3.org/2000/svg">
<rect width="372" height="40" rx="4" fill="#F0F6FC"/>
<mask id="mask0_438_14150" style="mask-type:alpha" maskUnits="userSpaceOnUse" x="344" y="10" width="20" height="20">
<rect x="344" y="10" width="20" height="20" fill="#D9D9D9"/>
</mask>
<g mask="url(#mask0_438_14150)">
<path d="M354 21.6665C353.306 21.6665 352.715 21.4234 352.229 20.9373C351.743 20.4512 351.5 19.8609 351.5 19.1665V14.1665C351.5 13.4721 351.743 12.8818 352.229 12.3957C352.715 11.9096 353.306 11.6665 354 11.6665C354.694 11.6665 355.285 11.9096 355.771 12.3957C356.257 12.8818 356.5 13.4721 356.5 14.1665V19.1665C356.5 19.8609 356.257 20.4512 355.771 20.9373C355.285 21.4234 354.694 21.6665 354 21.6665ZM354 27.4998C353.764 27.4998 353.566 27.42 353.406 27.2603C353.247 27.1005 353.167 26.9026 353.167 26.6665V24.9165C351.875 24.7498 350.778 24.2151 349.875 23.3123C348.972 22.4096 348.424 21.3262 348.229 20.0623C348.188 19.8262 348.25 19.6179 348.417 19.4373C348.583 19.2568 348.806 19.1665 349.083 19.1665C349.278 19.1665 349.451 19.2394 349.604 19.3853C349.757 19.5311 349.854 19.7082 349.896 19.9165C350.076 20.8887 350.549 21.7012 351.313 22.354C352.076 23.0068 352.972 23.3332 354 23.3332C355.028 23.3332 355.924 23.0068 356.688 22.354C357.451 21.7012 357.924 20.8887 358.104 19.9165C358.146 19.7082 358.247 19.5311 358.406 19.3853C358.566 19.2394 358.743 19.1665 358.938 19.1665C359.201 19.1665 359.417 19.2568 359.583 19.4373C359.75 19.6179 359.813 19.8262 359.771 20.0623C359.576 21.3262 359.028 22.4096 358.125 23.3123C357.222 24.2151 356.125 24.7498 354.833 24.9165V26.6665C354.833 26.9026 354.753 27.1005 354.594 27.2603C354.434 27.42 354.236 27.4998 354 27.4998Z" fill="#ABBAD0"/>
</g>
</svg>
