<svg width="372" height="76" viewBox="0 0 372 76" fill="none" xmlns="http://www.w3.org/2000/svg">
<rect x="0.5" y="0.5" width="371" height="75" rx="3.5" fill="#F0F6FC"/>
<mask id="mask0_438_14156" style="mask-type:alpha" maskUnits="userSpaceOnUse" x="344" y="48" width="20" height="20">
<rect x="344" y="48" width="20" height="20" fill="#D9D9D9"/>
</mask>
<g mask="url(#mask0_438_14156)">
<path d="M354 59.6665C353.306 59.6665 352.715 59.4234 352.229 58.9373C351.743 58.4512 351.5 57.8609 351.5 57.1665V52.1665C351.5 51.4721 351.743 50.8818 352.229 50.3957C352.715 49.9096 353.306 49.6665 354 49.6665C354.694 49.6665 355.285 49.9096 355.771 50.3957C356.257 50.8818 356.5 51.4721 356.5 52.1665V57.1665C356.5 57.8609 356.257 58.4512 355.771 58.9373C355.285 59.4234 354.694 59.6665 354 59.6665ZM354 65.4998C353.764 65.4998 353.566 65.42 353.406 65.2603C353.247 65.1005 353.167 64.9026 353.167 64.6665V62.9165C351.875 62.7498 350.778 62.2151 349.875 61.3123C348.972 60.4096 348.424 59.3262 348.229 58.0623C348.188 57.8262 348.25 57.6179 348.417 57.4373C348.583 57.2568 348.806 57.1665 349.083 57.1665C349.278 57.1665 349.451 57.2394 349.604 57.3853C349.757 57.5311 349.854 57.7082 349.896 57.9165C350.076 58.8887 350.549 59.7012 351.313 60.354C352.076 61.0068 352.972 61.3332 354 61.3332C355.028 61.3332 355.924 61.0068 356.688 60.354C357.451 59.7012 357.924 58.8887 358.104 57.9165C358.146 57.7082 358.247 57.5311 358.406 57.3853C358.566 57.2394 358.743 57.1665 358.938 57.1665C359.201 57.1665 359.417 57.2568 359.583 57.4373C359.75 57.6179 359.813 57.8262 359.771 58.0623C359.576 59.3262 359.028 60.4096 358.125 61.3123C357.222 62.2151 356.125 62.7498 354.833 62.9165V64.6665C354.833 64.9026 354.753 65.1005 354.594 65.2603C354.434 65.42 354.236 65.4998 354 65.4998Z" fill="#008DE4"/>
</g>
<rect x="0.5" y="0.5" width="371" height="75" rx="3.5" stroke="#0067E7"/>
</svg>
