<svg width="26" height="22" viewBox="0 0 26 22" fill="none" xmlns="http://www.w3.org/2000/svg">
<mask id="path-1-inside-1_452_7352" fill="white">
<path d="M26 11C26 17.0751 20.1797 22 13 22C5.8203 22 0 17.0751 0 11C0 4.92487 5.8203 0 13 0C20.1797 0 26 4.92487 26 11ZM7.8 11C7.8 13.4301 10.1281 15.4 13 15.4C15.8719 15.4 18.2 13.4301 18.2 11C18.2 8.56995 15.8719 6.6 13 6.6C10.1281 6.6 7.8 8.56995 7.8 11Z"/>
</mask>
<path d="M26 11C26 17.0751 20.1797 22 13 22C5.8203 22 0 17.0751 0 11C0 4.92487 5.8203 0 13 0C20.1797 0 26 4.92487 26 11ZM7.8 11C7.8 13.4301 10.1281 15.4 13 15.4C15.8719 15.4 18.2 13.4301 18.2 11C18.2 8.56995 15.8719 6.6 13 6.6C10.1281 6.6 7.8 8.56995 7.8 11Z" fill="white" stroke="#023C9B" stroke-width="2" mask="url(#path-1-inside-1_452_7352)"/>
</svg>
